<svg xmlns="http://www.w3.org/2000/svg" width="218.949" height="145.194" viewBox="0 0 218.949 145.194">
  <g id="Group_2649" data-name="Group 2649" transform="translate(-8879.541 -9007.78)">
    <path id="Path_519" data-name="Path 519" d="M163.282,343.863H145.63a2.459,2.459,0,0,1-1.992-1.116,4.491,4.491,0,0,1-.825-2.675,4.667,4.667,0,0,1,.831-2.726,2.418,2.418,0,0,1,1.983-1.091h6.706c2.427,0,4.325-2.878,4.325-6.28v-.152a7.062,7.062,0,0,0-1.214-4.137,3.662,3.662,0,0,0-2.98-1.687H30.395a3.814,3.814,0,0,0-3.1,1.732A7.346,7.346,0,0,0,26,330.009v.182c-.008,3.3,1.889,5.994,4.264,6.065h27.5c1.556,0,2.96,1.6,2.96,3.778v.1c-.034,2.115-1.282,3.8-2.807,3.8l-10.016,0a2.132,2.132,0,0,0-1.7.979,4.087,4.087,0,0,0-.7,2.364v.008a4.029,4.029,0,0,0,.656,2.357,2.1,2.1,0,0,0,1.674.995H64.433a2.837,2.837,0,0,1,2.275,1.3,5.354,5.354,0,0,1,.944,3.133,5.428,5.428,0,0,1-.945,3.148,2.826,2.826,0,0,1-2.274,1.291H36.407a2.514,2.514,0,0,0-1.992,1.173,5.074,5.074,0,0,0-.825,2.854c-.006,2.178,1.248,3.96,2.817,4h62.14a2.4,2.4,0,0,1,1.992,1.065,4.55,4.55,0,0,1,.825,2.7,4.7,4.7,0,0,1-.831,2.737,2.439,2.439,0,0,1-1.987,1.1H75.507a2.509,2.509,0,0,0-1.992,1.169,5.077,5.077,0,0,0-.825,2.858c-.006,2.178,1.248,3.96,2.817,4h71.85c1.6-.069,2.879-1.87,2.906-4.091v-.1c-.022-2.107-1.261-3.8-2.779-3.791l-16.04,0a2.487,2.487,0,0,1-1.988-1.147,4.768,4.768,0,0,1-.816-2.763v-.118a4.613,4.613,0,0,1,.78-2.683,2.4,2.4,0,0,1,1.923-1.116l15.685,0c1.447,0,2.622-1.618,2.627-3.626v-.106c-.017-2-1.157-3.628-2.595-3.711H116.532c-1.666,0-3.122-1.686-3.122-4V355.8c.026-2.26,1.356-4.072,2.985-4.066l46.862,0a2.505,2.505,0,0,0,2.005-1.145,4.862,4.862,0,0,0,.832-2.789c.005-2.164-1.253-3.926-2.812-3.939Z" transform="translate(8932.396 8733.128)" fill="#fdd9e2" opacity="0.8"/>
    <path id="Path_529" data-name="Path 529" d="M131.208,339.222H117.68a1.884,1.884,0,0,1-1.526-.855,3.442,3.442,0,0,1-.633-2.05,3.576,3.576,0,0,1,.637-2.089,1.853,1.853,0,0,1,1.52-.836h5.14c1.86,0,3.314-2.206,3.314-4.813v-.117a5.412,5.412,0,0,0-.93-3.17A2.807,2.807,0,0,0,122.917,324H29.368a2.923,2.923,0,0,0-2.377,1.327A5.629,5.629,0,0,0,26,328.605v.139c-.006,2.526,1.447,4.594,3.268,4.648H50.34c1.193,0,2.269,1.227,2.269,2.9v.074c-.026,1.621-.982,2.915-2.151,2.909l-7.676,0a1.634,1.634,0,0,0-1.3.75,3.132,3.132,0,0,0-.539,1.812v.006a3.088,3.088,0,0,0,.5,1.806,1.609,1.609,0,0,0,1.283.762h12.73a2.174,2.174,0,0,1,1.744,1,4.1,4.1,0,0,1,.724,2.4,4.159,4.159,0,0,1-.724,2.413,2.166,2.166,0,0,1-1.743.989H33.975a1.927,1.927,0,0,0-1.526.9,3.888,3.888,0,0,0-.633,2.187c0,1.669.957,3.034,2.159,3.068H81.6a1.84,1.84,0,0,1,1.526.816,3.487,3.487,0,0,1,.633,2.07,3.6,3.6,0,0,1-.637,2.1,1.869,1.869,0,0,1-1.522.847H63.94a1.923,1.923,0,0,0-1.526.9,3.891,3.891,0,0,0-.633,2.19c0,1.669.957,3.035,2.159,3.068H119c1.226-.053,2.206-1.433,2.227-3.135v-.078c-.017-1.615-.966-2.91-2.13-2.905l-12.293,0a1.906,1.906,0,0,1-1.524-.879,3.654,3.654,0,0,1-.626-2.117v-.091a3.535,3.535,0,0,1,.6-2.056,1.842,1.842,0,0,1,1.474-.856l12.02,0c1.109,0,2.01-1.24,2.013-2.779v-.081c-.013-1.531-.886-2.78-1.989-2.844H95.38c-1.277,0-2.392-1.292-2.392-3.064v-.1c.02-1.732,1.039-3.12,2.287-3.116l35.913,0a1.92,1.92,0,0,0,1.537-.878,3.727,3.727,0,0,0,.638-2.138c0-1.658-.96-3.009-2.155-3.019Z" transform="translate(8853.541 8735.671)" fill="#fdd9e2" opacity="0.8"/>
    <rect id="Rectangle_631" data-name="Rectangle 631" width="97" height="88" transform="translate(8938.157 9056.494)" fill="#fff"/>
    <path id="Path_507" data-name="Path 507" d="M46.364,10.032l24.909.03V22.548l-8.085-.062H34.971A12.481,12.481,0,0,0,22.485,34.971v99.477A12.481,12.481,0,0,1,10,121.962V22.485A12.481,12.481,0,0,1,22.485,10Zm0,0" transform="translate(8930.456 9014.167)" fill="#fdd9e2" opacity="0.8"/>
    <path id="Path_506" data-name="Path 506" d="M66.14.968a3.3,3.3,0,0,0-1.9-.906L63.519,0H15.606A15.613,15.613,0,0,0,0,15.607V115.49A15.613,15.613,0,0,0,15.606,131.1H85.118a15.613,15.613,0,0,0,15.607-15.607V36.8a3.226,3.226,0,0,0-.9-2.215Zm.844,9.676,23.16,23.1h-13.8a9.392,9.392,0,0,1-9.364-9.364ZM85.15,124.854H15.606a9.392,9.392,0,0,1-9.364-9.364V15.607a9.392,9.392,0,0,1,9.364-9.364H60.741V24.378A15.612,15.612,0,0,0,76.348,39.985H94.482v75.5a9.344,9.344,0,0,1-9.332,9.364Zm0,0" transform="translate(8936.461 9021.047)" fill="#fe6a4d"/>
    <path id="Path_508" data-name="Path 508" d="M123.961,306.046c.526-.39,13.021-9.446,25.687,0l2.191-2.939c-14.891-11.11-29.923-.109-30.073,0Z" transform="translate(8849.902 8803.142)" fill="#973c56"/>
    <path id="Path_511" data-name="Path 511" d="M172.48,324.3H47.222a3.121,3.121,0,0,0,0,6.243H172.48a3.121,3.121,0,0,0,0-6.243Zm0,0" transform="translate(8879.674 8822.431)" fill="#fe6a4d"/>
    <path id="Path_514" data-name="Path 514" d="M86,324.3H47.222a3.121,3.121,0,0,0,0,6.243H86a3.121,3.121,0,0,0,0-6.243Zm0,0" transform="translate(8996.732 8810.2)" fill="#fe6a4d"/>
    <path id="Path_515" data-name="Path 515" d="M89.789,324.3H77.222a3.121,3.121,0,0,0,0,6.243H89.789a3.121,3.121,0,0,0,0-6.243Zm0,0" transform="translate(8838.316 8810.2)" fill="#fe6a4d"/>
    <path id="Path_516" data-name="Path 516" d="M9.869,0H1.964a1.964,1.964,0,0,0,0,3.927H9.869A1.964,1.964,0,1,0,9.869,0Zm0,0" transform="translate(8922.218 9028.08) rotate(-9)" fill="#973c56"/>
    <path id="Path_517" data-name="Path 517" d="M9.869,0H1.964a1.964,1.964,0,0,0,0,3.927H9.869A1.964,1.964,0,0,0,9.869,0Zm0,0" transform="matrix(0.829, 0.559, -0.559, 0.829, 8926.21, 9014.49)" fill="#973c56"/>
    <path id="Path_518" data-name="Path 518" d="M9.869,0H1.964a1.964,1.964,0,0,0,0,3.927H9.869A1.964,1.964,0,0,0,9.869,0Zm0,0" transform="translate(8939.825 9007.78) rotate(81)" fill="#973c56"/>
    <path id="Path_512" data-name="Path 512" d="M58.915,324.3H47.222a3.121,3.121,0,0,0,0,6.243H58.915a3.121,3.121,0,0,0,0-6.243Zm0,0" transform="translate(9014.204 8822.431)" fill="#fe6a4d"/>
    <path id="Path_513" data-name="Path 513" d="M57.651,324.3H37.222a3.121,3.121,0,0,0,0,6.243H57.651a3.121,3.121,0,0,0,0-6.243Zm0,0" transform="translate(8860.845 8822.431)" fill="#fe6a4d"/>
    <g id="Group_2648" data-name="Group 2648" transform="translate(8966.43 9074.365)">
      <ellipse id="Ellipse_56" data-name="Ellipse 56" cx="5.5" cy="5" rx="5.5" ry="5" transform="translate(-0.273 0.129)" fill="#973c56"/>
      <circle id="Ellipse_57" data-name="Ellipse 57" cx="5" cy="5" r="5" transform="translate(30.727 0.129)" fill="#973c56"/>
    </g>
  </g>
</svg>
