<svg xmlns="http://www.w3.org/2000/svg" width="28" height="22.969" viewBox="0 0 28 22.969">
  <g id="coding" transform="translate(0 -46)">
    <path id="Path_77" data-name="Path 77" d="M0,46v6.563H28V46Zm4.922,4.1H3.281V48.461H4.922Zm3.281,0H6.563V48.461H8.2Zm3.281,0H9.844V48.461h1.641Z" transform="translate(0 0)" fill="#fff"/>
    <path id="Path_78" data-name="Path 78" d="M0,210.766H28V196H0Zm18.75-11.075,1.16-1.16,4.06,4.06-4.06,4.06-1.16-1.16,2.9-2.9Zm-3.519-.916,1.407.844-3.869,6.453-1.407-.844Zm-7.145-.244,1.16,1.16-2.9,2.9,2.9,2.9-1.16,1.16-4.06-4.06Z" transform="translate(0 -141.797)" fill="#fff"/>
  </g>
</svg>
