<svg xmlns="http://www.w3.org/2000/svg" width="18.568" height="29.708" viewBox="0 0 18.568 29.708">
  <path id="Icon_awesome-mobile-alt" data-name="Icon awesome-mobile-alt" d="M15.783,0h-13A2.786,2.786,0,0,0,0,2.785V26.923a2.786,2.786,0,0,0,2.785,2.785h13a2.786,2.786,0,0,0,2.785-2.785V2.785A2.786,2.786,0,0,0,15.783,0Zm-6.5,27.852a1.857,1.857,0,1,1,1.857-1.857A1.855,1.855,0,0,1,9.284,27.852Zm6.5-6.267a.7.7,0,0,1-.7.7H3.481a.7.7,0,0,1-.7-.7V3.481a.7.7,0,0,1,.7-.7h11.6a.7.7,0,0,1,.7.7Z" fill="gray"/>
</svg>
