<svg xmlns="http://www.w3.org/2000/svg" width="26" height="28.51" viewBox="0 0 26 28.51">
  <g id="checklist" transform="translate(-16)">
    <path id="Path_85" data-name="Path 85" d="M40.7,16H35.5v3.533a1.243,1.243,0,0,1-1.3,1.178H23.8a1.243,1.243,0,0,1-1.3-1.178V16H17.3A1.243,1.243,0,0,0,16,17.178V40.733a1.243,1.243,0,0,0,1.3,1.178H40.7A1.243,1.243,0,0,0,42,40.733V17.178A1.243,1.243,0,0,0,40.7,16ZM24.069,39.03a1.4,1.4,0,0,1-1.663.4l-2.6-1.178,1.163-2.107,1.573.713,1.963-2.668L26.669,35.5Zm0-5.889a1.4,1.4,0,0,1-1.663.4l-2.6-1.178,1.163-2.107,1.573.713L24.506,28.3l2.163,1.307Zm0-5.889a1.4,1.4,0,0,1-1.663.4l-2.6-1.178,1.163-2.107,1.573.713,1.963-2.668,2.163,1.307ZM38.1,38.377H29V36.022h9.1Zm0-5.889H29V30.133h9.1Zm0-5.889H29V24.244h9.1Z" transform="translate(0 -13.4)" fill="gray"/>
    <path id="Path_86" data-name="Path 86" d="M73.1,0H65.3A1.3,1.3,0,0,0,64,1.3V6.5H74.4V1.3A1.3,1.3,0,0,0,73.1,0ZM69.2,3.9a1.3,1.3,0,1,1,1.3-1.3A1.3,1.3,0,0,1,69.2,3.9Z" transform="translate(-40.2)" fill="gray"/>
  </g>
</svg>
