<svg xmlns="http://www.w3.org/2000/svg" width="30" height="29.998" viewBox="0 0 30 29.998">
  <path id="store" d="M19.563,20.58v9.437H15.5V21.142a.5.5,0,0,0-1,0v8.874H10.439V20.58a1.5,1.5,0,0,1,1.5-1.5h6.125A1.5,1.5,0,0,1,19.563,20.58Zm8.249-4.717a5.115,5.115,0,0,1-5.236-.825.5.5,0,0,0-.652,0,5.115,5.115,0,0,1-6.6,0,.506.506,0,0,0-.655,0,5.115,5.115,0,0,1-6.6,0,.5.5,0,0,0-.652,0,5.109,5.109,0,0,1-5.234.826.5.5,0,0,0-.688.463V27.517a2.5,2.5,0,0,0,2.5,2.5H9.439V20.58a2.5,2.5,0,0,1,2.5-2.5h6.125a2.5,2.5,0,0,1,2.5,2.5v9.437H26a2.5,2.5,0,0,0,2.5-2.5V16.326a.5.5,0,0,0-.688-.463ZM3.752,8.518a.5.5,0,0,1-.5-.533.511.511,0,0,1,.516-.467h25.3a.5.5,0,0,0,.459-.7L26.709.32a.5.5,0,0,0-.459-.3H3.752a.5.5,0,0,0-.459.3L.043,7.82C-.015,7.952,0,7.751,0,11.12a4.122,4.122,0,0,0,7.539,2.307.251.251,0,0,1,.418,0,4.123,4.123,0,0,0,6.833,0,.251.251,0,0,1,.417,0,4.123,4.123,0,0,0,6.832,0,.25.25,0,0,1,.414,0A4.124,4.124,0,0,0,30,11.056V9.018a.5.5,0,0,0-.5-.5H3.752Z" transform="translate(0 -0.019)" fill="gray"/>
</svg>
