<svg xmlns="http://www.w3.org/2000/svg" width="23" height="26.133" viewBox="0 0 23 26.133">
  <g id="information_1_" data-name="information (1)" transform="translate(-61)">
    <path id="Path_138" data-name="Path 138" d="M331.766,14.465h4.911L331,8.789V13.7A.766.766,0,0,0,331.766,14.465Z" transform="translate(-253.125 -8.34)" fill="gray"/>
    <path id="Path_139" data-name="Path 139" d="M63.654,26.133H81.346A2.5,2.5,0,0,0,84,23.837V7.656H77.808a2.5,2.5,0,0,1-2.654-2.3V0h-11.5A2.5,2.5,0,0,0,61,2.3v21.54A2.5,2.5,0,0,0,63.654,26.133ZM68.962,12.3h8.846a.774.774,0,1,1,0,1.531H68.962a.774.774,0,1,1,0-1.531Zm0,3.063h8.846a.774.774,0,1,1,0,1.531H68.962a.774.774,0,1,1,0-1.531Zm0,3.063h8.846a.774.774,0,1,1,0,1.531H68.962a.774.774,0,1,1,0-1.531ZM65.423,12.3a.774.774,0,1,1-.885.766A.832.832,0,0,1,65.423,12.3Zm0,3.063a.774.774,0,1,1-.885.766A.832.832,0,0,1,65.423,15.364Zm0,3.063a.774.774,0,1,1-.885.766A.832.832,0,0,1,65.423,18.426Z" fill="gray"/>
  </g>
</svg>
