<svg id="app" xmlns="http://www.w3.org/2000/svg" width="27" height="27" viewBox="0 0 27 27">
  <path id="Path_153" data-name="Path 153" d="M10.734,0H1.582A1.584,1.584,0,0,0,0,1.582v9.152a1.584,1.584,0,0,0,1.582,1.582h9.152a1.584,1.584,0,0,0,1.582-1.582V1.582A1.584,1.584,0,0,0,10.734,0Z" fill="gray"/>
  <path id="Path_154" data-name="Path 154" d="M31.582,12.316h9.152a1.584,1.584,0,0,0,1.582-1.582V1.582A1.584,1.584,0,0,0,40.734,0H31.582A1.584,1.584,0,0,0,30,1.582v9.152A1.584,1.584,0,0,0,31.582,12.316Z" transform="translate(-15.789)" fill="gray"/>
  <path id="Path_155" data-name="Path 155" d="M10.734,30H1.582A1.584,1.584,0,0,0,0,31.582v9.152a1.584,1.584,0,0,0,1.582,1.582h9.152a1.584,1.584,0,0,0,1.582-1.582V31.582A1.584,1.584,0,0,0,10.734,30Z" transform="translate(0 -15.789)" fill="gray"/>
  <path id="Path_156" data-name="Path 156" d="M41.316,34.684H36.579V29.947a.947.947,0,0,0-1.895,0v4.737H29.947a.947.947,0,0,0,0,1.895h4.737v4.737a.947.947,0,0,0,1.895,0V36.579h4.737a.947.947,0,0,0,0-1.895Z" transform="translate(-15.263 -15.263)" fill="gray"/>
</svg>
