<svg id="staff" xmlns="http://www.w3.org/2000/svg" width="30.141" height="22.438" viewBox="0 0 30.141 22.438">
  <g id="_x31__143_">
    <g id="Group_42" data-name="Group 42">
      <path id="Path_45" data-name="Path 45" d="M4.42,12.98c.675,2.576,2.852,4.95,5.61,4.95,2.8,0,5.011-2.363,5.7-4.932a.559.559,0,0,0,.5-.5l.087-1.015a.559.559,0,0,0-.385-.575c0-.061-.006-.122-.013-.182-.052-2.327-.456-4.206-2.288-4.983a6.533,6.533,0,0,0-4.888-.344c-.082.033-.294.315-.377.366s-.521-.093-.688-.055C4.943,6.1,4.038,8.683,4.238,10.7c-.006.056-.01.113-.014.17a.559.559,0,0,0-.431.588l.087,1.015A.561.561,0,0,0,4.42,12.98ZM5,10.969c1.2-.44,3.513-1.36,3.764-1.844,1.051,1.092,4.763,1.705,6.392,1.91.007.106.016.208.016.315,0,2.679-2.248,5.793-5.146,5.793S4.986,14.085,4.986,11.35C4.985,11.222,4.995,11.1,5,10.969Z" transform="translate(-0.91 -5.068)" fill="gray"/>
      <path id="Path_46" data-name="Path 46" d="M13.542,20.775a.75.75,0,0,0-.378.048l-2.311,3.126L9.1,22.55l-.011.009v.01l0,0-1.753,1.4L5.021,20.839a.74.74,0,0,0-.378-.049C.277,21.406,0,31.268,0,31.268l9.1.006v-.016l9.088-.006S17.907,21.39,13.542,20.775Z" transform="translate(0 -8.836)" fill="gray"/>
      <path id="Path_47" data-name="Path 47" d="M23.836,13.275c.547,2.09,2.313,4.014,4.55,4.014,2.271,0,4.065-1.916,4.626-4a.454.454,0,0,0,.409-.408l.071-.823a.454.454,0,0,0-.312-.467c0-.048-.005-.1-.011-.147C33.127,9.557,32.8,8.031,31.315,7.4a5.3,5.3,0,0,0-3.965-.28c-.066.027-.238.255-.3.3s-.423-.077-.558-.045a3.482,3.482,0,0,0-2.8,4.049c-.005.046-.008.092-.011.138a.453.453,0,0,0-.349.477l.07.823A.453.453,0,0,0,23.836,13.275Zm.473-1.632c.974-.357,2.85-1.1,3.053-1.5.853.885,3.864,1.382,5.185,1.55.006.084.014.169.014.255,0,2.172-1.822,4.7-4.174,4.7s-4.093-2.481-4.093-4.7C24.294,11.849,24.3,11.746,24.31,11.644Z" transform="translate(-5.598 -5.498)" fill="gray"/>
      <path id="Path_48" data-name="Path 48" d="M31.63,19.6a.6.6,0,0,0-.306.038l-1.876,2.536-1.422-1.134-.008.007v.008l0,0-1.422,1.134L24.719,19.65a.607.607,0,0,0-.306-.038A3.545,3.545,0,0,0,21.9,21.959a12.132,12.132,0,0,1,1.186,2.386,19.033,19.033,0,0,1,.819,3.768l4.121,0V28.1l7.372,0S35.172,20.1,31.63,19.6Z" transform="translate(-5.256 -8.554)" fill="gray"/>
    </g>
  </g>
</svg>
