<svg xmlns="http://www.w3.org/2000/svg" width="30.007" height="30.006" viewBox="0 0 30.007 30.006">
  <g id="school" transform="translate(0.007 -0.018)">
    <path id="Path_131" data-name="Path 131" d="M358.874,355.3l-1.381-3.592-5.781,5.781,3.592,1.381Z" transform="translate(-331.106 -331.082)" fill="gray"/>
    <path id="Path_132" data-name="Path 132" d="M0,0H8.791V4.109H0Z" transform="translate(16.236 22.479) rotate(-45)" fill="gray"/>
    <path id="Path_133" data-name="Path 133" d="M443.636,446.1l4.007,1.541-1.541-4.007Z" transform="translate(-417.642 -417.619)" fill="gray"/>
    <path id="Path_134" data-name="Path 134" d="M0,0H8.791V10.669H0Z" transform="translate(-0.007 6.233) rotate(-45)" fill="gray"/>
    <path id="Path_135" data-name="Path 135" d="M38.079,355.3l3.571,3.571,3.592-1.381-5.781-5.781Z" transform="translate(-35.854 -331.082)" fill="gray"/>
    <path id="Path_136" data-name="Path 136" d="M0,447.643,4.007,446.1l-2.466-2.466Z" transform="translate(-0.007 -417.619)" fill="gray"/>
    <path id="Path_137" data-name="Path 137" d="M0,0H27.085V8.791H0Z" transform="translate(4.631 19.168) rotate(-45)" fill="gray"/>
  </g>
</svg>
