<svg xmlns="http://www.w3.org/2000/svg" width="25.031" height="24.226" viewBox="0 0 25.031 24.226">
  <g id="user" transform="translate(0 0)">
    <path id="Path_69" data-name="Path 69" d="M94.258,14.452a6.992,6.992,0,0,0,5.109-2.117,6.992,6.992,0,0,0,2.117-5.109,6.993,6.993,0,0,0-2.117-5.109,7.225,7.225,0,0,0-10.218,0,6.992,6.992,0,0,0-2.117,5.109,6.992,6.992,0,0,0,2.117,5.109A6.994,6.994,0,0,0,94.258,14.452Zm0,0" transform="translate(-81.932)" fill="#fff"/>
    <path id="Path_70" data-name="Path 70" d="M24.97,252.7a7.3,7.3,0,0,0-.243-1.19,6.678,6.678,0,0,0-.466-1.2,5.31,5.31,0,0,0-1.965-2.082,6.219,6.219,0,0,0-1.7-.669,9.025,9.025,0,0,0-2.167-.246,3.038,3.038,0,0,0-1.174.313c-.352.144-.764.311-1.223.5a9.512,9.512,0,0,1-1.583.438,9.644,9.644,0,0,1-3.872,0A9.489,9.489,0,0,1,9,248.124c-.455-.183-.867-.349-1.225-.5a3.033,3.033,0,0,0-1.174-.313,9.012,9.012,0,0,0-2.167.246,6.212,6.212,0,0,0-1.7.669,5.31,5.31,0,0,0-1.965,2.082,6.693,6.693,0,0,0-.466,1.2A7.273,7.273,0,0,0,.06,252.7,10.16,10.16,0,0,0,0,253.812a2.68,2.68,0,0,0,1.48,2.365,7.4,7.4,0,0,0,3.813.873H19.738a7.4,7.4,0,0,0,3.813-.873,2.679,2.679,0,0,0,1.48-2.366,10.116,10.116,0,0,0-.061-1.112Zm0,0" transform="translate(0 -232.824)" fill="#fff"/>
  </g>
</svg>
