<svg id="order_1_" data-name="order (1)" xmlns="http://www.w3.org/2000/svg" width="27.857" height="26.619" viewBox="0 0 27.857 26.619">
  <path id="Path_140" data-name="Path 140" d="M221.94,11.378h-4V16.2h4Z" transform="translate(-205.942 -11.378)" fill="#fff"/>
  <path id="Path_141" data-name="Path 141" d="M221.94,134.067h-4v2.473h4Z" transform="translate(-205.942 -127.391)" fill="#fff"/>
  <path id="Path_142" data-name="Path 142" d="M52.131,134.067v8.849a2.805,2.805,0,0,0-1.545.859L47.523,147.1l-.024.025v-.677a2.583,2.583,0,0,0-2.58-2.58H40.629a8.978,8.978,0,0,1-2.429-.94,7.35,7.35,0,0,0-6.447.1l-1.236.628a2.662,2.662,0,0,0-2.509-1.917h-.733v-7.677H35.9v3.4a.928.928,0,0,0,.928.928h5.854a.928.928,0,0,0,.928-.928v-3.4Z" transform="translate(-25.758 -127.391)" fill="#fff"/>
  <path id="Path_143" data-name="Path 143" d="M334.147,16.2h-8.626V12.665a1.193,1.193,0,0,1,1.069-1.287h7.557Z" transform="translate(-324.003 -11.378)" fill="#fff"/>
  <path id="Path_144" data-name="Path 144" d="M458.4,309.24a.866.866,0,0,1,.785.926v8.293a.866.866,0,0,1-.785.926h-1.465a.866.866,0,0,1-.785-.926v-8.293a.866.866,0,0,1,.785-.926Z" transform="translate(-456.15 -293.032)" fill="#fff"/>
  <path id="Path_145" data-name="Path 145" d="M27.275,11.378h7.631a.992.992,0,0,1,.889,1.069V16.2h-8.52Z" transform="translate(-9.422 -11.378)" fill="#fff"/>
  <path id="Path_146" data-name="Path 146" d="M21.3,319.23c.82-.82,2.215.252,1.435,1.205L18.559,325.5a7.417,7.417,0,0,1-5.74,2.706H8.093a22.555,22.555,0,0,1-5.218-.613L0,326.907v-7.035l1.943-.987a5.5,5.5,0,0,1,4.826-.077l1.652.768a3.723,3.723,0,0,0,1.559.345H14.27a.726.726,0,0,1,.725.725v1.405H6.663a.928.928,0,0,0,0,1.855h8.492a4.267,4.267,0,0,0,3.084-1.352Z" transform="translate(4.891 -301.588)" fill="#fff"/>
</svg>
