<svg xmlns="http://www.w3.org/2000/svg" width="21.067" height="27.65" viewBox="0 0 21.067 27.65">
  <path id="Icon_material-lock" data-name="Icon material-lock" d="M24.433,10.717H23.117V8.083a6.583,6.583,0,1,0-13.167,0v2.633H8.633A2.641,2.641,0,0,0,6,13.35V26.517A2.641,2.641,0,0,0,8.633,29.15h15.8a2.641,2.641,0,0,0,2.633-2.633V13.35A2.641,2.641,0,0,0,24.433,10.717Zm-7.9,11.85a2.633,2.633,0,1,1,2.633-2.633A2.641,2.641,0,0,1,16.533,22.567Zm4.082-11.85H12.452V8.083a4.082,4.082,0,1,1,8.163,0Z" transform="translate(-6 -1.5)" fill="#fff"/>
</svg>
