<svg xmlns="http://www.w3.org/2000/svg" width="19.275" height="25.7" viewBox="0 0 19.275 25.7">
  <g id="invoice" transform="translate(-64)">
    <path id="Path_151" data-name="Path 151" d="M70.313,6.113V1.4a.25.25,0,0,0-.355-.229.8.8,0,0,0-.213.153L65.328,5.746a.8.8,0,0,0-.153.213.25.25,0,0,0,.229.355h4.708A.2.2,0,0,0,70.313,6.113Z" transform="translate(-1.093 -1.093)" fill="gray"/>
    <path id="Path_152" data-name="Path 152" d="M81.468,0H71.078a.251.251,0,0,0-.251.251V5.02A1.807,1.807,0,0,1,69.02,6.827H64.251A.251.251,0,0,0,64,7.078V23.893A1.807,1.807,0,0,0,65.807,25.7H81.468a1.807,1.807,0,0,0,1.807-1.807V1.807A1.807,1.807,0,0,0,81.468,0ZM74.441,19.173v.5a.8.8,0,0,1-1.606,0v-.5A3.2,3.2,0,0,1,70.47,16.6a.8.8,0,1,1,1.584-.265,1.606,1.606,0,1,0,1.584-1.875,3.213,3.213,0,0,1-.8-6.323v-.5a.8.8,0,0,1,1.606,0v.5a3.2,3.2,0,0,1,2.365,2.577.8.8,0,1,1-1.584.265,1.606,1.606,0,1,0-1.584,1.875,3.213,3.213,0,0,1,.8,6.323Z" transform="translate(0 0)" fill="gray"/>
  </g>
</svg>
