<svg xmlns="http://www.w3.org/2000/svg" width="25.5" height="19.5" viewBox="0 0 25.5 19.5">
  <path id="Icon_material-group-add" data-name="Icon material-group-add" d="M9,16.5a4.5,4.5,0,1,1,1.365-8.79A7.4,7.4,0,0,0,9.015,12a7.547,7.547,0,0,0,1.35,4.29A4.485,4.485,0,0,1,9,16.5Zm7.5,0A4.5,4.5,0,1,1,21,12,4.481,4.481,0,0,1,16.5,16.5ZM6.57,19.74A5.55,5.55,0,0,0,4.5,24v3H0V24C0,21.69,3.555,20.265,6.57,19.74Zm9.93-.24c3,0,9,1.5,9,4.5v3H7.5V24C7.5,21,13.5,19.5,16.5,19.5Z" transform="translate(0 -7.5)" fill="#fff"/>
</svg>
