<svg xmlns="http://www.w3.org/2000/svg" width="21" height="28" viewBox="0 0 21 28">
  <path id="Icon_awesome-clipboard-list" data-name="Icon awesome-clipboard-list" d="M18.375,3.5H14a3.5,3.5,0,0,0-7,0H2.625A2.626,2.626,0,0,0,0,6.125v19.25A2.626,2.626,0,0,0,2.625,28h15.75A2.626,2.626,0,0,0,21,25.375V6.125A2.626,2.626,0,0,0,18.375,3.5ZM5.25,23.188a1.313,1.313,0,1,1,1.313-1.312A1.309,1.309,0,0,1,5.25,23.188Zm0-5.25a1.313,1.313,0,1,1,1.313-1.312A1.309,1.309,0,0,1,5.25,17.938Zm0-5.25a1.313,1.313,0,1,1,1.313-1.312A1.309,1.309,0,0,1,5.25,12.687Zm5.25-10.5A1.313,1.313,0,1,1,9.188,3.5,1.309,1.309,0,0,1,10.5,2.187Zm7,20.125a.439.439,0,0,1-.437.437H9.188a.439.439,0,0,1-.438-.437v-.875A.439.439,0,0,1,9.188,21h7.875a.439.439,0,0,1,.437.437Zm0-5.25a.439.439,0,0,1-.437.437H9.188a.439.439,0,0,1-.438-.437v-.875a.439.439,0,0,1,.438-.438h7.875a.439.439,0,0,1,.437.438Zm0-5.25a.439.439,0,0,1-.437.438H9.188a.439.439,0,0,1-.438-.437v-.875a.439.439,0,0,1,.438-.437h7.875a.439.439,0,0,1,.437.438Z" fill="#fff"/>
</svg>
