<svg xmlns="http://www.w3.org/2000/svg" width="20.32" height="25.4" viewBox="0 0 20.32 25.4">
  <g id="Icon_ionic-ios-copy" data-name="Icon ionic-ios-copy" transform="translate(-4.5 -1.125)">
    <path id="Path_191" data-name="Path 191" d="M24.418,6.366H29.18a.318.318,0,0,0,.318-.318h0a1.477,1.477,0,0,0-.529-1.127l-4.08-3.4a1.979,1.979,0,0,0-1.09-.392h0a.391.391,0,0,0-.392.392V5.36A1.013,1.013,0,0,0,24.418,6.366Z" transform="translate(-4.678 -0.002)" fill="gray"/>
    <path id="Path_192" data-name="Path 192" d="M18.751,5.358V1.125H11.818a1.7,1.7,0,0,0-1.693,1.693V20.6a1.7,1.7,0,0,0,1.693,1.693h12.7A1.7,1.7,0,0,0,26.212,20.6V7.74h-5.08A2.385,2.385,0,0,1,18.751,5.358Z" transform="translate(-1.392)" fill="gray"/>
    <path id="Path_193" data-name="Path 193" d="M7.252,23.194V5.625H6.193A1.7,1.7,0,0,0,4.5,7.318V25.945a1.7,1.7,0,0,0,1.693,1.693H19.74a1.7,1.7,0,0,0,1.693-1.693V24.887H8.945A1.7,1.7,0,0,1,7.252,23.194Z" transform="translate(0 -1.113)" fill="gray"/>
  </g>
</svg>
