<svg xmlns="http://www.w3.org/2000/svg" width="25.906" height="25.9" viewBox="0 0 25.906 25.9">
  <g id="graph_2_" data-name="graph (2)" transform="translate(0 -0.05)">
    <g id="Group_566" data-name="Group 566" transform="translate(0 10.223)">
      <g id="Group_565" data-name="Group 565">
        <path id="Path_183" data-name="Path 183" d="M6.476,187.75H.927a.93.93,0,0,0-.927.927v13.874a.926.926,0,0,0,.927.927h5.55a.926.926,0,0,0,.927-.927V188.677A.926.926,0,0,0,6.476,187.75Z" transform="translate(0 -187.75)" fill="#fff"/>
      </g>
    </g>
    <g id="Group_568" data-name="Group 568" transform="translate(9.251 0.05)">
      <g id="Group_567" data-name="Group 567" transform="translate(0 0)">
        <path id="Path_184" data-name="Path 184" d="M177.176.05h-5.55a.925.925,0,0,0-.927.921V25.024a.926.926,0,0,0,.927.927h5.55a.926.926,0,0,0,.927-.927V.977A.926.926,0,0,0,177.176.05Z" transform="translate(-170.7 -0.05)" fill="#fff"/>
      </g>
    </g>
    <g id="Group_570" data-name="Group 570" transform="translate(18.503 7.448)">
      <g id="Group_569" data-name="Group 569">
        <path id="Path_185" data-name="Path 185" d="M347.876,136.55h-5.55a.923.923,0,0,0-.927.927v16.649a.926.926,0,0,0,.927.927h5.55a.926.926,0,0,0,.927-.927V137.477A.926.926,0,0,0,347.876,136.55Z" transform="translate(-341.4 -136.55)" fill="#fff"/>
      </g>
    </g>
  </g>
</svg>
