<svg xmlns="http://www.w3.org/2000/svg" width="31.776" height="31.999" viewBox="0 0 31.776 31.999">
  <path id="Icon_awesome-ticket-alt" data-name="Icon awesome-ticket-alt" d="M6.014,9.01H21.048v9.021H6.014Zm18.793,4.51a2.255,2.255,0,0,0,2.255,2.255v4.51a2.255,2.255,0,0,1-2.255,2.255H2.255A2.255,2.255,0,0,1,0,20.286v-4.51a2.255,2.255,0,0,0,2.255-2.255A2.255,2.255,0,0,0,0,11.265V6.755A2.255,2.255,0,0,1,2.255,4.5H24.806a2.255,2.255,0,0,1,2.255,2.255v4.51A2.255,2.255,0,0,0,24.806,13.521ZM22.551,8.634a1.128,1.128,0,0,0-1.128-1.128H5.638A1.128,1.128,0,0,0,4.51,8.634v9.772a1.128,1.128,0,0,0,1.128,1.128H21.424a1.128,1.128,0,0,0,1.128-1.128Z" transform="matrix(0.695, -0.719, 0.719, 0.695, -3.237, 16.34)" fill="gray"/>
</svg>
