<svg xmlns="http://www.w3.org/2000/svg" width="511.977" height="450.001" viewBox="0 0 511.977 450.001">
  <g id="calendar_2_" data-name="calendar (2)" transform="translate(0 -30.988)">
    <g id="Group_1" data-name="Group 1">
      <path id="Path_1" data-name="Path 1" d="M14.977,390.988h392a15.022,15.022,0,0,0,9.609-3.472c3.765-3.153,89.652-77.038,94.889-236.528h-421C85.258,295.762,6.16,363.81,5.338,364.489a15.017,15.017,0,0,0,9.639,26.5Z" fill="#fff"/>
      <path id="Path_2" data-name="Path 2" d="M496.976,60.988h-75v-15a15,15,0,0,0-30,0v15h-76v-15a15,15,0,0,0-30,0v15h-75v-15a15,15,0,0,0-30,0v15h-75a14.854,14.854,0,0,0-15,15v45h421v-45A14.854,14.854,0,0,0,496.976,60.988Z" fill="#fff"/>
      <path id="Path_3" data-name="Path 3" d="M435.849,410.515a45.141,45.141,0,0,1-28.872,10.474h-316v45a14.991,14.991,0,0,0,15,15h391a14.991,14.991,0,0,0,15-15V297.843C483.057,368.794,442.7,404.78,435.849,410.515Z" fill="#fff"/>
    </g>
  </g>
</svg>
