<svg xmlns="http://www.w3.org/2000/svg" width="33.004" height="27.365" viewBox="0 0 33.004 27.365">
  <g id="agreement" transform="translate(0.003 -4.016)">
    <g id="Layer_1_120_" transform="translate(-0.003 4.016)">
      <g id="Group_574" data-name="Group 574">
        <g id="Group_572" data-name="Group 572" transform="translate(0 2.03)">
          <path id="Path_189" data-name="Path 189" d="M22.282,9.294A.681.681,0,0,0,22,9.126L15.7,7.147a4.478,4.478,0,0,0-4.6,1.032,2.615,2.615,0,0,0-.556.766l-2.807,6.6a1.685,1.685,0,0,0,.146,1.383,2.7,2.7,0,0,0,1.788,1.42,2.614,2.614,0,0,0,2.479-.78,2.567,2.567,0,0,0,.435-.561l.944-1.75a3.673,3.673,0,0,1,.618-.828c.81-.81,1.194-.44,1.358-.282,1.412,1.363,8.815,8.8,8.815,8.8a.879.879,0,0,1-1.212,1.213l-2.08-2.079a.685.685,0,1,0-.969.968l2.08,2.08a.878.878,0,0,1-1.211,1.211l-2.08-2.079a.685.685,0,0,0-.969.969l2.08,2.08a.878.878,0,0,1-1.213,1.211l-2.08-2.079a.685.685,0,0,0-.969.968l2.08,2.08A.879.879,0,0,1,16.563,30.7L14.032,28.17a1.5,1.5,0,0,0-.273-1.871A1.466,1.466,0,0,0,11.7,26.18a1.465,1.465,0,0,0-.12-2.061A1.466,1.466,0,0,0,9.517,24,1.462,1.462,0,0,0,9.4,21.939a1.465,1.465,0,0,0-2.06-.122,1.465,1.465,0,0,0-.121-2.061,1.482,1.482,0,0,0-1.948-.211l-4.1-4.1a.686.686,0,1,0-.97.97L4.286,20.5,3.074,21.717a1.464,1.464,0,0,0,.122,2.06,1.464,1.464,0,0,0,2.059.121,1.464,1.464,0,0,0,.121,2.06,1.466,1.466,0,0,0,2.06.121,1.463,1.463,0,0,0,.121,2.059,1.465,1.465,0,0,0,2.06.122,1.464,1.464,0,0,0,.121,2.059,1.465,1.465,0,0,0,2.06.121l1.281-1.28,2.514,2.514a2.149,2.149,0,0,0,3.029-.121,2.317,2.317,0,0,0,.681-1.5,2.352,2.352,0,0,0,2.183-2.182,2.345,2.345,0,0,0,2.18-2.182,2.308,2.308,0,0,0,1.5-.682,2.15,2.15,0,0,0,.121-3.028l-1.06-1.061,4.353-4.353a.685.685,0,0,0,0-.969Z" transform="translate(0.003 -6.907)" fill="#fff"/>
        </g>
        <g id="Group_573" data-name="Group 573" transform="translate(22.775)">
          <path id="Path_190" data-name="Path 190" d="M42.261,9.965,36.713,4.418a1.371,1.371,0,0,0-1.939,0L32.835,6.355a1.371,1.371,0,0,0,0,1.939l5.548,5.549a1.372,1.372,0,0,0,1.939,0L42.261,11.9A1.373,1.373,0,0,0,42.261,9.965Zm-2.912,2.825a1.125,1.125,0,1,1,1.126-1.125A1.125,1.125,0,0,1,39.349,12.791Z" transform="translate(-32.433 -4.016)" fill="#fff"/>
        </g>
      </g>
    </g>
  </g>
</svg>
