<svg xmlns="http://www.w3.org/2000/svg" width="27.84" height="21.221" viewBox="0 0 27.84 21.221">
  <g id="shout" transform="translate(0 0.001)">
    <path id="Path_92" data-name="Path 92" d="M220.961,15.219l9.3,4.9V0l-9.3,4.9Zm0,0" transform="translate(-208.946 0)" fill="#fff"/>
    <path id="Path_93" data-name="Path 93" d="M451.953,169.988h3.265v1.631h-3.265Zm0,0" transform="translate(-427.378 -160.746)" fill="#fff"/>
    <path id="Path_94" data-name="Path 94" d="M434.317,73.172l.624,1.507-3.017,1.25-.624-1.507Zm0,0" transform="translate(-407.849 -69.194)" fill="#fff"/>
    <path id="Path_95" data-name="Path 95" d="M434.306,248.862l-3.017-1.25.624-1.507,3.017,1.25Zm0,0" transform="translate(-407.838 -232.725)" fill="#fff"/>
    <path id="Path_96" data-name="Path 96" d="M10.383,99.934H3.265v1.632H2.992a2.992,2.992,0,0,0,0,5.985h.273v1.633H5.092l1.8,6.537h5.292l-1.8-6.27Zm0,0" transform="translate(0 -94.5)" fill="#fff"/>
  </g>
</svg>
