<svg id="Layer_1_64_" xmlns="http://www.w3.org/2000/svg" width="22.16" height="25.002" viewBox="0 0 22.16 25.002">
  <g id="Group_571" data-name="Group 571">
    <path id="Path_186" data-name="Path 186" d="M19.95,16.955a.568.568,0,0,0,1.136,0,2.831,2.831,0,0,1,.665-1.82,11.673,11.673,0,0,0,2.121-3.644.568.568,0,0,0-.536-.757H17.7a.568.568,0,0,0-.536.757,11.694,11.694,0,0,0,2.121,3.644A2.83,2.83,0,0,1,19.95,16.955Z" transform="translate(-9.439 -5.024)" fill="gray"/>
    <path id="Path_187" data-name="Path 187" d="M18.568,26.211a.568.568,0,0,0-1.136,0A2.958,2.958,0,0,1,16.053,28.5a14.925,14.925,0,0,0-4.229,4.532.569.569,0,0,0,.5.847H23.683a.568.568,0,0,0,.495-.847A14.923,14.923,0,0,0,19.949,28.5,2.956,2.956,0,0,1,18.568,26.211Z" transform="translate(-6.921 -12.003)" fill="gray"/>
    <path id="Path_188" data-name="Path 188" d="M23.694,22.729h-.34c-.39-4.422-2.98-7.817-4.993-10.228,2.013-2.411,4.6-5.806,4.994-10.228h.34a1.136,1.136,0,0,0,0-2.273H3.807a1.136,1.136,0,0,0,0,2.273h.34C4.538,6.7,7.126,10.091,9.14,12.5c-2.013,2.411-4.6,5.806-4.993,10.228H3.807a1.136,1.136,0,0,0,0,2.273H23.695a1.136,1.136,0,1,0,0-2.273Zm-17.269,0c.427-4,3.025-7.072,4.966-9.371l.1-.123a1.135,1.135,0,0,0,0-1.465l-.1-.122c-1.94-2.3-4.539-5.376-4.966-9.372H21.076c-.427,4-3.026,7.073-4.966,9.372l-.1.122a1.135,1.135,0,0,0,0,1.465l.1.123c1.941,2.3,4.538,5.376,4.965,9.371H6.425Z" transform="translate(-2.671)" fill="gray"/>
  </g>
</svg>
