<svg id="Customers" xmlns="http://www.w3.org/2000/svg" width="22.5" height="21.814" viewBox="0 0 22.5 21.814">
  <g id="user_1_" data-name="user (1)">
    <path id="Path_43" data-name="Path 43" d="M93.465,13.16a6.156,6.156,0,0,0,4.549-1.928A6.44,6.44,0,0,0,99.9,6.58a6.441,6.441,0,0,0-1.885-4.652,6.331,6.331,0,0,0-9.1,0A6.441,6.441,0,0,0,87.032,6.58a6.44,6.44,0,0,0,1.885,4.653A6.158,6.158,0,0,0,93.465,13.16Zm0,0" transform="translate(-82.388 0)" fill="#9e9e9e"/>
    <path id="Path_44" data-name="Path 44" d="M22.445,252.239a6.776,6.776,0,0,0-.219-1.088,6.171,6.171,0,0,0-.419-1.094,4.746,4.746,0,0,0-.7-1.02,4.7,4.7,0,0,0-1.062-.884,5.534,5.534,0,0,0-1.526-.612,7.981,7.981,0,0,0-1.948-.225,2.694,2.694,0,0,0-1.056.286c-.316.132-.687.284-1.1.453a8.435,8.435,0,0,1-1.423.4,8.524,8.524,0,0,1-3.481,0,8.415,8.415,0,0,1-1.422-.4c-.409-.167-.78-.319-1.1-.453a2.69,2.69,0,0,0-1.055-.286,7.97,7.97,0,0,0-1.947.225,5.53,5.53,0,0,0-1.526.612,4.694,4.694,0,0,0-1.062.884,4.755,4.755,0,0,0-.7,1.02,6.185,6.185,0,0,0-.419,1.094,6.751,6.751,0,0,0-.219,1.088A9.449,9.449,0,0,0,0,253.256a2.455,2.455,0,0,0,1.33,2.163,6.563,6.563,0,0,0,3.427.8H17.743a6.562,6.562,0,0,0,3.427-.8,2.455,2.455,0,0,0,1.33-2.163,9.409,9.409,0,0,0-.055-1.017Zm0,0" transform="translate(0 -234.404)" fill="#9e9e9e"/>
  </g>
</svg>
