<svg xmlns="http://www.w3.org/2000/svg" width="24.5" height="15.791" viewBox="0 0 24.5 15.791">
  <g id="coupon" transform="translate(0 -91)">
    <g id="Group_684" data-name="Group 684" transform="translate(18.758 101.049)">
      <g id="Group_683" data-name="Group 683">
        <path id="Path_220" data-name="Path 220" d="M392.718,301a.718.718,0,1,0,.718.718A.718.718,0,0,0,392.718,301Z" transform="translate(-392 -301)" fill="#9e9e9e"/>
      </g>
    </g>
    <g id="Group_686" data-name="Group 686" transform="translate(0 91)">
      <g id="Group_685" data-name="Group 685">
        <path id="Path_221" data-name="Path 221" d="M23.782,91H7.237v2.153a.718.718,0,0,1-1.436,0V91H.718A.717.717,0,0,0,0,91.718v4.307a.717.717,0,0,0,.718.718,2.153,2.153,0,0,1,0,4.307.717.717,0,0,0-.718.718v4.307a.717.717,0,0,0,.718.718H5.742v-2.153a.718.718,0,0,1,1.436,0v2.153h16.6a.717.717,0,0,0,.718-.718V91.718A.717.717,0,0,0,23.782,91Zm-16.6,10.767a.718.718,0,0,1-1.436,0v-1.436a.718.718,0,0,1,1.436,0Zm0-4.307a.718.718,0,0,1-1.436,0V96.024a.718.718,0,0,1,1.436,0Zm4.4-1.436a2.153,2.153,0,1,1,2.153,2.153A2.156,2.156,0,0,1,11.58,96.024Zm1.755,7.775a.717.717,0,0,1-.2-1l5.742-8.613a.718.718,0,0,1,1.194.8L14.331,103.6A.718.718,0,0,1,13.335,103.8Zm6.14.121a2.153,2.153,0,1,1,2.153-2.153A2.156,2.156,0,0,1,19.476,103.92Z" transform="translate(0 -91)" fill="#9e9e9e"/>
      </g>
    </g>
    <g id="Group_688" data-name="Group 688" transform="translate(13.016 95.307)">
      <g id="Group_687" data-name="Group 687">
        <path id="Path_222" data-name="Path 222" d="M272.718,181a.718.718,0,1,0,.718.718A.718.718,0,0,0,272.718,181Z" transform="translate(-272 -181)" fill="#9e9e9e"/>
      </g>
    </g>
  </g>
</svg>
