<svg xmlns="http://www.w3.org/2000/svg" width="20.789" height="26.219" viewBox="0 0 20.789 26.219">
  <g id="order_2_" data-name="order (2)" transform="translate(-53.023)">
    <g id="Group_446" data-name="Group 446" transform="translate(53.023 5.172)">
      <g id="Group_445" data-name="Group 445">
        <path id="Path_161" data-name="Path 161" d="M73.8,117.454,72.629,102.7A1.844,1.844,0,0,0,70.8,101H68.486v3.427a.768.768,0,0,1-1.536,0V101H59.886v3.427a.768.768,0,0,1-1.536,0V101H56.037a1.843,1.843,0,0,0-1.83,1.693l-1.171,14.758a4.27,4.27,0,0,0,4.257,4.6H69.544a4.269,4.269,0,0,0,4.256-4.6Zm-6.922-7.513-3.971,3.971a.767.767,0,0,1-1.086,0l-1.861-1.861a.768.768,0,1,1,1.086-1.086l1.319,1.318,3.429-3.429a.768.768,0,1,1,1.086,1.086Z" transform="translate(-53.023 -101.005)" fill="#9e9e9e"/>
      </g>
    </g>
    <g id="Group_448" data-name="Group 448" transform="translate(58.35)">
      <g id="Group_447" data-name="Group 447">
        <path id="Path_162" data-name="Path 162" d="M162.107,0a5.074,5.074,0,0,0-5.068,5.068v.1h1.536v-.1a3.532,3.532,0,1,1,7.064,0v.1h1.536v-.1A5.074,5.074,0,0,0,162.107,0Z" transform="translate(-157.039)" fill="#9e9e9e"/>
      </g>
    </g>
  </g>
</svg>
