<svg xmlns="http://www.w3.org/2000/svg" width="23.265" height="23.264" viewBox="0 0 23.265 23.264">
  <g id="gift" transform="translate(0 -0.013)">
    <path id="Path_99" data-name="Path 99" d="M21.175,4.01H15.9A2.544,2.544,0,0,0,12.015.757a2.031,2.031,0,0,0-.382.545,2.032,2.032,0,0,0-.382-.545A2.544,2.544,0,0,0,7.364,4.01H2.09A2.09,2.09,0,0,0,0,6.1V7.736a2.09,2.09,0,0,0,2.09,2.09H9.224A.227.227,0,0,0,9.452,9.6V5.155c.179.041.374.08.59.117.315.055.614.1.865.125V9.6a.227.227,0,0,0,.227.227h1A.227.227,0,0,0,12.36,9.6V5.4c.25-.029.55-.07.865-.125.215-.037.411-.077.59-.117V9.6a.227.227,0,0,0,.227.227h7.134a2.09,2.09,0,0,0,2.09-2.09V6.1A2.09,2.09,0,0,0,21.175,4.01ZM10.29,3.839C9,3.615,8.709,3.356,8.68,3.327a1.091,1.091,0,0,1,1.542-1.542c.029.029.286.316.51,1.6.033.187.06.369.083.537-.164-.022-.342-.049-.525-.081Zm2.7,0c-.187.033-.369.06-.537.083.022-.164.049-.342.081-.525.225-1.292.483-1.581.512-1.61a1.091,1.091,0,1,1,1.542,1.542c-.029.029-.316.286-1.6.51Z" fill="#9e9e9e"/>
    <path id="Path_100" data-name="Path 100" d="M240,248.214v11.542a.227.227,0,0,0,.227.227h1a.227.227,0,0,0,.227-.227V248.214a.227.227,0,0,0-.227-.227h-1A.227.227,0,0,0,240,248.214Z" transform="translate(-229.094 -236.706)" fill="#9e9e9e"/>
    <path id="Path_101" data-name="Path 101" d="M39.77,247.987H32.727a.727.727,0,0,0-.727.727v9.179a2.09,2.09,0,0,0,2.09,2.09h5.68a.227.227,0,0,0,.227-.227V248.214A.227.227,0,0,0,39.77,247.987Z" transform="translate(-30.546 -236.706)" fill="#9e9e9e"/>
    <path id="Path_102" data-name="Path 102" d="M311.27,247.987h-7.043a.227.227,0,0,0-.227.227v11.542a.227.227,0,0,0,.227.227h5.68a2.09,2.09,0,0,0,2.09-2.09v-9.179A.727.727,0,0,0,311.27,247.987Z" transform="translate(-290.186 -236.706)" fill="#9e9e9e"/>
  </g>
</svg>
