<svg xmlns="http://www.w3.org/2000/svg" width="42.225" height="37.39" viewBox="0 0 42.225 37.39"><defs><style>.a{fill:#595959;}</style></defs><g transform="translate(0 0)"><g transform="translate(0 0)"><circle class="a" cx="2.901" cy="2.901" r="2.901" transform="translate(13.014 9.227)"/><path class="a" d="M39.727,46.8a8.933,8.933,0,0,0-5-2.377V29.681a5.8,5.8,0,0,0-1.652-4.029A5.63,5.63,0,0,0,29.05,24H5.681a5.8,5.8,0,0,0-4.029,1.652A5.63,5.63,0,0,0,0,29.681V53.735a5.8,5.8,0,0,0,1.652,4.029,5.63,5.63,0,0,0,4.029,1.652h22.6A8.524,8.524,0,0,0,39.727,46.8ZM2.135,29.681a3.577,3.577,0,0,1,3.546-3.546H29.05A3.577,3.577,0,0,1,32.6,29.681V42.252l-5.963-5.923a1.082,1.082,0,0,0-1.531,0l-8.985,9.025L10.032,39.23a1.082,1.082,0,0,0-1.531,0L2.135,45.676ZM5.641,57.32v-.04a3.535,3.535,0,0,1-2.5-1.048,3.677,3.677,0,0,1-1.007-2.5V48.7l7.172-7.172,6.084,6.084a1.12,1.12,0,0,0,1.531,0l8.985-9.025,5.882,5.923-.363.121a3.742,3.742,0,0,0-.524.161c-.161.04-.322.121-.483.161a1.206,1.206,0,0,0-.322.161,3.743,3.743,0,0,0-.4.2l-.6.363c-.121.081-.2.121-.322.2-.081.04-.121.081-.2.121a4.861,4.861,0,0,0-.967.846,8.523,8.523,0,0,0-2.5,6.044,8.858,8.858,0,0,0,.2,1.773c.04.161.081.282.121.443.121.4.242.806.4,1.209v.04a7.39,7.39,0,0,0,.524.967Zm32.515.04a6.374,6.374,0,0,1-8.9.081c-.161-.161-.322-.363-.483-.524-.121-.121-.242-.282-.363-.4a3.827,3.827,0,0,1-.4-.685c-.081-.161-.161-.282-.242-.443a3.4,3.4,0,0,1-.2-.685c-.04-.161-.121-.363-.161-.524a6.669,6.669,0,0,1-.121-1.289,6.467,6.467,0,0,1,1.853-4.513,6.3,6.3,0,0,1,4.513-1.853,6.467,6.467,0,0,1,4.513,1.853,6.229,6.229,0,0,1,1.853,4.513A6.444,6.444,0,0,1,38.155,57.361Z" transform="translate(0 -24)"/><path class="a" d="M295.779,267.946h-2.458v-2.458a1.088,1.088,0,0,0-2.176,0v2.458h-2.458a1.088,1.088,0,1,0,0,2.176h2.458v2.458a1.088,1.088,0,1,0,2.176,0v-2.458h2.458a1.088,1.088,0,0,0,0-2.176Z" transform="translate(-258.631 -240.185)"/></g></g></svg>