<svg xmlns="http://www.w3.org/2000/svg" width="37.235" height="37.233" viewBox="0 0 37.235 37.233">
  <g id="gift" transform="translate(0 -0.013)">
    <path id="Path_99" data-name="Path 99" d="M33.889,6.411h-8.44A4.072,4.072,0,0,0,19.228,1.2a3.251,3.251,0,0,0-.611.873,3.253,3.253,0,0,0-.611-.873,4.072,4.072,0,0,0-6.221,5.207H3.345A3.345,3.345,0,0,0,0,9.756v2.618a3.345,3.345,0,0,0,3.345,3.345H14.763a.364.364,0,0,0,.364-.364V8.242c.286.065.6.128.944.188.5.088.983.153,1.384.2v6.726a.364.364,0,0,0,.364.364h1.6a.364.364,0,0,0,.364-.364V8.63c.4-.047.88-.112,1.384-.2.345-.06.658-.123.944-.188v7.114a.364.364,0,0,0,.364.364H33.889a3.345,3.345,0,0,0,3.345-3.345V9.756A3.345,3.345,0,0,0,33.889,6.411Zm-17.42-.274c-2.067-.359-2.53-.773-2.576-.819a1.745,1.745,0,0,1,2.468-2.468c.046.046.457.506.816,2.558.052.3.1.59.132.859-.263-.035-.548-.078-.84-.129Zm4.316,0c-.3.052-.59.1-.859.132.035-.263.078-.547.129-.84.359-2.067.773-2.53.819-2.576a1.745,1.745,0,0,1,2.468,2.468c-.046.046-.506.457-2.558.816Z" fill="#fff"/>
    <path id="Path_100" data-name="Path 100" d="M240,248.351v18.472a.364.364,0,0,0,.364.364h1.6a.364.364,0,0,0,.364-.364V248.351a.364.364,0,0,0-.364-.364h-1.6A.364.364,0,0,0,240,248.351Z" transform="translate(-222.546 -229.941)" fill="#fff"/>
    <path id="Path_101" data-name="Path 101" d="M44.436,247.987H33.164A1.164,1.164,0,0,0,32,249.151v14.69a3.345,3.345,0,0,0,3.345,3.345h9.09a.364.364,0,0,0,.364-.364V248.351A.364.364,0,0,0,44.436,247.987Z" transform="translate(-29.673 -229.941)" fill="#fff"/>
    <path id="Path_102" data-name="Path 102" d="M315.636,247.987H304.364a.364.364,0,0,0-.364.364v18.472a.364.364,0,0,0,.364.364h9.09a3.345,3.345,0,0,0,3.345-3.345v-14.69A1.164,1.164,0,0,0,315.636,247.987Z" transform="translate(-281.892 -229.941)" fill="#fff"/>
  </g>
</svg>
