<svg id="user_1_" data-name="user (1)" xmlns="http://www.w3.org/2000/svg" width="33" height="31.993" viewBox="0 0 33 31.993">
  <path id="Path_43" data-name="Path 43" d="M96.468,19.3a9.029,9.029,0,0,0,6.672-2.827A9.446,9.446,0,0,0,105.9,9.651a9.448,9.448,0,0,0-2.764-6.824,9.286,9.286,0,0,0-13.343,0,9.447,9.447,0,0,0-2.764,6.823A9.446,9.446,0,0,0,89.8,16.475,9.031,9.031,0,0,0,96.468,19.3Zm0,0" transform="translate(-80.221 0)" fill="#fff"/>
  <path id="Path_44" data-name="Path 44" d="M32.92,254.537a9.938,9.938,0,0,0-.32-1.6,9.051,9.051,0,0,0-.615-1.6,6.962,6.962,0,0,0-1.033-1.5,6.886,6.886,0,0,0-1.558-1.3,8.117,8.117,0,0,0-2.238-.9,11.706,11.706,0,0,0-2.857-.33,3.95,3.95,0,0,0-1.548.419c-.464.193-1.007.417-1.613.664a12.374,12.374,0,0,1-2.087.587,12.5,12.5,0,0,1-5.105,0,12.344,12.344,0,0,1-2.086-.587c-.6-.245-1.143-.468-1.614-.664a3.945,3.945,0,0,0-1.548-.419,11.689,11.689,0,0,0-2.856.33,8.111,8.111,0,0,0-2.238.9,6.886,6.886,0,0,0-1.557,1.3,6.974,6.974,0,0,0-1.033,1.5,9.071,9.071,0,0,0-.614,1.6,9.9,9.9,0,0,0-.32,1.6A13.859,13.859,0,0,0,0,256.028,3.6,3.6,0,0,0,1.95,259.2a9.626,9.626,0,0,0,5.027,1.171H26.023a9.624,9.624,0,0,0,5.026-1.171A3.6,3.6,0,0,0,33,256.028a13.8,13.8,0,0,0-.08-1.492Zm0,0" transform="translate(0 -228.378)" fill="#fff"/>
</svg>
