<svg id="Dashboard" xmlns="http://www.w3.org/2000/svg" width="33" height="33" viewBox="0 0 33 33">
  <g id="dashboard_1_" data-name="dashboard (1)">
    <path id="Path_157" data-name="Path 157" d="M12.719,0H2.406A2.409,2.409,0,0,0,0,2.406V8.594A2.409,2.409,0,0,0,2.406,11H12.719a2.409,2.409,0,0,0,2.406-2.406V2.406A2.409,2.409,0,0,0,12.719,0Zm0,0" fill="#973c56"/>
    <path id="Path_158" data-name="Path 158" d="M12.719,213.332H2.406A2.409,2.409,0,0,0,0,215.738v14.438a2.409,2.409,0,0,0,2.406,2.406H12.719a2.409,2.409,0,0,0,2.406-2.406V215.738A2.409,2.409,0,0,0,12.719,213.332Zm0,0" transform="translate(0 -199.582)" fill="#973c56"/>
    <path id="Path_159" data-name="Path 159" d="M290.051,341.332H279.738a2.409,2.409,0,0,0-2.406,2.406v6.188a2.409,2.409,0,0,0,2.406,2.406h10.313a2.409,2.409,0,0,0,2.406-2.406v-6.188A2.409,2.409,0,0,0,290.051,341.332Zm0,0" transform="translate(-259.457 -319.332)" fill="#973c56"/>
    <path id="Path_160" data-name="Path 160" d="M290.051,0H279.738a2.409,2.409,0,0,0-2.406,2.406V16.844a2.409,2.409,0,0,0,2.406,2.406h10.313a2.409,2.409,0,0,0,2.406-2.406V2.406A2.409,2.409,0,0,0,290.051,0Zm0,0" transform="translate(-259.457)" fill="#973c56"/>
  </g>
</svg>
