<svg xmlns="http://www.w3.org/2000/svg" width="212.894" height="60.031" viewBox="0 0 212.894 60.031"><defs><style>.a{fill:#973c56;}</style></defs><g transform="translate(-0.087 0.043)"><path class="a" d="M0,0A348.389,348.389,0,0,0,41.088,2.56c21.942,0,76.425.4,101.024,0S197.438,0,197.438,0V49.98s-20.256-2.649-51.426-2.649c-16.487,0-50.6-1.114-102.2,0C30.379,47.62,0,49.98,0,49.98Z" transform="translate(1.8 4.212)"/><path class="a" d="M5.728,30.682a2.779,2.779,0,0,1,0-.429c.041-.252-.154-.5-.341-.464-.737.165-1.213-.268-1.787-.48.072-.28-.2-.757.192-.815.873-.13.887-.325.365-.876-.172-.182-.051-.591-.021-.892.049-.5-.219-.671-.77-.633-.061,0-.229-.248-.2-.278a6.005,6.005,0,0,1,.74-.651c.337-.248.082-.347-.136-.429-.867-.312-.887-.316-.328-.994.132-.159.2-.24-.049-.324a.794.794,0,0,0-.494-.048,1.455,1.455,0,0,0-.976,1.2.245.245,0,0,1-.177.151c-.059,0-.177-.093-.177-.147-.005-.662.005-1.324.013-1.987.554-.37.439-1.216,1.132-1.4a3.03,3.03,0,0,1,2.469.129,2.062,2.062,0,0,0,1.231.2c.113,0,.232-.155.35-.24-.063-.054-.125-.154-.188-.154-1.107,0-1.211-.849-1.671-1.418-.207-.257-.1-.334.064-.5a5.743,5.743,0,0,1,1.963-.875c.428-.177.428-.251,0-.572-.133-.1-.266-.316-.373-.3-.737.081-.817-.343-.925-.791-.017-.077-.282-.111-.433-.165-.025-.491-.564-.646-.864-.955-.141-.146-.229-.222-.06-.3a1.428,1.428,0,0,1,.434-.113c.161-.019.326,0,1.571-.057.757-.177.428-.18.089-.1-.383.094-.727.411-1.172.149.443.264.788-.056,1.171-.148.248-.06.525,0,.743-.052.266-.069.328-.112.248.091l-1.082.056c-1.182-.436-1.6-.849-2.074-.821-.69.042-1.08-.391-1.643-.489-.244-.042-.511-.025-.439-.315.019-.074.282-.13.439-.147.262-.026.532,0,.789-.025.068-.006.19-.13.177-.149-.067-.105-.153-.257-.257-.277-.251-.039-.554.025-.678-.22-.028-.057.177-.212.291-.315a3.756,3.756,0,0,1,.376-.319c.546-.394.373-.707-.041-1.12-.365-.365-.127-.771.359-.778.621-.008,1.242.014,1.856-.008.3-.01.7-.723.5-.935a.735.735,0,0,1-.2-.618c.02-.4.019-.759-.64-.74a.67.67,0,0,1-.4-.208c.2-.539-.621-.711-.557-1.185a.582.582,0,0,1,.035-.221c.114-.191.227-.2.373-.1.453.316.71.9,1.466.811.392.637.746.086,1.162.026.583-.081.746-.257.69-.716-.08-.636.417-.927.992-1.138a.729.729,0,0,1,.462.111c.157.079.1.2-.106.319-.242.145-.323.378,0,.453s.7-.037.777.393c.125.7.6,1.016,1.428,1q2.254-.031,4.508,0a2.137,2.137,0,0,0,1.166-.358,1.184,1.184,0,0,1,1.407.144c.16.156.282.225.376.093.355-.5.929-.336,1.429-.343,2.919-.01,5.836,0,8.753-.006.448,0,.64-.18.577-.545-.043-.243-.187-.378-.52-.376-.538,0-.738.608-1.377.485a8.88,8.88,0,0,0-1.586-.021c-.177,0-.458.041-.5-.027-.433-.645-.78-.038-1.182,0a13.947,13.947,0,0,1-2.083-.055c-.061,0-.169-.107-.162-.153s.1-.133.177-.159c.693-.241,1.612.266,2.152-.487.7-.013,1.4-.03,2.106-.034.8-.006,1.591,0,2.387,0,1.064,0,2.129.063,3.18-.024.639-.053,1.126-.579,1.91-.459a16.042,16.042,0,0,0,2.381.026,14.612,14.612,0,0,1,2.119.02c.921.138,1.47-.691,2.445-.514a16.767,16.767,0,0,0,2.908.036h5.3c.089,0,.2.03.26-.006a4.226,4.226,0,0,0,.379-.306.606.606,0,0,1,.2-.13,1.031,1.031,0,0,1,.266,0H71.61a.779.779,0,0,1,.257.016c.075.03.192.132.177.151-.064.105-.15.257-.255.278A5.3,5.3,0,0,1,71,4.6c-.887,0-1.774-.032-2.652.009-1,.045-2.1-.3-2.963.449-1.052-.02-2.1-.017-3.154-.075-.237-.014-.355-.537-.757-.139-.417.414-.649-.27-.718-.2a2.041,2.041,0,0,1-1.65.429.245.245,0,0,0-.177.154,1.564,1.564,0,0,0,.047.615c.061.171.191.093.37-.051.579-.469,1.291-.257,1.957-.2.081.008.143.239.2.37.213.489.212.489.55.225a1.284,1.284,0,0,0,.188-.162,1.869,1.869,0,0,1,2.325-.343,2.1,2.1,0,0,0,2.356-.039c.163-.119.229-.116.386.059a1.125,1.125,0,0,0,1.4.181,2.184,2.184,0,0,1,1.433-.369c3.094,0,6.189.023,9.283-.011,1.09-.012,2.265.3,3.228-.446.824.1,1.767-.294,2.45.421a.657.657,0,0,1,1.126.019c.564-.735,1.439-.429,2.174-.415.657.013.914-.677,1.645-.508a4.1,4.1,0,0,0,1.547-.063c.249-.043.3-.374.774-.145a5.13,5.13,0,0,0,3.009.112c.35-.514.938-.356,1.428-.32A1.442,1.442,0,0,0,97.9,3.7a1.282,1.282,0,0,0,1.113.456,17.507,17.507,0,0,1,1.855-.006,1.452,1.452,0,0,0,1.184-.343c.043-.044.486.249.767.33.512.148.654-.446,1.1-.449h1.6a13.718,13.718,0,0,1,2.379.031c.741.134.958-.675,1.646-.493.655.171.937-.315,1.281-.627a.805.805,0,0,1,1.293.071.256.256,0,0,0,.177.039c.328-.418.58-.315.964,0a.655.655,0,0,0,.487.072.634.634,0,0,0,.394-.285c.147-.189.238-.2.383-.039a.757.757,0,0,0,1.276-.013,1.7,1.7,0,0,1,1.577-.591c.428.054.867.025,1.293.086.089.012.191.242.19.37,0,.3.266.02.012.228l-1.774.7c-1.153,0-2.3.016-3.448-.007-.541-.011-.71.385-1.038.605a.141.141,0,0,0-.025.154c.041.063.119.154.183.155.976.01,1.945.007,2.917.007-.061.13-.081.323-.193.379-.6.3-1.381-.23-1.966.324-.489.464-1.171.105-1.744.222-.115.023-.2.171-.279.272a.32.32,0,0,0,.177.149c1.144.015,2.29,0,3.433.034.554.015.734-.6,1.375-.488a11.132,11.132,0,0,0,1.85.022c.532,0,1.06-.012,1.589,0s.738-.617,1.375-.477a6.391,6.391,0,0,0,1.32.017,6.244,6.244,0,0,0,1.58-.026,4.358,4.358,0,0,1,1.911-.448,13.82,13.82,0,0,0,1.851.017c.71,0,1.419-.051,2.118.015a2.207,2.207,0,0,0,1.343-.414c.608.812,1.132.133,1.714-.042.315-.094.726.054,1.047-.033.5-.135.6.607,1.032.322a1.5,1.5,0,0,1,.919-.314c7.328.01,14.658.023,21.986-.019.68,0,1.064.418,1.636.471.611.057,1.235.014,1.853.014s1.242.043,1.854-.011c.822-.073,1.774.332,2.426-.439l.561.415c.539-.752,1.456-.249,2.151-.485a.287.287,0,0,0,.177-.16c.009-.043-.1-.149-.154-.152-.694-.036-1.389-.046-2.082-.094-.133-.009-.254-.152-.38-.232.063-.054.124-.109.187-.161.309-.252.541-.552,1.08-.525a18.488,18.488,0,0,0,2.908-.012c.7-.075,1.07.429,1.64.471.7.053,1.411.013,2.118.013.621,0,1.237-.017,1.854.015.133.007.238.218.386.291.426.21.436.207.9-.024.184-.093.289-.38.569-.086a1.12,1.12,0,0,0,1.394.165,2.291,2.291,0,0,1,1.7-.357c3.973-.01,7.946,0,11.919-.008a9.5,9.5,0,0,0,1.29-.086c.083-.013.128-.243.19-.373-.793,0-1.59.033-2.379-.02-.251-.017-.328-.332-.266-.561a.4.4,0,0,1,.193-.291A.422.422,0,0,1,192.2,1.4c.3.1.545.354.851.429.194.045.458-.115.688-.183a3.073,3.073,0,0,1-.311-.324,2.693,2.693,0,0,1-.191-.387h1.6c.524.347,1.117.606,1.649.943a6.3,6.3,0,0,0,1.444.57,2.376,2.376,0,0,1,.691.388l.257-.017s-.256.023-.257.02-.2-.153-.2-.154a3.234,3.234,0,0,0-.5-.239,6.634,6.634,0,0,1-1.414-.556c-.545-.334-1.138-.6-1.668-.955.082-.285-.193-.4-.373-.539s-.2-.268.05-.316a2.322,2.322,0,0,1,2.5.667c.26.337.426.008.541-.114.168-.179.232-.189.388-.007s.484.3.524.487c.1.472.213.793.914.8.248,0,.7.393.7.6,0,.612.437.615.914.8a1.046,1.046,0,0,1,.748,1.286c.177,0,.355-.011.532,0,.552.042.594.077.227.468-.251.266-.107.42.121.429.878.038,1.76.016,2.64.016a9.842,9.842,0,0,0,1.58-.018c.621-.1.8.509,1.369.488,1.141-.043,2.29.016,3.432-.025.538-.02.742.314,1.075.531.218.142.244.223,0,.327-.073.031-.177.086-.227.063-1.88-.857-3.908-.291-5.858-.452a4.707,4.707,0,0,1-2.425.478c-.229-.03-.4.257-.326.5.038.132.141.343.235.355.589.057,1.211-.055,1.64.482.094.117.574-.1.677.177a2.152,2.152,0,0,1,.081.877c-.008.115-.177.314-.285.317-.79.027-1.583.012-2.375.016-.418,0-.52.129-.511.6a1.225,1.225,0,0,0,1.153,1.222c.7.015,1.408,0,2.113.005.256,0,.674-.048.742.058.428.662,1.323.18,1.845.615.24.2-.218-.01-.014.24a3.425,3.425,0,0,0-.448.165,3.012,3.012,0,0,0-.378.267c-.569-.726-1.434-.364-2.176-.417-.4-.029-.953-.2-1.194.2-.144.24-.063.589-.4.765-.234.12-.227.325.005.305.814-.071,1.4.439,2.129.552.108.017.187.176.279.269a1.454,1.454,0,0,1-.443.171c-.621.02-1.242-.035-1.848.027-.285.03-.3.277-.033.444.289.179.2.417-.058.429a1.4,1.4,0,0,0-.895.368c-.271.224-.494.457-.368.776.089.229.443.171.635.271a2.875,2.875,0,0,0,1.649.457c.244-.023.395.225.365.488a.4.4,0,0,1-.144.309.435.435,0,0,1-.336.1c-.355,0-.71.018-1.058,0-.3-.019-.584.1-.572.313.034.566-.527.74-.835,1.077-.371.406-.188.984.443,1.254.081.034.243-.075.368-.117a3.356,3.356,0,0,1,.683-.217c.106-.012.238.151.355.233a1.108,1.108,0,0,0-.567.943.246.246,0,0,1-.177.154,4.429,4.429,0,0,0-1.55.069,2.352,2.352,0,0,1-1.394.423,3.028,3.028,0,0,0-.79.01c-.074.011-.185.272-.157.294.318.229.487.634,1.025.613a17.568,17.568,0,0,0,1.848-.023,1.934,1.934,0,0,1,1.793.7.687.687,0,0,0,1.085-.027c.2-.2.555-.3.68-.183.632.573,1.419.415,2.18.454.078,0,.163.183.207.292.012.029-.115.146-.177.146-1.5.009-3-.045-4.5.038-.469.026-.532-.726-1.008-.3a1.692,1.692,0,0,1-.914.318c-.073.015-.127.1-.188.155.118.086.224.22.355.242.336.054.688.03,1.019.1.089.018.128.243.191.373.882,0,1.764.012,2.644,0,.539-.01.734.605,1.372.482a8.441,8.441,0,0,1,1.582-.019c.532,0,1.055,0,1.582.015.064,0,.19.128.177.149-.06.106-.153.276-.244.28-.7.033-1.4.027-2.1.049-.064,0-.124.1-.187.154.1.086.2.241.314.257.257.031.546,0,.677.232a.546.546,0,0,1,.012.439c-.034.086-.321.177-.326.171-.431-.574-1.1-.315-1.685-.373-.658-.065-1.411.231-1.937-.4a.881.881,0,0,0-.679.086,1.337,1.337,0,0,1-1.811.009c-.184-.141-.226-.161-.39.021a.671.671,0,0,1-1.075.092c-.349-.357-.788-.251-1.2-.249-.285,0-.484.153-.435.429s-.16.607.169.851c.066.05.125.106.185.161.638.585,1,.807,1.092.686.58-.715.768.311,1.249.171a4.948,4.948,0,0,1,1.313-.023c.532,0,1.055.008,1.582.013.393.561,1.038.438,1.636.446.524.006,1.05,0,1.571.048.089.008.184.226.223.358a.378.378,0,0,1-.053.332.4.4,0,0,1-.3.168.817.817,0,0,1-.7-.2c-.169-.134-.569-.295-.647-.233-.976.763-2.154.362-3.239.421a2.019,2.019,0,0,0-1.137.417.667.667,0,0,1-.882-.227c-.147-.192-.318-.224-.365-.024a4.241,4.241,0,0,0-.1,1.1c.03.693.765,1.078,1.637,1.065.406-.006.507-.745.992-.264.355.353.8.2,1.212.234s.859.046,1.284.086c.061.005.165.108.155.152a.249.249,0,0,1-.177.156c-.7.031-1.4.019-2.086.075-.472.038-1.031-.229-1.4.245.343.358.822.215,1.223.188.8-.056,1.267.693,2.171.508a5.453,5.453,0,0,0,1.887-.494,2.67,2.67,0,0,0,.192.389,2.835,2.835,0,0,0,.307.325c-.145.068-.287.19-.434.193-.976.017-1.951.057-2.917-.007-.718-.048-.876.24-.944.753-.027.214-.209.2-.367.036a.8.8,0,0,0-.639-.326c-1.769.021-3.538.009-5.307.011a2.436,2.436,0,0,0-1,.657,10.954,10.954,0,0,0-.024,1.358c.005.1.249.274.349.257,1.236-.2,2.27.679,3.5.477a.271.271,0,0,1,.213.086.757.757,0,0,1,.157.4c-.009.13-.116.357-.2.365a5.877,5.877,0,0,1-1.564.043c-1.2-.223-1.722.547-2.395,1.108-.022.019.013.116.051.154a.356.356,0,0,0,.2.124c1.057.019,2.113.025,3.168.045.064,0,.125.1.188.154-.11.086-.215.245-.329.249a8.534,8.534,0,0,1-1.589,0c-.6-.086-.781.56-1.377.488a6.009,6.009,0,0,0-1.282.078c-.053,0-.145.113-.13.152a.263.263,0,0,0,.177.158c.61.027,1.223.045,1.834.051.26,0,.52.027.532.279.005.1-.266.2-.346.326-.259.429-.16.616.435.763.232.057.582.05.381.327a10.166,10.166,0,0,1-.906.828.444.444,0,0,0,0,.439.535.535,0,0,0,.392.232c.663-.041,1.414.241,1.951-.383a.851.851,0,0,1,.682.064c1.006.752,1,.824,1.437.771.734-.086,1.135.627,1.91.492a10.971,10.971,0,0,1,1.853-.021c.71,0,1.419,0,2.122.011.063,0,.143.093.177.158a.147.147,0,0,1-.036.153,3.105,3.105,0,0,0-.887.343c-.4.364-.541.037-.77-.129a.39.39,0,0,0-.226-.073,1.069,1.069,0,0,0-.483.086,4.975,4.975,0,0,1-3.323.833,23.773,23.773,0,0,0-2.387,0c-.077,0-.166.182-.212.29-.012.03.1.123.177.149a.877.877,0,0,0,.266.005,11.423,11.423,0,0,1,2.114.03c.632.123,1.163.591,1.9.465.047-.008.122.1.185.153-.1.086-.2.249-.316.257-.7.041-1.4.037-2.093.086-.078,0-.184.239-.19.369a.763.763,0,0,0,.168.391.334.334,0,0,0,.221.08c.694.033,1.389.057,2.083.086.511.645,1.318.21,1.93.405.443.141.779.585,1.163-.027.561.726,1.424.4,2.17.448.7.045,1.406.021,2.108.042.066,0,.187.14.177.148-.089.1-.183.245-.3.263-.257.039-.532,0-.793.016-.291.022-.472.153-.443.435.02.221-.017.443-.355.378-.089-.016-.168-.246-.166-.378,0-.281-.162-.412-.453-.435a2.812,2.812,0,0,0-.792.009c-.23.05-.467.19-.125.418.218.147.349.429.028.459a10.445,10.445,0,0,1-2.381,0c-.781-.11-1.2.474-1.889.548-.408.043-.757.5-1.132.771a1.2,1.2,0,0,0-1.147-.38,1.465,1.465,0,0,1-1.4-.418.58.58,0,0,0-.486-.026c-.68.744-1.622.429-2.448.429-1.171.005-1.083.1-1.049,1.065.006.164.162.459.469.139a.553.553,0,0,1,.188-.157c.152-.052.395-.153.464-.1a3.487,3.487,0,0,0,1.876.531c.059.005.16.111.147.153a.278.278,0,0,1-.177.159c-.314.086-.655.058-.914.321-.379.382-.775.237-1.078-.1a.621.621,0,0,0-.71-.137c-.328.171-.549.634-.953.086-1.044-.036-2.088-.093-3.132-.091-.207,0-.417.226-.614.359a4.032,4.032,0,0,0-1.162,1.411c-.16.266-.132.645-.355.776a2.036,2.036,0,0,0-.983,2.183c.05.737-.153.835-1.135.745-.31-.03-.621-.483-.439-.663.287-.285.6-.55.917-.815.144-.12.072-.177-.089-.333-.549-.539-.655-.561-1.48-.157a1.875,1.875,0,0,1-.465.134.458.458,0,0,1-.249-.027c-.224-.1-.252-.211-.1-.319.326-.225.514-.6,1.057-.58a.394.394,0,0,0,.322-.134.365.365,0,0,0,.079-.33,4.109,4.109,0,0,0-.041-.675c-.031-.1-.262-.2-.409-.209a8.1,8.1,0,0,1-1.318-.034,1.547,1.547,0,0,1-.768-.578c-.177-.232.2-.32.334-.473a1.675,1.675,0,0,1,.373-.322c.355-.229.06-.373-.106-.481-.213-.139-.255-.288-.017-.318a2.117,2.117,0,0,0,1.282-.657c.127-.126.125-.285-.1-.314-.586-.073-1.242.073-1.622-.495-.5.055-1.064-.182-1.442.321a.545.545,0,0,1-.691.093,1.644,1.644,0,0,0-1.408-.417c-1.769.01-3.538.014-5.307,0a1.514,1.514,0,0,0-1.166.366.788.788,0,0,1-.674,0c-.388-.465-.923-.36-1.434-.361q-3.582-.005-7.165,0a1.816,1.816,0,0,1-1.412-.41c-.226-.214-.66-.039-.876.242a.6.6,0,0,1-.7.148c-.443-.52-1.052-.455-1.663-.445-.532.01-1.064,0-1.591,0-.7,0-1.408-.013-2.114-.02-.478-.661-1.248-.4-1.913-.429-.71-.031-1.419-.007-2.122-.007-1.6-.921-3.392-.366-5.088-.429-2.561-.1-5.129-.034-7.694-.021-.584,0-1.254-.192-1.67.384-.671.057-1.387.257-1.957-.2-.315-.257-.437-.049-.566.1-.161.183-.252.206-.384.021-.266-.369-.464-.223-.763.015-.341.269-.439-.4-.727-.242s-.475.392-.887.382c-1.242-.025-2.478-.043-3.715,0-.743.03-1.561-.252-2.217.382-.162.156-.668.06-1.014.061-2.654,0-5.308-.008-7.96.011-.495,0-1.024-.164-1.472.257s-.532-.461-1.016-.282c-.222.086-.665-.072-.76.039-.45.526-1.064.433-1.666.433-1.508,0-3.008.007-4.511,0a1.927,1.927,0,0,0-1.18.333,1.218,1.218,0,0,1-1.419-.086.858.858,0,0,0-.355-.146c-.532.633-1.3.336-1.958.351-1.5.036-3.026-.107-4.5.058A11.939,11.939,0,0,1,99,53.109c-.966-.075-1.944-.017-2.916-.017a26.1,26.1,0,0,0-2.652.019c-.993.1-2.129-.444-2.967.438h-1.33q-9.952,0-19.9.006c-.064,0-.192.11-.177.141.039.11.122.3.191.3,1.237.018,2.475.012,3.715.013q3.714,0,7.425.018c.063,0,.19.13.177.15-.066.105-.145.244-.256.278a1.933,1.933,0,0,1-.527.012c-.887,0-1.774-.067-2.651.016-1.257.118-2.624-.433-3.773.429-.1.075-.343.01-.522.01-1.856,0-3.725-.076-5.568.036-.787.048-1.127-.652-1.911-.514a12.894,12.894,0,0,1-2.118.023,6.427,6.427,0,0,1-2.1-.035c-1.85-.723-3.762-.279-5.635-.429-.11-.01-.209-.167-.3-.266-.008-.009.138-.159.177-.147.851.257,1.375-.525,2.16-.5s1.591.006,4.052.121c.879.113.089.116-.694.112a1.366,1.366,0,0,1-.97-.227,1.366,1.366,0,0,0,.97.227q1.047-.039,2.093.023c.318.034.136-.305.266-.021l-1.665-.114c-1.6-.4-1.809-.561-2.083-.564-1.325-.019-2.651.025-3.974-.021-.741-.026-1.556.249-2.217-.375-.168-.156-.665-.068-1.01-.068q-4.239,0-8.479,0c-.647,0-.636,0-.378.771a.5.5,0,0,1-.066.429c-.291.36-.367-.086-.553-.132a3.743,3.743,0,0,0-2.677.2c-.433.171-1.038.232-1.215.045-.482-.509-1.211-.2-1.635-.484-.443-.3-.661-.333-.964.046-.362-.135-.577-.447-1.083-.429-1.676.051-3.358.058-5.033,0-.822-.027-1.785.359-2.431-.438H25.145c-.931-.9-2.149-.314-3.228-.44a1.565,1.565,0,0,1-.9-.343.625.625,0,0,0-.464-.151.617.617,0,0,0-.43.227c-.183.18-.331.257-.569.029-.494-.48-1.174-.244-1.735-.192-.331.033-.663.436-.894.731-.125.16.011.408.213.595a1.523,1.523,0,0,1,.294.574.494.494,0,0,0,.549.356c.621-.022,1.235,0,1.851,0,.478.771,1.721.163,2.217.908.647-.119,1.105.245,1.649.429a4.39,4.39,0,0,0,1.574.024c.541-.037.729.347,1.055.571.158.109.03.171-.073.332-.332.524-1.105.369-1.492.794-.257.285-.657.136-.986.132a3.7,3.7,0,0,1-2.428-.38c-.068-.052-.34.574-.724.151-.237-.257-.412-.135-.561.045s-.242.2-.384.069A9.836,9.836,0,0,0,18.926,56c-.289-.224-.45-.257-.887.046-.392.268-.71.411-1.1.06-.185-.163-.378-.32-.561-.485a.7.7,0,0,0-1.087.037c-.158.167-.287.225-.375.071-.389-.686-1.322-.058-1.85-.619-.4-.419-1.153-.107-1.751-.171-.248-.026-.489.036-.721-.164-.412-.353-.716-.8-1.488-.789a2.522,2.522,0,0,1-1.557-.538c-.443-.4-1.143-.267-1.538-.755-.192-.237-.867.136-1.2-.188a6.55,6.55,0,0,0-1.667-.994,4.8,4.8,0,0,1-1.494-1.277,10.159,10.159,0,0,1-.787-1.543C.8,48.6.567,48.579.417,48.525c-.06-.288.143-.416.418-.453a1.229,1.229,0,0,0,.952-.446,1.143,1.143,0,0,0,.227-1c-.026-.3,0-.608-.006-.911-.014-.407-.439-.525-.953-.251-.21.112-.309.385-.643.319-.083-.016-.222.027-.255-.011-.078-.086-.19-.268-.15-.306A9.594,9.594,0,0,1,1.126,44.5c.384-.267.31-.442-.033-.656a4.394,4.394,0,0,1-.378-.319c-.386-.3-.334-.56-.067-.954a6.046,6.046,0,0,1,1.134-1.423.769.769,0,0,0,.043-1.2,1.157,1.157,0,0,1-.348-1.029,1.743,1.743,0,0,1,.266,0c.266.043.329.673.73.257.232-.243.027-.543-.255-.771A5.543,5.543,0,0,1,.989,37.246c-.149-.238-.271-.5-.443-.754a1.027,1.027,0,0,1-.1-.878,1.073,1.073,0,0,1,.623-.647,21.056,21.056,0,0,0,2.1-.6c.077-.035.306.1.412.2.207.193.379.236.569,0a.641.641,0,0,1,.687-.207c.384.111.58.557,1.11.453a.951.951,0,0,1,.929.279.7.7,0,0,0,.443.165c.621.018,1.242-.021,1.855.015a4.384,4.384,0,0,1,1.787.139c.6.286.494.913.922,1.281.213.183.094.408-.163.4-.926-.031-1.9.184-2.715-.439-.149-.113-.519-.043-.776,0-.125.02-.226.162-.339.248a7.326,7.326,0,0,0,1.343,1.08,4.205,4.205,0,0,1,.887.362c.294.226.361-.161.552-.24.276-.114.478-.638.718-.422.453.41.953.273,1.447.343a.423.423,0,0,1,.287.19.4.4,0,0,1,.042.334c-.047.247-.2.331-.506.4-.635.135-.631.177-.266.453.248.19.412.491.847.448.818-.081,1.345.508,2.052.693.024.006,0,.143,0,.219-.435,1.159.856,1.036,1.4,1.5s1.571.994,1.138,1.78c-.318.58-1.237.411-1.927.177a3.75,3.75,0,0,0-.742-.231,5.416,5.416,0,0,1,.738.227c6.483,1.6,13.272.719,19.814,1.818,1.188.2,3.086-.365,2.906,1.684-.019.219.226-.033.355-.03,11.22.208,22.423.826,33.636,1.1,8.236.2,16.448,1.348,24.719.473,2.981-.315,5.983.387,8.976,0a6.571,6.571,0,0,1,1.086-.257,74,74,0,0,0,16.893-.3,89.51,89.51,0,0,1,14.088-.529c4.34.206,8.738-.659,13.144-.878,5.221-.257,10.333.429,15.5.514,3.455.054,6.9.213,10.357.24a4.021,4.021,0,0,0,1.049-.057,3.477,3.477,0,0,1-1.035.057c-6.4-.237-12.829-.122-19.2-.873-.939-.111-1.936.023-2.334-.985a.772.772,0,0,1,.2-.662,6.371,6.371,0,0,1,4.123-.355c3.046.4,6.167.171,9.167.872a4.417,4.417,0,0,0,.807.147,3.6,3.6,0,0,1-.775-.151c-2.21-.671-4.57-.272-6.8-.7-.931-.18-2.536-.039-2.248-1.327.227-1.016,1.62-.876,2.7-.857,7.385.121,14.723,1.158,22.13.812.251-.012.507.119.773.132-.333-.005-.644-.183-.956-.171-9.332.369-18.6-.876-27.932-.826-4.913.027-9.918-.871-14.793-.4-6.42.618-12.868-.392-19.295.834a63.564,63.564,0,0,1-11,.834c-3.093.037-6.109.734-9.224.766-3.415.035-6.9-.2-10.22.1-5.886.523-11.732,0-17.577.321-2.828.158-5.594-.349-8.4-.4-8.1-.148-16.213-.993-24.3-.424-3.654.257-7.367-.357-10.96.567a1.75,1.75,0,0,1-.788.056c-3.574-.822-7.273.4-10.841-.476-.248-.061-.665.019-.752-.138-.859-1.561-2.861-2.345-3.606-3.971.824.1,1.756-.291,2.453.442.106.112.508.015.773.015.887,0,1.768-.015,2.651,0,.826.02,1.713-.194,2.409.407.6-.788,1.064.284,1.719.086a7.766,7.766,0,0,1,2.1-.041h1.856c.71,0,1.414.012,2.121-.012.119,0,.231-.158.348-.243-.144-.069-.287-.192-.434-.194-1.06-.017-2.122.019-3.18-.02-.688-.024-1.5.266-2.04-.131-.652-.482-1.4-.107-1.96-.357a2.65,2.65,0,0,0-1.4-.429,2.888,2.888,0,0,1-1.3-.033c-.3-.137-.368-.608-.6-.9-.138-.176-.376-.407-.58-.413-.873-.03-1.749.015-2.624.033-.314.405-.569.356-.953.013-.409-.364-.71-.875-1.375-.982.08-.326-.259-.841.422-.9.409-.034.585-.353.867-.4.235-.039.532.343.814.361.881.052,1.768.008,2.651.022.674.011,1.382-.159,1.935.429a1.171,1.171,0,0,0,.989-.007c.475-.584.773-.086,1.2,0a9.5,9.5,0,0,0,1.848.031,12.243,12.243,0,0,1,1.853.018,7.808,7.808,0,0,0,2.441.461c.776-.1,1.589,0,2.381-.031.42-.016.592.257.875.4a.708.708,0,0,0,.9-.208c.289-.331.436,0,.552.12.169.18.234.184.395-.008a.615.615,0,0,1,.646-.294c.545.154.958.58,1.641.47a10.068,10.068,0,0,1,1.589-.017,17.965,17.965,0,0,0,1.854-.013c.733-.077,1.33-.6,2.129-.531.047,0,.16-.11.149-.152a.263.263,0,0,0-.177-.157c-.592-.064-1.33.056-1.74-.209a2.485,2.485,0,0,0-1.459-.307c-.621-.016-1.242.03-1.856-.013-.579-.041-1.228.237-1.723-.277-.415-.429-1.256.123-1.622-.486a.54.54,0,0,0-.177-.119c-.677.743-1.624.376-2.451.415-.569.027-1.254.24-1.693-.343a.8.8,0,0,0-.355.138c-.527.453-1.174.126-1.753.22-.865-.741-1.96-.387-2.963-.452-.439-.03-1.05.154-1.3-.035-.763-.59-1.627-.37-2.463-.429-.583-.041-.936-.654-1.64-.466-.472.126-.575-.53-1.105-.459-.43.058-.887-.014-1.322.02a1.48,1.48,0,0,1-.908-.343c-.135-.072-.571.285-.71.213-.293-.147-.5-.366-.9-.347-.71.031-1.419.023-2.121,0a4.062,4.062,0,0,1-1.764-.154c-.508-.32-1.118-.1-1.431-.333a2.6,2.6,0,0,0-1.67-.434,1.906,1.906,0,0,0-1.637.468c-.5-.032-1.036.126-1.437-.343-.239-.28-.5-.645-1.04-.569-.078.011-.188.036-.219.086-.443.693-1.583.056-2.03.792a.534.534,0,0,1-.677-.108c-.094-.171-.138-.489-.024-.6.395-.368.7-.7.128-1.114-.19-.138-.26-.247-.081-.323.418-.176.912-.514,1.262-.435.4.1.663.526.718-.193.022-.286-.153-.7.243-.8.378-.1.909-.229,1.224.1a1.413,1.413,0,0,0,1.187.311" transform="translate(0.087 0)"/></g></svg>