<svg xmlns="http://www.w3.org/2000/svg" width="33.147" height="41.806" viewBox="0 0 33.147 41.806">
  <g id="order_2_" data-name="order (2)" transform="translate(-53.023)">
    <g id="Group_446" data-name="Group 446" transform="translate(53.023 8.247)">
      <g id="Group_445" data-name="Group 445">
        <path id="Path_161" data-name="Path 161" d="M86.15,127.232l-1.867-23.525a2.94,2.94,0,0,0-2.918-2.7H77.678v5.464a1.224,1.224,0,0,1-2.449,0v-5.464H63.965v5.464a1.224,1.224,0,0,1-2.449,0v-5.464H57.829a2.939,2.939,0,0,0-2.918,2.7l-1.868,23.531a6.808,6.808,0,0,0,6.787,7.328H79.364a6.807,6.807,0,0,0,6.786-7.331Zm-11.037-11.98-6.332,6.332a1.224,1.224,0,0,1-1.732,0l-2.968-2.968a1.224,1.224,0,1,1,1.731-1.731l2.1,2.1,5.467-5.467a1.224,1.224,0,1,1,1.731,1.732Z" transform="translate(-53.023 -101.005)" fill="#fff"/>
      </g>
    </g>
    <g id="Group_448" data-name="Group 448" transform="translate(61.516)">
      <g id="Group_447" data-name="Group 447">
        <path id="Path_162" data-name="Path 162" d="M165.12,0a8.09,8.09,0,0,0-8.081,8.082v.166h2.449V8.082a5.632,5.632,0,1,1,11.264,0v.166H173.2V8.082A8.091,8.091,0,0,0,165.12,0Z" transform="translate(-157.039)" fill="#fff"/>
      </g>
    </g>
  </g>
</svg>
