<svg xmlns="http://www.w3.org/2000/svg" width="61.173" height="60.383" viewBox="0 0 61.173 60.383"><defs><style>.a,.b{fill:#fe6a4d;}.b{opacity:0.5;}</style></defs><g transform="translate(0 0)"><path class="a" d="M47.376,27.851V1.865A1.865,1.865,0,0,0,45.511,0h-13V18.428a1.867,1.867,0,0,1-2.888,1.56L23.688,16.1l-5.932,3.884a1.867,1.867,0,0,1-2.888-1.56V0h-13A1.865,1.865,0,0,0,0,1.865V41.25a1.865,1.865,0,0,0,1.865,1.865H28.856a18.165,18.165,0,0,1,18.52-15.264Zm0,0" transform="translate(0 0)"/><path class="a" d="M161.782,12.314l4.066,2.663V0H155.671V14.977l4.067-2.663A1.861,1.861,0,0,1,161.782,12.314Zm0,0" transform="translate(-137.072 -0.001)"/><path class="b" d="M285.259,264.23a14.406,14.406,0,1,0,14.406,14.406A14.422,14.422,0,0,0,285.259,264.23Zm8.482,11.848-9.478,9.479a1.867,1.867,0,0,1-2.637,0l-5.208-5.209a1.865,1.865,0,1,1,2.637-2.637l3.888,3.89,8.16-8.16a1.865,1.865,0,0,1,2.637,2.637Zm0,0" transform="translate(-238.491 -232.66)"/></g></svg>