<svg xmlns="http://www.w3.org/2000/svg" width="73.082" height="73.113" viewBox="0 0 73.082 73.113"><defs><style>.a,.b{fill:#fe6a4d;}.a{opacity:0.5;}</style></defs><g transform="translate(-0.205 0.001)"><path class="a" d="M102.236,486.044a3.7,3.7,0,0,1-3.525,2.909,1.2,1.2,0,0,0-.46,2.285,3.692,3.692,0,0,1,2.13,4.044l-.312,1.558A3.889,3.889,0,0,1,95.4,499.69c-.557-.134-1.128-.237-1.692-.349-.831-.163-1.662-.334-2.493-.5-1.1-.223-2.2-.438-3.295-.66-1.306-.26-2.619-.527-3.925-.787-1.462-.3-2.923-.586-4.385-.883-1.558-.312-3.124-.623-4.682-.942-1.6-.319-3.205-.646-4.8-.965l-4.756-.957-4.541-.913c-1.388-.275-2.768-.557-4.155-.831-1.2-.238-2.4-.482-3.6-.72l-2.879-.579-1.981-.4c-.3-.059-.608-.126-.913-.186-.015,0-.03-.007-.045-.007a3.76,3.76,0,0,1-.267,2.367,3.8,3.8,0,0,1-4.17,2.137,1.119,1.119,0,0,0-1.254.549l-.668,1.447a1.122,1.122,0,0,0,.393,1.313c.074.059,53.558,24.716,53.647,24.739a1.119,1.119,0,0,0,1.254-.549l.668-1.447a1.122,1.122,0,0,0-.393-1.313,3.8,3.8,0,0,1,3.094-6.693,1.119,1.119,0,0,0,1.254-.549l.668-1.447a1.122,1.122,0,0,0-.393-1.313,3.8,3.8,0,0,1,3.094-6.693,1.12,1.12,0,0,0,1.254-.549l.668-1.447a1.122,1.122,0,0,0-.393-1.313,3.8,3.8,0,0,1,3.094-6.693,1.119,1.119,0,0,0,1.254-.549l.735-1.6a.914.914,0,0,0-.445-1.217l-7.991-3.688Z" transform="translate(-37.598 -449.479)"/><path class="b" d="M.907,36.053C1,36.1,58.732,47.681,58.828,47.681a1.122,1.122,0,0,0,1.091-.824l.312-1.558a1.126,1.126,0,0,0-.69-1.187,3.8,3.8,0,0,1,1.454-7.235,1.122,1.122,0,0,0,1.091-.824l.23-1.143.082-.423a1.126,1.126,0,0,0-.69-1.187,3.8,3.8,0,0,1,1.454-7.235,1.122,1.122,0,0,0,1.091-.824l.312-1.558a1.126,1.126,0,0,0-.69-1.187,3.8,3.8,0,0,1,1.454-7.235,1.122,1.122,0,0,0,1.091-.824l.349-1.729a.914.914,0,0,0-.72-1.076S8.03,0,7.971,0a.92.92,0,0,0-.9.735L6.724,2.462a1.126,1.126,0,0,0,.69,1.187A3.8,3.8,0,0,1,5.96,10.884a1.122,1.122,0,0,0-1.091.824l-.312,1.558a1.126,1.126,0,0,0,.69,1.187,3.8,3.8,0,0,1-1.454,7.235,1.122,1.122,0,0,0-1.091.824L2.391,24.07a1.126,1.126,0,0,0,.69,1.187,3.8,3.8,0,0,1-1.454,7.235,1.122,1.122,0,0,0-1.091.824L.224,34.874A1.1,1.1,0,0,0,.907,36.053ZM50.362,17.036A1.854,1.854,0,0,1,54,17.763L51.549,29.947l-1.506,7.509a1.855,1.855,0,0,1-1.818,1.492,2.014,2.014,0,0,1-.364-.037,1.857,1.857,0,0,1-1.454-2.182l1.684-8.377ZM16.912,10.32a1.854,1.854,0,1,1,3.636.727L19.7,15.255l-.957,4.771-.772,3.844L16.6,30.741a1.855,1.855,0,0,1-1.818,1.492,2.014,2.014,0,0,1-.364-.037.882.882,0,0,1-.148-.037,1.849,1.849,0,0,1-1.3-2.144l.274-1.388.72-3.591Z" transform="translate(0)"/></g></svg>