<svg xmlns="http://www.w3.org/2000/svg" width="73.39" height="70.333" viewBox="0 0 73.39 70.333"><defs><style>.a,.b{fill:#fe6a4d;}.b{opacity:0.5;}</style></defs><g transform="translate(0 -1)"><path class="a" d="M9.672,46.383a25.565,25.565,0,0,0,6.8,4.339l12.978-8.15a6.919,6.919,0,0,1,8.529.966L42.344,47.9a25.944,25.944,0,1,0-32.671-1.52Zm18.482-17.1H25.831A6.49,6.49,0,0,1,24.7,16.406V14a2.293,2.293,0,0,1,4.587,0V16.29h3.058a2.293,2.293,0,0,1,0,4.587H25.831a1.911,1.911,0,0,0,0,3.822h2.324a6.49,6.49,0,0,1,1.131,12.88v2.407a2.293,2.293,0,1,1-4.587,0V37.7H21.641a2.293,2.293,0,1,1,0-4.587h6.513a1.911,1.911,0,0,0,0-3.822Z" transform="translate(2.057 0)"/><path class="b" d="M70.333,12H58.1a3.057,3.057,0,0,0-2.162,5.22l3.954,3.954L47.4,33.669,37.328,23.6a3.058,3.058,0,0,0-3.77-.437L1.449,43.038A3.058,3.058,0,0,0,3.06,48.7a3.024,3.024,0,0,0,1.605-.459l30.048-18.6L45.233,40.155a3.055,3.055,0,0,0,4.324,0L64.217,25.5l3.954,3.954a3.057,3.057,0,0,0,5.22-2.162V15.058A3.057,3.057,0,0,0,70.333,12Z" transform="translate(0 22.638)"/></g></svg>