<svg xmlns="http://www.w3.org/2000/svg" width="38" height="38" viewBox="0 0 38 38">
  <path id="settings" d="M37.106,14.673l-2.921-.635a15.9,15.9,0,0,0-.94-2.267l1.617-2.515A1.136,1.136,0,0,0,34.71,7.84L30.16,3.29a1.136,1.136,0,0,0-1.417-.152L26.228,4.754a15.9,15.9,0,0,0-2.267-.94L23.327.894A1.135,1.135,0,0,0,22.217,0H15.783a1.135,1.135,0,0,0-1.11.894l-.635,2.921a15.894,15.894,0,0,0-2.267.94L9.257,3.138A1.136,1.136,0,0,0,7.84,3.29L3.29,7.84a1.136,1.136,0,0,0-.152,1.417l1.617,2.515a15.9,15.9,0,0,0-.94,2.267l-2.921.635A1.136,1.136,0,0,0,0,15.783v6.434a1.136,1.136,0,0,0,.894,1.11l2.921.635a15.894,15.894,0,0,0,.94,2.267L3.138,28.743A1.136,1.136,0,0,0,3.29,30.16l4.55,4.55a1.136,1.136,0,0,0,1.417.152l2.515-1.617a15.9,15.9,0,0,0,2.267.94l.635,2.921a1.135,1.135,0,0,0,1.11.894h6.434a1.135,1.135,0,0,0,1.11-.894l.635-2.921a15.894,15.894,0,0,0,2.267-.94l2.515,1.617a1.135,1.135,0,0,0,1.417-.152l4.55-4.55a1.136,1.136,0,0,0,.152-1.417l-1.617-2.515a15.9,15.9,0,0,0,.94-2.267l2.921-.635A1.136,1.136,0,0,0,38,22.217V15.783A1.136,1.136,0,0,0,37.106,14.673ZM25.813,19A6.813,6.813,0,1,1,19,12.187,6.821,6.821,0,0,1,25.813,19Zm0,0" transform="translate(0 0)" fill="#973c56"/>
</svg>
