<svg xmlns="http://www.w3.org/2000/svg" width="44.333" height="44.333" viewBox="0 0 44.333 44.333">
  <g id="squares" transform="translate(0.5 0.5)">
    <g id="Group_2645" data-name="Group 2645" transform="translate(1.007 0.991)">
      <path id="Path_489" data-name="Path 489" d="M13.342,13.178h14.5V10.289H10.453v17.39h2.889Zm0,0" transform="translate(-9.453 -9.289)" fill="#ffa594"/>
      <path id="Path_490" data-name="Path 490" d="M262.17,13.178h14.5V10.289h-17.39v17.39h2.889Zm0,0" transform="translate(-234.32 -9.289)" fill="#ffe6c8"/>
      <path id="Path_491" data-name="Path 491" d="M13.342,262.01h14.5v-2.889H10.453v17.39h2.889Zm0,0" transform="translate(-9.453 -234.16)" fill="#ffe6c8"/>
      <path id="Path_492" data-name="Path 492" d="M262.17,262.01h14.5v-2.889h-17.39v17.39h2.889Zm0,0" transform="translate(-234.32 -234.16)" fill="#ffa594"/>
    </g>
    <path id="Path_493" data-name="Path 493" d="M18.806,19.605H1.416a.963.963,0,0,1-.963-.963V1.252A.963.963,0,0,1,1.416.289h17.39a.963.963,0,0,1,.963.963v17.39A.963.963,0,0,1,18.806,19.605ZM2.379,17.679H17.843V2.215H2.379Zm0,0" transform="translate(-0.409 -0.261)" stroke="#000" stroke-width="1"/>
    <path id="Path_494" data-name="Path 494" d="M267.634,268.437h-17.39a.963.963,0,0,1-.963-.963v-17.39a.963.963,0,0,1,.963-.963h17.39a.963.963,0,0,1,.963.963v17.39A.963.963,0,0,1,267.634,268.437Zm-16.427-1.926h15.464V251.047H251.207Zm0,0" transform="translate(-225.276 -225.132)" stroke="#000" stroke-width="1"/>
    <path id="Path_495" data-name="Path 495" d="M268.355.963A.963.963,0,0,0,267.392,0H249.963A.963.963,0,0,0,249,.963V18.392a.963.963,0,0,0,.963.963h17.429a.963.963,0,0,0,.963-.963Zm-1.926,16.467h-15.5V1.926h15.5Zm0,0" transform="translate(-225.022)" stroke="#000" stroke-width="1"/>
    <path id="Path_496" data-name="Path 496" d="M19.355,249.963a.963.963,0,0,0-.963-.963H.963a.963.963,0,0,0-.963.963v17.429a.963.963,0,0,0,.963.963H18.392a.963.963,0,0,0,.963-.963Zm-1.926,16.467H1.926v-15.5h15.5Zm0,0" transform="translate(0 -225.022)" stroke="#000" stroke-width="1"/>
  </g>
</svg>
