<svg xmlns="http://www.w3.org/2000/svg" width="41.908" height="41.909" viewBox="0 0 41.908 41.909"><defs><style>.a{fill:#fff;}.b{fill:#ffe6c8;}.c{fill:#ffa594;}.d{fill:#d5dbe1;}</style></defs><path class="a" d="M46.039,19.227H6.75V12.242A3.491,3.491,0,0,1,10.242,8.75h32.3a3.491,3.491,0,0,1,3.492,3.492Z" transform="translate(-5.441 -3.948)"/><path class="b" d="M19.354,30.1H11.5A1.747,1.747,0,0,1,9.75,28.354V20.5A1.747,1.747,0,0,1,11.5,18.75h7.858A1.747,1.747,0,0,1,21.1,20.5v7.858A1.747,1.747,0,0,1,19.354,30.1Z" transform="translate(-3.202 3.514)"/><path class="c" d="M14.171,8.75H10.242A3.491,3.491,0,0,0,6.75,12.242v6.985h3.929V12.242A3.491,3.491,0,0,1,14.171,8.75Z" transform="translate(-5.441 -3.948)"/><path class="c" d="M13.679,28.354V20.5a1.747,1.747,0,0,1,1.746-1.746H11.5A1.747,1.747,0,0,0,9.75,20.5v7.858A1.747,1.747,0,0,0,11.5,30.1h3.929A1.747,1.747,0,0,1,13.679,28.354Z" transform="translate(-3.202 3.514)"/><path class="d" d="M10.679,36.577V14.75H6.75V36.577a3.491,3.491,0,0,0,3.492,3.492h3.929A3.491,3.491,0,0,1,10.679,36.577Z" transform="translate(-5.441 0.529)"/><path d="M19.914,31.969H12.056A3.059,3.059,0,0,1,9,28.914V21.056A3.059,3.059,0,0,1,12.056,18h7.858a3.059,3.059,0,0,1,3.056,3.056v7.858A3.059,3.059,0,0,1,19.914,31.969Zm-7.858-11.35a.437.437,0,0,0-.437.437v7.858a.437.437,0,0,0,.437.437h7.858a.437.437,0,0,0,.437-.437V21.056a.437.437,0,0,0-.437-.437Z" transform="translate(-3.761 2.954)"/><path d="M24.661,29.261a1.309,1.309,0,0,1-.98-.44l-3.492-3.929,1.957-1.739L24.593,25.9l5.144-6.615L31.8,20.9l-6.112,7.858a1.308,1.308,0,0,1-.99.5h-.042Z" transform="translate(4.587 3.917)"/><path d="M43.106,46.416H10.8a4.806,4.806,0,0,1-4.8-4.8V12.8A4.806,4.806,0,0,1,10.8,8h32.3a4.806,4.806,0,0,1,4.8,4.8V41.614A4.806,4.806,0,0,1,43.106,46.416Zm-32.3-35.8A2.186,2.186,0,0,0,8.619,12.8V41.614A2.186,2.186,0,0,0,10.8,43.8h32.3a2.186,2.186,0,0,0,2.183-2.183V12.8a2.186,2.186,0,0,0-2.183-2.183Z" transform="translate(-6 -4.507)"/><path d="M6.75,14H46.039v2.619H6.75Z" transform="translate(-5.441 -0.03)"/><path d="M11,6h2.619V16.477H11Z" transform="translate(-2.269 -6)"/><path d="M23.5,6h2.619V16.477H23.5Z" transform="translate(7.059 -6)"/></svg>