<svg xmlns="http://www.w3.org/2000/svg" width="46.087" height="46.083" viewBox="0 0 46.087 46.083"><defs><style>.a{fill:#fff;}.b{fill:#ffa594;}.c{fill:#f3f3f1;}.d{fill:#ffe6c8;}</style></defs><path class="a" d="M10.591,46.275A3.84,3.84,0,0,1,6.75,42.435V14.591a3.84,3.84,0,0,1,3.841-3.841H38.435a3.84,3.84,0,0,1,3.841,3.841V42.435a3.84,3.84,0,0,1-3.841,3.841Z" transform="translate(-5.31 -1.632)"/><path class="b" d="M11.071,42.435V14.591a3.84,3.84,0,0,1,3.841-3.841H10.591A3.84,3.84,0,0,0,6.75,14.591V42.435a3.84,3.84,0,0,0,3.841,3.841h4.321A3.84,3.84,0,0,1,11.071,42.435Z" transform="translate(-5.31 -1.632)"/><path class="c" d="M33.686,10.583a3.76,3.76,0,0,1-1.133,2.727l-2.708,2.708L24.43,10.6l2.708-2.727a3.825,3.825,0,0,1,5.415,0A3.749,3.749,0,0,1,33.686,10.583Z" transform="translate(10.961 -5.312)"/><path class="d" d="M38.735,14.172,21.568,31.34,14.77,32.7l1.363-6.779L33.32,8.757Z" transform="translate(2.071 -3.467)"/><path class="b" d="M28.751,11.078l2.708-2.727a3.8,3.8,0,0,1,.893-.645,3.813,3.813,0,0,0-5.214.165L24.43,10.6l5.415,5.415,1.92-1.92Z" transform="translate(10.961 -5.308)"/><path class="b" d="M20.454,26.4,35.718,11.155l-2.4-2.4L16.133,25.924,14.77,32.7l4.6-.924Z" transform="translate(2.071 -3.467)"/><path d="M39.125,48.406H11.281A5.285,5.285,0,0,1,6,43.125V15.281A5.285,5.285,0,0,1,11.281,10H27.6v2.88H11.281a2.4,2.4,0,0,0-2.4,2.4V43.125a2.4,2.4,0,0,0,2.4,2.4H39.125a2.4,2.4,0,0,0,2.4-2.4V26.8h2.88V43.125A5.285,5.285,0,0,1,39.125,48.406Z" transform="translate(-6 -2.323)"/><path d="M15.462,36.681a1.441,1.441,0,0,1-1.411-1.722l1.358-6.79a1.436,1.436,0,0,1,.394-.735L35.69,7.546a5.279,5.279,0,1,1,7.466,7.466L23.27,34.9a1.43,1.43,0,0,1-.735.394l-6.788,1.358a1.427,1.427,0,0,1-.284.029Zm2.685-7.52L17.3,33.4l4.242-.849L41.121,12.977a2.4,2.4,0,0,0-3.4-3.4Z" transform="translate(1.383 -6.002)"/><path d="M0,0H2.88V7.681H0Z" transform="translate(34.348 6.295) rotate(-45)"/></svg>