<svg xmlns="http://www.w3.org/2000/svg" width="51.271" height="47" viewBox="0 0 51.271 47"><defs><style>.a{fill:#f3f3f1;}.b{fill:#fff;}.c{fill:#ffe6c8;}.d{fill:#ffa594;}.e{fill:#d5dbe1;}</style></defs><path class="a" d="M10.75,16.3V12.023A4.285,4.285,0,0,1,15.023,7.75H46a4.285,4.285,0,0,1,4.273,4.273V16.3Z" transform="translate(-0.602 -6.148)"/><path class="b" d="M50.272,11.75V25.636A4.285,4.285,0,0,1,46,29.909H15.023a4.285,4.285,0,0,1-4.273-4.273V11.75Z" transform="translate(-0.602 -1.602)"/><path class="b" d="M42,42.454H11.023A4.272,4.272,0,0,1,6.75,38.182V20.023a4.272,4.272,0,0,1,4.273-4.273H42a4.272,4.272,0,0,1,4.273,4.273V38.182A4.272,4.272,0,0,1,42,42.454Z" transform="translate(-5.148 2.943)"/><path class="c" d="M15.091,26.227h-3.2A2.137,2.137,0,0,1,9.75,24.091v-3.2a2.137,2.137,0,0,1,2.136-2.136h3.2a2.137,2.137,0,0,1,2.136,2.136v3.2A2.137,2.137,0,0,1,15.091,26.227Z" transform="translate(-1.739 6.352)"/><path class="d" d="M10.75,11.75h4.807V20.3H10.75Z" transform="translate(-0.602 -1.602)"/><path class="d" d="M14.557,24.091v-3.2a2.13,2.13,0,0,1,1.335-1.974,2.128,2.128,0,0,0-.8-.162h-3.2A2.137,2.137,0,0,0,9.75,20.886v3.2a2.137,2.137,0,0,0,2.136,2.136h3.2a2.128,2.128,0,0,0,.8-.162A2.13,2.13,0,0,1,14.557,24.091Z" transform="translate(-2.633 6.352)"/><path class="d" d="M19.829,7.75H15.023a4.285,4.285,0,0,0-4.273,4.273V16.3h4.807V12.023A4.285,4.285,0,0,1,19.829,7.75Z" transform="translate(-0.602 -6.148)"/><path class="e" d="M11.557,38.182V20.023a4.272,4.272,0,0,1,4.273-4.273H11.023A4.272,4.272,0,0,0,6.75,20.023V38.182a4.272,4.272,0,0,0,4.273,4.273h4.807A4.272,4.272,0,0,1,11.557,38.182Z" transform="translate(-5.148 2.943)"/><path d="M42.852,44.909H11.875A5.88,5.88,0,0,1,6,39.034V20.875A5.88,5.88,0,0,1,11.875,15H42.852a5.88,5.88,0,0,1,5.875,5.875V39.034A5.88,5.88,0,0,1,42.852,44.909ZM11.875,18.2a2.674,2.674,0,0,0-2.67,2.67V39.034a2.674,2.674,0,0,0,2.67,2.67H42.852a2.674,2.674,0,0,0,2.67-2.67V20.875a2.674,2.674,0,0,0-2.67-2.67Z" transform="translate(-6 2.091)"/><path d="M15.943,28.682h-3.2A3.743,3.743,0,0,1,9,24.943v-3.2A3.743,3.743,0,0,1,12.739,18h3.2a3.743,3.743,0,0,1,3.739,3.739v3.2A3.743,3.743,0,0,1,15.943,28.682Zm-3.2-7.477a.534.534,0,0,0-.534.534v3.2a.534.534,0,0,0,.534.534h3.2a.534.534,0,0,0,.534-.534v-3.2a.534.534,0,0,0-.534-.534Z" transform="translate(-2.591 5.5)"/><path d="M9,24.5H38.909v3.2H9Z" transform="translate(-2.591 12.886)"/><path d="M11.25,11H48.636v3.2H11.25Z" transform="translate(-0.034 -2.455)"/><path d="M49.779,36.1,48.2,33.315a2.593,2.593,0,0,0,1.325-2.282V12.875a2.674,2.674,0,0,0-2.67-2.67H15.875a2.674,2.674,0,0,0-2.67,2.67v6.409H10V12.875A5.88,5.88,0,0,1,15.875,7H46.852a5.88,5.88,0,0,1,5.875,5.875V31.034a5.837,5.837,0,0,1-2.948,5.07Z" transform="translate(-1.455 -7)"/></svg>