<svg xmlns="http://www.w3.org/2000/svg" width="46.424" height="44.49" viewBox="0 0 46.424 44.49"><defs><style>.a{fill:#fff;}.b{fill:#ffe6c8;}.c{fill:#ffa594;}.d{fill:#d5dbe1;}</style></defs><g transform="translate(1.451 22.729)"><path class="a" d="M34.8,31.323H6.75v-6.77a5.8,5.8,0,0,1,5.8-5.8H29a5.8,5.8,0,0,1,5.8,5.8Z" transform="translate(-6.75 -18.75)"/></g><g transform="translate(8.221 1.451)"><circle class="a" cx="7.254" cy="7.254" r="7.254"/></g><g transform="translate(8.24 1.451)"><path class="b" d="M24.729,14.617c-3.288.5-5.3-3-5.3-3a12.063,12.063,0,0,1-9.169,2.96,7.245,7.245,0,0,1,14.469.039Z" transform="translate(-10.26 -7.75)"/></g><g transform="translate(22.729 20.794)"><circle class="a" cx="11.123" cy="11.123" r="11.123"/></g><g transform="translate(22.729 20.794)"><path class="c" d="M22.1,28.873a11.123,11.123,0,0,1,8.946-10.906A11.122,11.122,0,1,0,28.873,40a11.055,11.055,0,0,0,2.176-.217A11.123,11.123,0,0,1,22.1,28.873Z" transform="translate(-17.75 -17.75)"/></g><g transform="translate(1.451 22.729)"><path class="d" d="M16.905,18.75H12.553a5.8,5.8,0,0,0-5.8,5.8v6.77H11.1v-6.77A5.8,5.8,0,0,1,16.905,18.75Z" transform="translate(-6.75 -18.75)"/></g><g transform="translate(8.221 1.451)"><path class="d" d="M14.6,15A7.228,7.228,0,0,1,19.68,8.119,7.171,7.171,0,0,0,17.5,7.75a7.254,7.254,0,0,0,0,14.508,7.171,7.171,0,0,0,2.176-.369A7.228,7.228,0,0,1,14.6,15Z" transform="translate(-10.25 -7.75)"/></g><g transform="translate(8.24 1.451)"><path class="c" d="M19.667,8.116a7.144,7.144,0,0,0-2.172-.366,7.237,7.237,0,0,0-7.234,6.828,13.273,13.273,0,0,0,4.412-.393,7.2,7.2,0,0,1,4.994-6.07Z" transform="translate(-10.26 -7.75)"/></g><g transform="translate(6.77)"><path d="M18.2,24.409a8.7,8.7,0,1,1,8.7-8.7A8.715,8.715,0,0,1,18.2,24.409ZM18.2,9.9a5.8,5.8,0,1,0,5.8,5.8A5.81,5.81,0,0,0,18.2,9.9Z" transform="translate(-9.5 -7)"/></g><g transform="translate(21.278 19.344)"><path d="M29.573,42.147A12.573,12.573,0,1,1,42.147,29.573,12.588,12.588,0,0,1,29.573,42.147Zm0-22.245a9.672,9.672,0,1,0,9.672,9.672A9.683,9.683,0,0,0,29.573,19.9Z" transform="translate(-17 -17)"/></g><g transform="translate(27.023 26.609)"><path d="M24.864,30.9a1.445,1.445,0,0,1-1.025-.426L19.97,26.605l2.052-2.052,2.772,2.772,5.749-6.569,2.184,1.909L25.957,30.4a1.455,1.455,0,0,1-1.045.5A.405.405,0,0,1,24.864,30.9Z" transform="translate(-19.97 -20.756)"/></g><g transform="translate(0 21.278)"><path d="M23.409,33.475H7.451A1.451,1.451,0,0,1,6,32.024v-6.77A7.261,7.261,0,0,1,13.254,18H25.382v2.9H13.254A4.356,4.356,0,0,0,8.9,25.254v5.319H23.409Z" transform="translate(-6 -18)"/></g></svg>