<svg xmlns="http://www.w3.org/2000/svg" width="53.247" height="53.247" viewBox="0 0 53.247 53.247"><defs><style>.a{fill:#fff;}.b{fill:#d5dbe1;}.c{fill:#ffe6c8;}.d{fill:#ffa594;}</style></defs><ellipse class="a" cx="22.741" cy="22.741" rx="22.741" ry="22.741" transform="translate(5.824 1.941)"/><path class="b" d="M27.12,29.616A22.737,22.737,0,0,0,6.875,7.019a23.165,23.165,0,0,1,2.5-.144,22.741,22.741,0,1,1-2.5,45.337A22.737,22.737,0,0,0,27.12,29.616Z" transform="translate(19.194 -4.934)"/><path class="c" d="M17.25,27.669a1.161,1.161,0,0,0,.8,1.1L28.825,32.3l3.53,10.776a1.155,1.155,0,0,0,2.176.058l9.26-24.307a.994.994,0,0,0,.082-.417,1.162,1.162,0,0,0-1.158-1.158.967.967,0,0,0-.417.082l-24.309,9.26a1.147,1.147,0,0,0-.739,1.076Z" transform="translate(-15.586 7.709)"/><path class="d" d="M24.986,18.825a.884.884,0,0,0,.033-.173l3.465-1.32a.993.993,0,0,1,.417-.082,1.162,1.162,0,0,1,1.158,1.158.967.967,0,0,1-.082.417l-9.26,24.307a1.155,1.155,0,0,1-2.176-.058L17.25,39.132Z" transform="translate(-1.773 7.709)"/><path d="M34.37,46.453A2.833,2.833,0,0,0,37,44.638l9.26-24.307a2.567,2.567,0,0,0,.189-1.009,2.824,2.824,0,0,0-2.82-2.822,2.665,2.665,0,0,0-1.112.231L18.316,25.948a2.82,2.82,0,0,0,.133,5.318l9.97,3.266,3.268,9.977A2.818,2.818,0,0,0,34.37,46.453ZM42.752,20.2,34.4,42.111,31.319,32.7a1.663,1.663,0,0,0-1.063-1.063l-9.414-3.084Zm1.052-.4a.087.087,0,0,1-.029.011Zm-.619-.737-.033.084C43.162,19.121,43.171,19.093,43.185,19.064Z" transform="translate(-16.499 6.794)"/><path d="M30.4,54.81A24.4,24.4,0,1,0,6,30.4c0,.47.022.965.047,1.433l3.323-.162c-.02-.415-.042-.854-.042-1.271A21.077,21.077,0,1,1,30.4,51.482c-.417,0-.854-.02-1.269-.042l-.169,3.323C29.437,54.787,29.932,54.81,30.4,54.81Z" transform="translate(-1.563 -6)"/><path d="M27.312,37.225A13.341,13.341,0,1,0,10.99,20.907l3.219.841a10.013,10.013,0,1,1,12.249,12.26Z" transform="translate(4.951 0.081)"/></svg>