<svg xmlns="http://www.w3.org/2000/svg" width="22.004" height="22.503" viewBox="0 0 22.004 22.503"><defs><style>.a{opacity:0.28;}</style></defs><g class="a"><path d="M119.839,258.752a.51.51,0,0,0-.511-.51h-1.782a.51.51,0,0,0-.51.51v1.782a.511.511,0,0,0,.51.511h1.782a.511.511,0,0,0,.511-.511v-1.782Z" transform="translate(-111.889 -246.338)"/><path d="M216.473,258.752a.51.51,0,0,0-.51-.51H214.18a.51.51,0,0,0-.51.51v1.782a.511.511,0,0,0,.51.511h1.783a.511.511,0,0,0,.51-.511Z" transform="translate(-204.07 -246.338)"/><path d="M313.1,258.752a.51.51,0,0,0-.51-.51h-1.782a.51.51,0,0,0-.511.51v1.782a.511.511,0,0,0,.511.511h1.782a.511.511,0,0,0,.51-.511Z" transform="translate(-296.244 -246.338)"/><path d="M119.839,355.385a.51.51,0,0,0-.511-.51h-1.782a.51.51,0,0,0-.51.51v1.782a.51.51,0,0,0,.51.51h1.782a.511.511,0,0,0,.511-.51v-1.782Z" transform="translate(-111.889 -338.516)"/><path d="M216.473,355.385a.51.51,0,0,0-.51-.51H214.18a.51.51,0,0,0-.51.51v1.782a.51.51,0,0,0,.51.51h1.783a.51.51,0,0,0,.51-.51Z" transform="translate(-204.07 -338.516)"/><path d="M313.1,355.385a.51.51,0,0,0-.51-.51h-1.783a.51.51,0,0,0-.511.51v1.782a.51.51,0,0,0,.511.51h1.783a.51.51,0,0,0,.51-.51v-1.782Z" transform="translate(-296.244 -338.516)"/><path d="M25.456,54.152v2.722A2.223,2.223,0,0,1,23.228,59.1H21.822a2.235,2.235,0,0,1-2.242-2.222V54.142H13.245v2.732A2.235,2.235,0,0,1,11,59.1H9.6A2.223,2.223,0,0,1,7.37,56.874V54.152a2.026,2.026,0,0,0-1.959,2.016V72.12a2.027,2.027,0,0,0,2.017,2.029H25.4a2.029,2.029,0,0,0,2.017-2.029V56.167A2.026,2.026,0,0,0,25.456,54.152ZM24.8,71.126a.872.872,0,0,1-.872.872H8.856a.872.872,0,0,1-.872-.872v-8.24a.872.872,0,0,1,.872-.872H23.931a.872.872,0,0,1,.872.872v8.24Z" transform="translate(-5.411 -51.646)"/><path d="M80.314,5.99H81.7a.764.764,0,0,0,.764-.764V.764A.764.764,0,0,0,81.7,0h-1.39a.764.764,0,0,0-.764.764V5.226A.764.764,0,0,0,80.314,5.99Z" transform="translate(-76.132)"/><path d="M345.222,5.99h1.39a.764.764,0,0,0,.764-.764V.764A.764.764,0,0,0,346.613,0h-1.39a.764.764,0,0,0-.764.764V5.226A.764.764,0,0,0,345.222,5.99Z" transform="translate(-328.829)"/></g></svg>