<svg xmlns="http://www.w3.org/2000/svg" width="89.642" height="84.031" viewBox="0 0 89.642 84.031"><defs><style>.a{opacity:0.81;}.b{fill:#a2a2a2;}</style></defs><g class="a" transform="translate(0 -9.35)"><path class="b" d="M79.508,9.35H10.139A10.149,10.149,0,0,0,0,19.494V83.249A10.143,10.143,0,0,0,10.139,93.381H79.508A10.139,10.139,0,0,0,89.642,83.249V19.494A10.144,10.144,0,0,0,79.508,9.35ZM57.967,24.436a9.793,9.793,0,1,1-9.793,9.793A9.794,9.794,0,0,1,57.967,24.436ZM76.329,84.009H14.715c-2.7,0-3.909-1.957-2.69-4.371L28.832,46.35c1.218-2.414,3.539-2.629,5.182-.482l16.9,22.084a4.143,4.143,0,0,0,6.417.406l4.134-4.186a3.935,3.935,0,0,1,6.249.529L78.419,79.994C79.967,82.212,79.033,84.009,76.329,84.009Z"/></g></svg>