<?xml version="1.0" encoding="utf-8"?>
<svg width="229px" height="469px" viewbox="0 0 229 469" version="1.1" xmlns:xlink="http://www.w3.org/1999/xlink" xmlns="http://www.w3.org/2000/svg">
  <g id="Group-3">
    <path d="M0.248174 6.23533C1.71047 5.53839 4.13649 12.5356 4.13649 12.5356C4.13649 12.5356 1.51715 3.20341 2.5332 2.46784C4.13795 1.30575 6.95644 11.9669 6.95644 11.9669C6.95644 11.9669 4.16557 0.278114 6.27616 0.00459182C8.38821 -0.267385 9.91592 11.6331 9.91592 11.6331C9.91592 11.6331 9.12953 0.344563 10.9683 0.446554C12.8085 0.548545 13.2955 15.1503 13.2955 15.1503C13.2955 15.1503 17.5167 9.27807 18.697 10.1141C20.6884 11.5265 12.2126 24.4006 12.2126 24.4006L4.25278 26C4.25278 26 -1.21267 6.93382 0.248174 6.23533" transform="translate(32 0)" id="Fill-111" fill="#E46F62" fill-rule="evenodd" stroke="none" />
    <path d="M19.9225 9.45924C18.7711 8.25569 13.9403 13.7241 13.9403 13.7241C13.9403 13.7241 19.7906 6.19399 19.0799 5.12891C17.9584 3.44607 11.4395 12.1128 11.4395 12.1128C11.4395 12.1128 18.3003 2.4951 16.3737 1.43002C14.4471 0.364934 8.72273 10.6658 8.72273 10.6658C8.72273 10.6658 13.5175 0.638813 11.7168 0.0210639C9.91618 -0.596685 4.22332 12.5784 4.22332 12.5784C4.22332 12.5784 2.27872 5.57472 0.84689 5.88512C-1.56849 6.40853 1.95038 21.4612 1.95038 21.4612L9.0091 26C9.0091 26 21.074 10.6628 19.9225 9.45924" transform="translate(209 85)" id="Fill-112" fill="#E46F62" fill-rule="evenodd" stroke="none" />
    <path d="M210.835 88.8096C207.119 86.2742 203.522 83.5717 199.935 80.857C199.778 81.1022 199.615 81.3611 199.435 81.6675C193.583 91.5013 187.452 101.142 180.427 110.205C178.566 112.606 177.002 115.238 174.991 117.538C173.361 119.402 173.335 119.408 171.763 117.472C168.116 112.977 164.945 108.153 161.933 103.227C158.522 97.6492 154.653 92.4174 149.875 87.9333C143.029 81.5035 135.001 77.2768 125.545 76.3162C120.309 75.7831 115.017 75.9807 109.752 76.353C108.824 80.2013 108.025 84.0849 105.276 87.2056C102.049 90.8655 97.3267 91.5948 93.0833 89.1175C89.4362 86.9896 87.7999 83.6238 86.9447 79.7295C86.7213 78.7153 86.5687 77.6873 86.3823 76.6655C81.2314 76.4173 76.1036 75.7157 70.9326 75.8581C69.8155 75.8888 68.9188 75.42 67.9927 74.8869C62.9697 72.0021 57.6955 69.6474 52.2194 67.7401C44.822 65.1664 38.3999 60.6424 31.3214 57.4329C30.2382 56.9411 30.1381 56.2349 30.3415 55.1548C32.0132 46.3137 33.5864 37.4526 35.2659 28.6115C36.9454 19.7719 39.3567 11.084 40.8097 2.19228C40.8436 1.99006 40.8683 1.79856 40.8868 1.61778C34.7312 1.1827 28.5788 0.788976 22.4741 0C22.3446 0.246651 22.2198 0.50709 22.0997 0.782848C18.5496 9.07706 15.2323 17.4509 12.4758 26.0393C10.0105 33.7222 7.44038 41.3684 4.60991 48.9288C2.88266 53.5416 1.22783 58.1805 0.309507 63.0461C-0.29141 66.2311 -0.0402575 69.2736 1.26481 72.2641C3.30484 76.9428 6.36181 80.9229 9.66839 84.7529C18.6467 95.149 28.4863 103.112 39.4153 111.399C41.007 112.606 42.6217 113.836 43.8313 115.425C48.9113 122.103 48.6864 137.81 49.4044 146.151C50.1655 154.979 41.631 162.629 40.3829 171.134C39.5956 176.507 40.8683 181.952 43.6325 186.606C46.5308 191.485 51.3889 197.134 56.2872 200.143C64.1314 204.962 72.6937 207.636 81.8338 208.547C86.9832 209.059 92.1526 209.247 97.2851 208.52C105.923 207.294 113.054 202.926 119.662 197.555C120.311 197.027 120.938 196.469 121.576 195.925C122.708 194.421 123.92 192.967 124.961 191.399C129.103 185.169 130.311 178.264 129.312 170.972C127.833 160.179 128.83 149.46 129.984 138.731C130.171 137.008 130.882 135.77 132.605 135.195C134.235 134.651 134.858 136.006 135.702 136.827C141.956 142.901 148.412 148.75 155.106 154.347C158.509 157.193 162.216 159.551 166.223 161.464C170.429 163.473 174.366 162.875 178.153 160.374C180.678 158.707 182.469 156.397 183.967 153.849C188.159 146.714 192.486 139.658 196.087 132.186C199.858 124.356 203.905 116.657 207.703 108.839C210.509 103.063 212.827 97.1023 214 90.7491C212.912 90.1317 211.844 89.4975 210.835 88.8096" transform="translate(9 21)" id="Fill-113" fill="#101429" fill-rule="evenodd" stroke="none" />
    <path d="M64.5919 4.23887C72.3961 9.08285 80.9147 11.7697 90.0082 12.6858C95.1313 13.2001 100.274 13.3895 105.381 12.6581C113.974 11.4263 121.069 7.03809 127.644 1.63827C128.289 1.10706 128.913 0.546603 129.548 0C132.413 5.58613 135.813 10.8905 137.375 17.1141C141.108 31.9878 138.463 45.4312 128.895 57.4472C121.346 66.9304 113.035 75.6498 103.52 83.1806C102.629 83.8843 101.913 84.8128 101.117 85.6365C100.348 85.7135 99.7807 86.1539 99.1982 86.6266C96.7624 88.6067 94.3679 90.6499 91.8324 92.496C84.0404 98.1684 76.3803 104.035 67.9322 108.743C64.8326 110.472 64.9077 110.639 66.9465 113.781C70.6624 119.506 74.6128 125.078 78.0772 130.966C81.2136 134.521 83.8549 138.455 86.4625 142.395C90.0005 147.743 93.2826 153.263 96.839 158.6C98.0776 160.458 98.5896 162.081 97.1992 163.982C93.9003 167.713 91.0874 171.8 88.4599 176.023C87.0312 177.146 86.1957 178.755 85.1441 180.179C84.4022 181.183 83.7354 181.257 82.8432 180.453C80.0425 177.923 77.228 175.409 74.4196 172.888C72.4712 171.141 70.5903 169.311 68.3982 167.858C62.5546 163.102 56.7125 158.339 50.8658 153.588C45.1786 148.965 39.5389 144.283 33.7765 139.759C29.9074 136.722 26.5364 133.069 22.3177 130.473C18.467 126.61 14.6361 122.725 10.7593 118.89C8.05823 116.219 5.6515 113.305 3.46705 110.204C-1.19159 103.594 -1.16706 98.4609 3.61115 91.9956C8.75266 85.0391 14.7036 78.7971 20.8614 72.7659C24.542 69.1599 28.2196 65.56 31.6718 61.7338C40.0524 52.4416 48.8439 43.5419 57.4683 34.4822C58.6195 33.272 59.1959 32.1048 59.1821 30.3419C59.1131 21.2667 61.339 12.6381 64.5919 4.23887" transform="translate(0 216)" id="Fill-114" fill="#EE9E39" fill-rule="evenodd" stroke="none" />
    <path d="M2.27244 0C6.50072 2.57543 9.87935 6.19875 13.7573 9.21258C19.5328 13.7005 25.1854 18.3457 30.8855 22.9314C36.7455 27.6454 42.6009 32.37 48.4578 37.0886C48.6376 40.7578 49.7883 44.2314 50.6626 47.7569C53.5634 59.4731 56.3735 71.2107 58.7704 83.04C59.2374 85.3496 59.1483 85.3817 57.0004 86.1287C55.8173 86.5426 54.6158 86.9016 53.4236 87.285C48.4685 88.811 43.5135 90.3401 38.5585 91.8676C37.1911 92.387 35.8313 92.9277 34.4547 93.4242C31.855 94.3591 31.8366 94.3529 30.8579 91.9058C28.9588 87.1567 27.1243 82.3832 25.1792 77.6539C21.1292 67.812 17.0929 57.9624 12.9215 48.1678C8.04638 36.7174 4.3958 24.8454 0.722178 12.9948C-0.625279 8.65197 -0.0752341 4.11671 2.27244 0" transform="translate(21 347)" id="Fill-115" fill="#E98434" fill-rule="evenodd" stroke="none" />
    <path d="M12.361 45C8.95685 39.1549 5.07523 33.6231 1.42407 27.94C-0.579248 24.8203 -0.653055 24.6552 2.39259 22.9387C10.6936 18.2644 18.2203 12.4407 25.8766 6.80961C28.368 4.9769 30.7207 2.94854 33.1142 0.982846C33.6865 0.513587 34.2439 0.0764266 35 0C32.7979 4.46179 30.6545 8.95414 28.383 13.3777C23.5012 22.8898 18.5487 32.3621 13.6443 41.8604C13.1262 42.8616 12.3836 43.7833 12.361 45" transform="translate(66 302)" id="Fill-116" fill="#E98434" fill-rule="evenodd" stroke="none" />
    <path d="M13.9091 4.62504C18.7709 3.08336 23.6327 1.54014 28.4945 0C28.6287 1.35822 28.7493 2.71952 28.906 4.07466C29.2829 7.30294 28.5548 10.2583 26.2 12.4521C19.5066 18.6929 13.2443 25.4269 6.02175 31.0679C5.12176 31.7694 4.23985 32.5325 3.12579 32.844C1.10419 33.4067 -0.131979 32.4246 0.0112365 30.2678C0.19214 27.5406 1.5248 25.2466 3.05946 23.1283C4.15694 21.6144 5.42779 20.1976 6.78456 18.9195C10.6438 15.2796 12.1649 10.2722 14.3825 5.6703C14.6026 5.21242 14.2227 4.90254 13.9091 4.62504" transform="translate(45 433)" id="Fill-117" fill="#E46B49" fill-rule="evenodd" stroke="none" />
    <path d="M0 11.9854C2.60758 7.78129 5.39924 3.71363 8.67317 0C12.8645 2.55034 14.5197 6.28236 13.8594 11.1424C13.3817 14.6599 13.0425 18.1942 12.5313 21.7055C12.0308 25.1294 11.8558 28.561 11.9319 32.0111C11.9623 33.3858 11.7767 34.7376 11.3157 36.0159C10.5353 38.1785 8.58493 38.6398 6.90385 37.0704C5.7385 35.9806 4.97175 34.5798 4.57011 33.0594C4.03764 31.0455 3.55233 29.0009 3.29979 26.9364C2.67756 21.8388 1.57307 16.8623 0 11.9854" transform="translate(89 380)" id="Fill-118" fill="#E46B49" fill-rule="evenodd" stroke="none" />
    <path d="M28.151 5.06329C25.7643 4.61562 23.3776 6.42637 22.4251 9.22199C22.2491 9.10775 22.0607 8.97191 21.8492 8.80519C20.5926 7.81878 19.6648 6.6394 19.1322 5.24545C18.8574 4.52763 18.6829 3.75579 18.6335 2.91757C18.581 2.03304 18.5409 1.13615 18.5007 0C18.493 0.00308737 18.4869 0.00771844 18.476 0.0123495C17.2734 0.467737 16.483 1.17629 15.7682 1.90028C15.5367 2.13492 15.1754 1.30905 14.9469 1.53751C11.6849 4.82557 8.56339 5.22384 3.53836 5.57271C2.90849 5.61593 2.3234 5.25471 1.71515 5.09725C1.29369 4.75301 0.89694 4.42266 0.526431 4.07997C0.183711 5.55882 0 7.11794 0 8.7419C0 12.8141 1.16865 16.5221 3.07986 19.3547C3.10919 19.3995 3.14006 19.4427 3.17094 19.4875C4.96173 22.0809 7.38239 23.9086 10.1257 24.5477C10.683 25.2455 10.8559 26.1269 10.7123 27.3233C10.6382 27.9469 10.7247 28.5922 10.6151 29.205C9.96051 32.8713 8.7471 36.1176 4.52484 37.0238C4.06016 37.1226 3.99841 37.6335 3.79926 37.9901C3.98606 39.0198 4.13889 40.0556 4.36274 41.0775C5.21954 45.0016 6.85905 48.393 10.5132 50.5372C14.7648 53.0334 19.4965 52.2986 22.7292 48.6107C25.4833 45.4662 26.2845 41.553 27.2139 37.6752C22.1117 34.3455 19.2356 29.7175 18.9376 23.5598C18.9176 23.1507 18.8311 22.7323 18.8296 22.3325C20.7562 20.7441 22.3154 18.4795 23.3204 15.7888C23.9719 16.6132 24.8241 17.2044 25.8399 17.3943C28.5292 17.8975 31.2262 15.5449 31.8638 12.1411C32.5014 8.73572 30.8402 5.56808 28.151 5.06329" transform="translate(91 60)" id="Fill-119" fill="#E46F62" fill-rule="evenodd" stroke="none" />
    <path d="M37.6367 2.31453C34.6705 -0.325392 30.9939 -0.683688 27.3188 1.1202C23.656 2.92565 21.8714 5.89749 21.8316 10.0249C21.8193 11.6427 22.0633 13.2325 22.41 15.0193C20.2035 13.7893 17.8204 12.9083 15.3284 12.5655C11.3419 12.0165 7.06835 12.958 3.99326 15.5793C0.916635 18.2021 -0.742134 22.5994 0.322793 26.5205C1.49053 30.8278 5.4817 33.3731 9.47441 34.6279C15.4497 36.5078 20.6884 33.0474 25.5557 29.9328C25.5879 30.803 25.6217 31.5491 25.6647 32.2765C25.8089 34.7582 26.9644 36.6955 28.8549 38.1954C30.2328 39.2827 30.7714 39.2966 31.5724 38.062C31.6369 37.9426 31.7166 37.8231 31.7949 37.6913C32.177 37.0678 32.4639 36.3775 32.7923 35.7261C33.2926 33.2583 33.6071 30.7782 33.5151 28.3089C39.8033 27.6729 43.0181 23.3997 43.7669 18.4906C44.7904 11.9079 42.3889 6.53498 37.6367 2.31453" transform="translate(84 30)" id="Fill-120" fill="#11162B" fill-rule="evenodd" stroke="none" />
    <path d="M67.7826 1.43877C78.5944 22.0466 61.4266 45.1277 46.8513 58.9269C33.1207 71.924 16.6914 81.6597 0.460566 91.215C-0.601077 91.8399 0.363634 93.4866 1.42835 92.8603C20.4702 81.649 40.0075 70.0756 54.8444 53.4564C67.3041 39.5029 79.1253 18.9394 69.4397 0.47789C68.8689 -0.609789 67.2133 0.352623 67.7826 1.43877" transform="translate(48 226)" id="Fill-121" fill="#E58933" fill-rule="evenodd" stroke="none" />
    <path d="M0.165673 1.39505C16.0214 24.7417 33.1128 47.1861 51.4061 68.6839C52.2042 69.6214 53.5519 68.2642 52.7583 67.3328C34.5726 45.9591 17.5809 23.6419 1.81725 0.431524C1.13114 -0.581018 -0.526578 0.373314 0.165673 1.39505" transform="translate(44 313)" id="Fill-122" fill="#E58933" fill-rule="evenodd" stroke="none" />
    <path d="M28.1703 0.408451C20.6585 10.5045 10.5673 17.9157 0.416398 25.1836C-0.570985 25.8895 0.379658 27.5391 1.37929 26.8241C11.8088 19.358 22.1005 11.7394 29.8174 1.36591C30.5492 0.384057 28.8928 -0.565784 28.1703 0.408451" transform="translate(45 442)" id="Fill-123" fill="#FDE9D8" fill-rule="evenodd" stroke="none" />
    <path d="M0.307641 1.51671C2.39624 3.2156 4.44495 4.96476 6.45234 6.76271C7.31428 7.53601 8.57514 6.23781 7.70892 5.46156C5.7001 3.66065 3.65282 1.91149 1.56422 0.212607C0.675212 -0.510418 -0.589916 0.783338 0.307641 1.51671" transform="translate(50 452)" id="Fill-124" fill="#FDE9D8" fill-rule="evenodd" stroke="none" />
    <path d="M0.474181 1.67536C3.59142 3.27951 6.63024 5.00227 9.5937 6.84799C10.6256 7.49022 11.5868 5.92947 10.5625 5.29012C7.59909 3.44586 4.56028 1.7231 1.4415 0.118949C0.358841 -0.439393 -0.610011 1.11847 0.474181 1.67536" transform="translate(52 449)" id="Fill-125" fill="#FDE9D8" fill-rule="evenodd" stroke="none" />
    <path d="M11.6529 0.169C8.0603 2.75864 4.33492 5.09123 0.467894 7.16677C-0.592919 7.73675 0.338059 9.45466 1.39592 8.88628C5.26294 6.80914 8.98833 4.47815 12.5809 1.88851C13.5621 1.18123 12.6414 -0.543072 11.6529 0.169" transform="translate(90 397)" id="Fill-126" fill="#FDE9D8" fill-rule="evenodd" stroke="none" />
    <path d="M12.5583 0.136059C8.61974 2.34736 4.5985 4.41688 0.489917 6.35034C-0.6238 6.87595 0.358891 8.41699 1.47261 7.89281C5.57963 5.95792 9.60087 3.8884 13.5394 1.67853C14.6048 1.07987 13.6299 -0.464029 12.5583 0.136059" transform="translate(89 403)" id="Fill-127" fill="#FDE9D8" fill-rule="evenodd" stroke="none" />
    <path d="M4.16486 0.919769C3.92204 5.90941 3.59827 10.8914 3.13618 15.8642C2.60785 21.5351 2.69174 28.4263 0.113395 33.5583C-0.434061 34.6454 1.14944 35.6115 1.6969 34.5214C3.79842 30.3401 3.95736 25.4607 4.46655 20.8324C5.19208 14.2122 5.67625 7.57364 5.99854 0.919769C6.05888 -0.30812 4.22373 -0.305058 4.16486 0.919769" transform="translate(99 384)" id="Fill-128" fill="#FDE9D8" fill-rule="evenodd" stroke="none" />
    <path d="M29 16.5C29 25.613 22.5081 33 14.5008 33C6.49191 33 0 25.613 0 16.5C0 7.38702 6.49191 0 14.5008 0C22.5081 0 29 7.38702 29 16.5" transform="translate(102 27)" id="Fill-129" fill="#11162B" fill-rule="evenodd" stroke="none" />
    <path d="M9 0.411167C8.60634 2.5297 6.61891 4.10001 4.29361 3.99503C1.96671 3.88714 0.16097 2.14478 0 0L9 0.411167" transform="translate(97 73)" id="Fill-130" fill="#FFFFFE" fill-rule="evenodd" stroke="none" />
  </g>
</svg>