<?xml version="1.0" encoding="utf-8"?>
<svg width="345px" height="420px" viewbox="0 0 345 420" version="1.1" xmlns:xlink="http://www.w3.org/1999/xlink" xmlns="http://www.w3.org/2000/svg">
  <g id="Group-2" transform="translate(0.74609375 0.7480469)">
    <path d="M16.7016 75.5009C12.4849 73.4626 8.73814 70.8537 5.86334 67.0975C1.76376 61.7393 -0.445489 55.78 0.0752397 49.0198C0.555913 42.7706 4.83267 38.3889 11.0907 37.53C14.6202 37.0448 18.0281 37.562 21.2849 38.9961C23.2107 39.8444 25.1519 40.6652 27.0299 41.6066C29.7229 42.9553 32.1216 42.3816 34.4249 40.7323C37.7726 38.337 40.1236 35.2033 41.5379 31.3693C43.02 27.3492 44.4543 23.3138 46.0026 19.3196C47.9284 14.3505 50.874 10.0801 55.1862 6.82127C62.2484 1.48753 70.936 1.22358 77.4713 6.12861C80.3368 8.27829 82.3258 11.0214 83.2655 14.4847C83.6214 15.7953 83.9465 17.1195 84.4133 18.392C86.1773 23.1948 90.2384 25.2834 95.2469 23.9729C98.3728 23.1536 100.976 21.364 103.463 19.4111C105.534 17.7878 107.364 15.9082 109.145 13.9797C112.648 10.1854 116.494 6.81669 121.063 4.28255C134.967 -3.42666 151.133 -0.944394 162.245 13.4946C171.179 25.1003 166.131 40.5599 158.526 47.4194C155.522 50.129 152.216 52.2969 148.468 53.7982C141.142 56.7336 133.796 59.6202 126.468 62.5449C125.295 63.0117 124.149 63.5457 123.012 64.0919C117.155 66.9052 114.261 71.6943 113.636 77.9755C113.264 81.7149 112.983 85.4635 112.534 89.1937C111.627 96.7382 107.949 102.775 101.998 107.462C96.3531 111.906 89.8055 112.19 83.8248 108.162C80.8668 106.17 78.106 103.886 75.2759 101.713C73.2715 100.174 71.2179 98.7109 68.9563 97.5712C65.9521 96.0577 64.6487 96.3034 62.2315 98.7338C61.1222 99.8475 60.0916 101.047 58.9145 102.086C54.0986 106.336 48.5647 106.206 43.9289 101.823C41.3869 99.4188 39.549 96.4865 37.5862 93.6472C39.0421 91.7752 40.4379 90.0908 43.1694 89.6759C45.4464 89.3311 46.8931 87.4621 47.2289 85.0409C47.4277 83.5961 47.0949 82.3374 45.7669 81.5273C44.6053 80.8178 43.5746 81.1779 42.5994 81.9773C42.3051 82.2184 41.9754 82.58 41.2344 82.0872C39.9079 79.9467 40.4656 77.559 41.2406 75.1576C41.4316 74.5671 41.6827 73.8638 41.1743 73.3985C40.5658 72.8416 40.0034 73.4351 39.5382 73.7997C35.283 77.1577 27.5506 75.1728 24.6712 71.5463C24.2321 70.9925 23.8593 70.3182 22.861 70.0786C21.8611 71.1481 20.8428 72.3702 20.2912 73.8074C19.5887 75.6336 18.5118 76.2118 16.7016 75.5009" transform="translate(137 0)" id="Fill-89" fill="#101429" fill-rule="evenodd" stroke="none" />
    <path d="M42.325 35.6217C42.2715 35.8029 42.2058 35.9904 42.1172 36.1933C40.8368 39.1145 39.0828 41.7245 37.2172 44.2771C36.4089 45.3799 35.3302 45.4279 34.146 45.3567C26.7173 44.9137 7.19805 47.9991 0 49.6596C6.03072 57.4475 31.9932 69.1682 41.4999 70.4275C60.4447 72.9352 76.9004 66.6466 87 62.3716C81.8402 59.3992 60.6662 49.7881 54.9762 48.0007C53.404 47.5066 52.4766 46.712 52.1878 45.0376C51.8318 42.959 51.2634 40.9159 50.9181 38.8357C50.6599 37.2713 50.5178 36.3156 50.6522 35.614C53.3383 34.4957 55.812 32.3721 57.7418 29.519C57.8319 29.4431 57.9328 29.378 58.0275 29.3068C58.0565 29.33 58.0764 29.3625 58.1054 29.3858C60.5348 31.2863 64.3577 30.3926 66.6465 27.3877C68.9369 24.3828 68.8238 20.4051 66.3944 18.5046C65.0804 17.4746 63.3569 17.2903 61.6869 17.7937C62.3026 9.12282 58.2109 1.57958 51.7019 0.214982C44.3923 -1.31845 36.8184 5.51538 34.7862 15.4796C32.9482 24.4834 36.2744 32.9405 42.325 35.6217" transform="translate(120 61)" id="Fill-90" fill="#E46F62" fill-rule="evenodd" stroke="none" />
    <path d="M2.45752 23.5099C2.79956 24.469 3.1741 25.4465 3.85817 26.2049C5.03751 27.5072 6.92258 27.9285 8.68848 27.9882C12.5685 28.1231 16.8649 26.473 18.3599 22.9293C18.0937 24.7984 18.8521 26.7825 20.3069 28.0051C21.7602 29.2277 23.8588 29.6506 25.6805 29.0883C24.0043 31.9104 25.6898 36.093 28.8656 37C29.042 32.0421 33.0629 27.4796 38 26.6369C37.4227 20.5423 35.6738 14.5595 32.8756 9.10214C31.7861 6.97559 30.5092 4.89195 28.7 3.31849C23.0541 -1.59493 15.7103 0.372279 8.96087 0.471865C6.98758 0.502507 4.875 0.432031 3.26386 1.74503C0.919128 3.65402 0.222672 7.4199 0.0431408 10.2221C-0.244728 14.7571 0.946986 19.2691 2.45752 23.5099" transform="translate(151 49)" id="Fill-91" fill="#101429" fill-rule="evenodd" stroke="none" />
    <path d="M18.4868 0.959762C22.2989 0.284949 26.1019 -0.588158 29.9734 0.552415C30.042 0.965911 30.0298 1.41476 30.1942 1.78368C31.9343 5.69114 30.7012 8.87306 27.9791 11.7998C26.3349 13.5675 24.581 15.1831 22.646 16.6065C18.0301 20.0052 13.4369 23.4254 9.42689 27.5726C8.03844 29.0114 6.39423 30.1397 4.4775 30.7499C3.24587 31.1388 1.99444 31.1757 1.00334 30.1135C-0.0181992 29.0222 -0.210024 27.7294 0.204074 26.3168C0.570977 25.064 1.39156 24.1155 2.26847 23.2178C4.45771 20.9813 6.59367 18.6848 8.88338 16.5573C13.5252 12.2425 16.057 6.64111 18.4868 0.959762" transform="translate(63 387)" id="Fill-92" fill="#EEA039" fill-rule="evenodd" stroke="none" />
    <path d="M13.5696 181C10.4158 180.235 10.138 179.975 9.77311 177.307C7.99927 164.344 -4.90456 92.5475 2.03203 66.9113C3.48072 61.2533 6.14148 56.16 9.51665 51.4586C12.8781 46.7785 35.0266 23.2712 41.2793 17.2291C46.7398 11.9521 51.7606 6.14876 56.4043 0.0775616C57.4423 0.0515444 58.4834 -0.0280378 59.5199 0.0102229C64.7346 0.204587 69.9493 0.649941 75.1609 0.600968C87.9059 0.478533 100.602 1.49627 113.321 1.93244C113.929 1.95233 114.53 2.20945 115.133 2.3579C118.979 10.9773 122.267 19.739 122.656 29.3424C122.813 33.2557 122.019 37.045 121.504 40.8619C120.679 46.9683 119.684 53.0563 118.006 59.0082C117.385 61.2135 117.722 61.6237 120.095 61.264C123.595 60.733 127.132 60.2677 130.548 59.3739C141.53 56.4998 152.793 54.7046 163.502 50.776C164.483 50.4148 165.475 50.1194 166.343 49.518C167.178 50.0781 167.503 50.9566 167.768 51.8595C168.851 55.5418 169.924 59.2285 171 62.9123C170.809 63.6852 170.263 64.1121 169.611 64.5116C159.368 70.7894 149.29 77.3595 138.859 83.3037C128.53 89.1882 118.482 95.6803 107.211 99.7665C101.805 101.725 95.4073 104.249 89.6706 102.327C77.3637 98.2024 79.3344 75.6669 78.4429 65.5048C78.0399 60.9059 76.7744 48.5033 75.7684 46.9209C74.4602 47.4397 73.6542 48.4268 72.7428 49.2532C60.5733 60.3014 47.6068 70.3532 34.2985 79.9628C28.3328 84.2724 28.3175 84.1867 28.145 91.5665C27.6809 111.45 27.8397 131.33 28.2061 151.213C28.3679 159.998 28.4869 168.798 28.0198 177.583C27.884 180.137 27.8168 180.134 25.0873 180.594C21.2054 179.459 17.3921 180.328 13.5696 181" transform="translate(68 206)" id="Fill-93" fill="#E46B49" fill-rule="evenodd" stroke="none" />
    <path d="M157 35.8782C156.571 35.6384 156.109 35.4566 155.638 35.3161C154.844 35.0809 154.006 34.9862 153.188 34.8228C149.103 34.0056 145.009 33.2221 140.933 32.3622C135.46 31.2075 130.311 29.1333 125.216 26.9324C125.155 26.9767 125.097 27.0225 125.031 27.0638C109.745 36.8419 92.0507 40.6069 74.1253 37.4926C60.6427 35.1496 46.1927 28.3238 41.3847 15.0022C41.3221 14.9991 41.2609 14.993 41.1998 14.9915C40.0536 14.9411 38.9135 14.7456 37.7688 14.7181C33.3352 14.6112 29.4946 12.9265 25.842 10.5438C21.6422 7.80223 17.7405 4.6742 13.7792 1.61947C10.4108 -0.977038 8.89629 -0.520357 7.35119 3.49049C5.84124 9.92984 4.32975 16.3677 2.8198 22.807C2.89163 24.3848 0.322574 38.9863 0.03067 44.8392C-0.126744 47.9978 0.224763 48.6301 3.40972 49.4411C10.7944 51.3228 18.1944 53.1572 25.7717 54.1255C28.2322 54.4386 28.2934 54.4692 28.4905 57C28.5715 58.0356 27.1716 99.7768 26.221 110.187C25.9612 113.025 26.137 113.288 28.9597 113.445C46.0154 116.605 119.078 119.049 122.623 117.545C125.607 117.386 126.963 116.091 127.252 113.147C127.678 108.796 130.073 77.4636 130.084 75.8003C130.091 74.4379 130.764 73.6253 132.219 73.7368C138.072 74.1844 153.803 73.0541 156.049 69.7092C155.408 58.4419 155.768 47.1348 157 35.8782" transform="translate(80 90)" id="Fill-94" fill="#FDE9D8" fill-rule="evenodd" stroke="none" />
    <path d="M59.7867 46.4702C54.4395 42.4159 49.4634 37.9213 44.3616 33.5734C35.1823 25.7537 6.91439 1.20162 7.22108 0C2.90745 1.70306 4.25536 2.65548 0 4.47931C1.64234 6.70827 3.09913 9.07328 4.75834 11.2793C18.4568 29.4977 33.4157 46.5329 50.8711 61.2901C53.9105 63.8585 57.1783 66.173 60.0872 68.8744C63.4471 71.9946 67.1765 74.3978 71.4533 76C72.9683 69.5547 74.4849 63.1109 76 56.6656C70.3354 53.6799 64.8916 50.341 59.7867 46.4702" transform="translate(11 37)" id="Fill-95" fill="#E46F62" fill-rule="evenodd" stroke="none" />
    <path d="M86.5101 0C85.9056 1.71137 84.8718 2.59575 83.0874 3.10001C76.845 4.86257 70.4808 5.96418 64.0862 6.86563C55.1017 8.1317 46.0273 8.26668 36.9835 8.76008C29.1835 9.18521 21.379 9.65533 13.5806 8.88265C9.33268 8.46218 5.10611 7.82915 0.868894 7.29231C0.279672 13.8585 -0.385676 20.4231 0.273582 27.0281C0.468467 28.9861 28.6978 28.1002 50.9604 23.3214C63.0249 20.7319 74.5338 16.2867 86.2345 11.0766C88.0341 8.17825 88.9674 4.34125 86.5101 0" transform="translate(238 127)" id="Fill-96" fill="#E46F62" fill-rule="evenodd" stroke="none" />
    <path d="M4.67849 20.5284C3.59743 16.8268 2.51943 13.1222 1.43222 9.42223C1.16541 8.51491 0.838786 7.63221 0 7.06936C0.624106 5.7453 1.11634 4.33973 1.89685 3.11717C4.35494 -0.733534 8.18392 -1.02572 11.3121 2.29136C12.9299 4.00295 14.2256 5.98828 14.6765 8.25348C15.8342 14.0634 19.5972 18.0894 23.5903 21.9755C25.4733 23.8085 27.3196 25.6493 28.7426 27.8745C29.7378 29.4308 30.23 31.1039 29.8957 32.9586C29.4756 35.3037 27.9115 36.3787 25.5899 35.8804C24.219 35.5852 23.0643 34.8593 22.1964 33.7536C21.3561 32.6864 20.4943 31.6145 19.8012 30.4504C18.5361 28.322 16.8539 26.6166 14.7593 25.3771C11.5421 23.4748 8.60561 20.9559 4.67849 20.5284" transform="translate(235 248)" id="Fill-97" fill="#EEA039" fill-rule="evenodd" stroke="none" />
    <path d="M2.05046 2.35993C0.47863 14.4935 -0.224104 26.6072 0.062726 38.855C0.160248 43.0407 6.29554 43.0559 6.19659 38.855C5.9241 27.2135 6.47051 15.6328 7.96633 4.0933C8.49696 -0.00706858 2.58826 -1.78156 2.05046 2.35993" transform="translate(234 122)" id="Fill-98" fill="#F7CFB7" fill-rule="evenodd" stroke="none" />
    <path d="M9.36766 2.27749C4.0923 19.4379 0.990529 37.0006 0.0058152 54.8729C-0.225051 59.0484 6.49362 59.0363 6.72291 54.8729C7.67622 37.5637 10.7387 20.6158 15.8445 4.00324C17.0789 -0.00986588 10.5974 -1.725 9.36766 2.27749" transform="translate(77 85)" id="Fill-99" fill="#F7CFB7" fill-rule="evenodd" stroke="none" />
    <path d="M0.0654226 9.9694C1.15423 8.69468 6.28247 13.9284 6.28247 13.9284C6.28247 13.9284 0.02181 6.6784 0.677503 5.56761C1.71217 3.81486 8.70072 12.1711 8.70072 12.1711C8.70072 12.1711 1.31966 2.87721 3.19199 1.70054C5.06433 0.523865 11.346 10.5669 11.346 10.5669C11.346 10.5669 6.01177 0.749087 7.78184 0.0289896C9.55191 -0.691108 15.9554 12.2431 15.9554 12.2431C15.9554 12.2431 17.53 5.09419 18.9813 5.32707C21.4266 5.72236 18.7015 21.0512 18.7015 21.0512L11.8739 26C11.8739 26 -1.02489 11.2426 0.0654226 9.9694" transform="translate(0 16)" id="Fill-100" fill="#E46F62" fill-rule="evenodd" stroke="none" />
    <path d="M19.967 11.105C19.0717 9.6747 13.3009 14.1447 13.3009 14.1447C13.3009 14.1447 20.4662 7.82739 19.9759 6.62262C19.2017 4.72278 11.165 12.0394 11.165 12.0394C11.165 12.0394 19.7189 3.84392 18.0404 2.39665C16.3619 0.947837 8.78702 10.0516 8.78702 10.0516C8.78702 10.0516 15.3978 1.03433 13.7567 0.0566159C12.1156 -0.919557 4.0206 11.0509 4.0206 11.0509C4.0206 11.0509 3.46309 3.68483 2.00432 3.70645C-0.457362 3.74198 0.092668 19.4364 0.092668 19.4364L0 25C0 25 20.8623 12.5353 19.967 11.105" transform="translate(323 113)" id="Fill-101" fill="#E46F62" fill-rule="evenodd" stroke="none" />
    <path d="M62.1599 3.87847C61.1693 3.23422 57.3683 1.93494 56.9539 1.93186C57.108 2.79034 57.3807 3.98327 57.3807 3.98327C57.3807 3.98327 57.8614 4.12969 58.0262 4.16977C64.8932 5.86053 68.5662 13.667 64.206 19.7704C61.1369 24.069 54.7738 25.2418 50.4767 28.0084C41.4528 33.8174 35.6628 47.3836 24.2847 48.9264C11.0623 50.7204 1.36512 34.0856 1.94751 22.5847C2.24024 16.8235 5.11058 11.3366 9.83439 7.97667C14.9634 4.32852 20.4221 5.04058 26.2121 6.21039C30.5615 7.08737 35.1606 7.90115 39.1433 5.4074C40.5746 4.51193 41.6408 3.35136 43.2108 2.65933C44.3278 2.16613 45.4171 1.99967 46.5294 1.98426C46.853 1.33847 47.1688 0.688063 47.4785 0.0345693C45.5157 -0.0841076 43.559 0.068477 41.8041 1.03639C38.4238 2.90285 36.5303 5.33496 32.2409 5.18391C28.6865 5.05907 25.2646 3.90005 21.7564 3.42534C9.70189 1.79006 0.026243 11.8899 5.0999e-05 23.6944C-0.0246003 35.1783 8.88994 50.2318 21.4714 50.9747C27.7806 51.3477 33.2609 47.5408 37.4917 43.2453C43.0074 37.6459 47.4338 31.5024 54.6058 27.8373C60.4482 24.8504 66.9808 22.8745 67.9114 15.3531C68.5061 10.5382 66.0533 6.23197 62.1599 3.87847" transform="translate(113 98)" id="Fill-102" fill="#E58933" fill-rule="evenodd" stroke="none" />
    <path d="M5.99226 3.21365C5.87444 4.86642 4.43763 6.1101 2.78644 5.99227C1.13361 5.87282 -0.110099 4.43769 0.00772627 2.78655C0.127188 1.13377 1.56236 -0.111534 3.21355 0.00792426C4.86802 0.125746 6.11009 1.56088 5.99226 3.21365" transform="translate(178 88)" id="Fill-103" fill="#E58933" fill-rule="evenodd" stroke="none" />
    <path d="M8 1.16277C7.50116 3.59356 5.61839 5.26557 3.55034 4.96512C1.48371 4.66636 -0.00568473 2.50378 1.63106e-05 0L8 1.16277" transform="translate(160 87)" id="Fill-104" fill="#FFFFFE" fill-rule="evenodd" stroke="none" />
    <path d="M0.139458 1.403C6.43386 12.052 5.21478 25.5463 5.07474 37.5384C4.91848 50.8038 3.98538 63.9373 0.761528 76.8268C0.466708 78.0046 2.23857 78.5064 2.53339 77.3286C6.03143 63.3431 6.85692 49.0696 6.9321 34.6779C6.99401 23.083 7.79887 10.7241 1.72559 0.44952C1.11236 -0.588854 -0.476715 0.358567 0.139458 1.403" transform="translate(177 208)" id="Fill-105" fill="#D64C2F" fill-rule="evenodd" stroke="none" />
    <path d="M1.18975 17.9694C21.0746 13.2005 40.7891 7.82916 60.3334 1.85853C61.5037 1.50014 61.0052 -0.312879 59.8257 0.0470154C40.2814 6.02066 20.5653 11.392 0.682045 16.1594C-0.512823 16.4455 -0.00665268 18.2556 1.18975 17.9694" transform="translate(179 263)" id="Fill-106" fill="#D64C2F" fill-rule="evenodd" stroke="none" />
    <path d="M6.98627 17.841C6.01756 11.7923 4.23378 6.02356 1.67005 0.475657C1.17252 -0.598657 -0.400537 0.336367 0.095526 1.40772C2.59487 6.81633 4.28207 12.4398 5.22737 18.3315C5.41321 19.5021 7.17211 19.0057 6.98627 17.841" transform="translate(138 238)" id="Fill-107" fill="#D64C2F" fill-rule="evenodd" stroke="none" />
    <path d="M53.6027 0.168648C45.2339 5.88336 36.5699 11.1533 28.2456 16.9401C19.6262 22.9309 6.86469 29.7759 2.30898 39.6502C-1.39648 47.6793 0.442408 59.0274 0.554648 67.5504C0.866767 91.3924 1.18042 115.234 1.49408 139.076C1.50946 140.306 3.42676 140.309 3.40985 139.076C3.12079 116.98 2.8302 94.8816 2.53961 72.785C2.43505 64.8909 1.95688 56.9032 2.22595 49.009C2.75025 33.7759 19.9676 24.9247 31.2392 17.1916C38.9208 11.9232 46.879 7.07201 54.5698 1.81895C55.5815 1.12723 54.6236 -0.530737 53.6027 0.168648" transform="translate(88 248)" id="Fill-108" fill="#D64C2F" fill-rule="evenodd" stroke="none" />
    <path d="M0 26L30 0" transform="translate(65 391)" id="Stroke-109" fill="none" fill-rule="evenodd" stroke="#E58933" stroke-width="1.496" />
    <path d="M0.333495 1.58593C5.46811 5.65072 5.9939 12.9101 9.53243 18.1901C12.7886 23.0482 23.3776 28.9675 23.0437 35.0747C22.9751 36.31 24.9207 36.3069 24.9878 35.0747C25.3466 28.53 17.7297 24.9535 13.8745 20.5945C8.51986 14.5397 8.08612 5.27644 1.70803 0.227402C0.742267 -0.538116 -0.643189 0.811168 0.333495 1.58593" transform="translate(238 248)" id="Fill-110" fill="#E58933" fill-rule="evenodd" stroke="none" />
  </g>
</svg>