<?xml version="1.0" encoding="utf-8"?>
<svg width="917px" height="562px" viewbox="0 0 917 562" version="1.1" xmlns:xlink="http://www.w3.org/1999/xlink" xmlns="http://www.w3.org/2000/svg">
  <g id="2975508" transform="translate(-165 0.7480469)">
    <path d="M32.4104 0.350507C20.8507 5.35805 7.08599 11.9957 1.8486 24.3158C-3.42583 36.7207 3.27908 49.5492 13.2122 57.2839C19.9465 62.5257 27.8905 65.8661 35.6216 69.3359C45.2847 73.6732 54.9509 78.0075 64.6155 82.3417C72.5611 85.907 81.428 89.0887 87.5018 95.5924C92.9367 101.412 95.3949 109.352 98.0059 116.683C101.47 126.41 105.493 137.77 116.07 141.726C127.882 146.147 141.099 138.543 144.774 126.887C148.956 113.623 141.92 101.218 131.58 93.2381C118.438 83.0966 103.126 77.5498 93.665 63.0557C83.2797 47.1471 86.5944 25.9999 72.5797 12.2346C62.1002 1.94368 46.9714 -2.35202 32.7298 1.26265C30.7499 1.76649 31.5894 4.82648 33.5754 4.32264C47.3741 0.817364 62.1774 5.45512 71.7695 15.971C82.0298 27.2202 80.4975 42.9007 86.3429 56.1715C91.0757 66.9154 98.8608 75.7363 108.555 82.2862C118.926 89.2952 132.455 94.5108 139.072 105.763C143.294 112.942 144.254 122.283 140.118 129.756C135.504 138.093 124.427 142.409 115.649 138.095C105.177 132.949 102.56 119.399 98.7821 109.49C95.2791 100.301 90.6698 92.5278 82.0962 87.2753C69.0551 79.2863 53.792 74.0292 39.8606 67.7797C24.937 61.085 2.2745 52.4181 3.13248 32.4604C3.80529 16.8014 21.6177 8.4581 34.0137 3.09002C35.8839 2.27957 34.2683 -0.455322 32.4104 0.350507" transform="translate(220 346)" id="Fill-3" fill="#60BFC2" fill-rule="evenodd" stroke="none" />
    <path d="M173.664 20.8909C170.159 11.2376 162.863 2.74642 152.828 0.276836C134.256 -1.22819 124.565 3.47214 114.963 12.6998C105.36 21.929 99.85 34.4805 94.498 46.6585C89.1444 58.8349 83.4589 71.3436 73.6262 80.3309C56.8464 95.669 30.9714 98.0804 14.6372 113.89C-1.69852 129.7 -4.15249 156.703 6.23346 176.896C16.621 197.089 37.8923 210.411 60.273 214.607C67.5489 215.971 75.0337 216.47 82.371 215.481C103.95 212.577 122.323 196.723 132.2 177.387C142.081 158.053 144.402 135.663 143.239 113.999C142.674 103.441 141.412 92.3542 145.779 82.7178C154.437 63.6133 176.562 57.0451 175.989 32.9694C175.894 28.9703 175.095 24.8334 173.664 20.8909" transform="translate(470 49)" id="Fill-4" fill="#60BFC2" fill-rule="evenodd" stroke="none" />
    <path d="M4.48807 89.4647C-1.40232 72.5086 15.9343 61.8917 30.6495 62.1356C42.3705 62.33 54.0423 66.9193 65.3888 61.8701C87.1347 52.193 88.4669 24.3238 105.547 10.1731C117.072 0.627173 135.059 1.23209 138.258 18.4783C140.782 32.0935 130.868 43.6579 121.321 51.8566C111.809 60.0276 101.922 67.049 94.0151 76.9482C86.5577 86.2843 80.2145 96.6249 71.4173 104.801C60.1031 115.317 43.5676 121.863 28.2062 117.644C14.1417 113.782 3.41988 100.72 3.97853 85.8815C4.06141 83.6995 0.688015 83.7026 0.606673 85.8815C-0.42008 113.115 28.4963 127.449 51.9888 120.076C65.9152 115.706 76.1643 105.95 84.9324 94.5834C89.8574 88.1978 94.3727 81.4882 99.6752 75.4005C105.345 68.8915 112.038 63.6864 118.743 58.3224C128.92 50.1792 139.964 40.1441 141.774 26.3978C143.097 16.3441 138.61 4.84614 128.584 1.17962C117.477 -2.88195 105.49 4.19339 98.3999 12.5171C88.1139 24.5954 84.6239 41.2521 73.084 52.4153C56.7327 68.2341 37.1815 54.3535 18.284 60.4288C5.64375 64.4919 -3.40672 77.0053 1.23439 90.3659C1.94652 92.4137 5.20634 91.5325 4.48807 89.4647" transform="translate(243 39)" id="Fill-5" fill="#60BFC2" fill-rule="evenodd" stroke="none" />
    <path d="M214.837 21.6113C205.71 6.25494 183.588 -3.17504 166.166 0.984157C139.936 7.24676 139.092 36.4257 135.887 58.4422C133.426 75.3462 127.906 92.7676 115.207 104.166C107.887 110.737 98.7349 114.81 89.8507 119.023C67.3053 129.714 45.1308 142.225 27.8773 160.271C10.6254 178.318 -1.31783 202.674 0.116637 227.622C0.476787 233.898 1.68444 240.171 4.20242 245.93C9.70276 258.523 21.0375 267.714 33.2213 274.033C50.3415 282.912 69.8953 287.022 89.135 285.784C107.043 284.631 125.208 278.508 137.84 265.738C155.945 247.433 159.537 219.633 161.743 193.958C163.95 168.284 166.523 140.622 183.412 121.185C188.636 115.174 195.011 110.261 200.302 104.307C216.133 86.4865 223.98 59.563 219.958 35.9988C219.004 30.4133 217.243 25.6615 214.837 21.6113" transform="translate(640 138)" id="Fill-6" fill="#60BFC2" fill-rule="evenodd" stroke="none" />
    <path d="M66.0432 0.358706C32.5337 -2.93765 -0.830353 20.9809 0.0157601 56.7097C0.36461 71.4451 7.56958 85.2259 19.3004 94.0653C34.0638 105.193 50.3419 103.431 67.5457 100.569C89.5431 96.9074 111.395 100.574 128.914 115.255C138.821 123.559 150.117 143.445 165.999 136.586C172.17 133.922 176.166 127.033 179.317 121.431C183.356 114.249 185.509 106.557 182.781 98.5096C177.334 82.4421 160.317 75.4765 146.444 68.6137C136.012 63.4528 126.715 57.474 121.51 46.6181C117.189 37.6084 113.926 28.9317 107.116 21.3691C95.2854 8.22974 78.5115 0.60271 60.9329 0.00114087C58.7694 -0.070986 58.7724 3.30056 60.9329 3.37422C76.9004 3.91901 92.0769 10.6038 103.225 22.1318C108.435 27.5198 112.261 33.6614 115.26 40.4889C118.135 47.0325 120.62 53.5285 125.643 58.7784C135.402 68.979 149.449 72.728 161.247 79.7965C167.803 83.7251 174.275 88.9704 177.944 95.8363C183.272 105.805 179.465 115.364 173.705 124.124C171.211 127.916 168.712 131.723 164.347 133.46C158.274 135.876 152.003 132.988 147.322 129.07C140.858 123.662 136.087 116.589 129.411 111.347C119.01 103.178 106.453 97.8865 93.359 96.134C77.1023 93.9594 62.0207 100.006 45.917 99.8293C29.7598 99.6513 15.18 89.7178 7.94444 75.3737C-0.871664 57.896 3.65573 35.7899 16.4576 21.5149C28.9198 7.61897 47.8541 1.94243 66.0432 3.73179C68.196 3.94203 68.1807 0.568948 66.0432 0.358706" transform="translate(742 0)" id="Fill-7" fill="#60BFC2" fill-rule="evenodd" stroke="none" />
    <path d="M206.847 7.68499C187.789 -3.33423 164.871 -1.90073 145.708 8.14751C125.679 18.6506 114.497 36.1803 105.993 56.4192C96.5083 78.9906 87.5533 106.06 60.5595 111.871C39.6902 116.364 20.8762 124.818 8.01319 142.718C-3.15672 158.26 -3.47446 179.236 12.3264 191.964C26.6338 203.49 47.6735 200.933 63.6816 194.765C71.8875 191.603 79.7481 187.284 86.4558 181.57C95.6042 173.777 101.124 162.959 108.096 153.384C124.942 130.244 151.541 124.738 177.009 115.589C199.633 107.461 222.889 93.3577 231.318 69.5779C239.742 45.8104 227.431 20.5665 206.847 7.68499C205.002 6.53177 203.308 9.44164 205.144 10.5918C225.838 23.5407 237.048 49.3482 226.536 72.4648C217.069 93.2873 195.745 105.395 175.042 112.722C156.148 119.409 135.717 123.878 119.579 136.413C102.889 149.379 96.4423 171.065 78.9192 183.095C64.2296 193.179 43.0901 200.219 25.3843 194.95C15.1477 191.906 6.76834 183.888 3.98085 173.443C1.22713 163.12 4.85885 152.826 10.925 144.417C16.9313 136.09 25.1848 129.315 34.0615 124.236C43.5813 118.792 53.3068 117.145 63.8013 114.588C82.2992 110.08 93.0147 94.2843 100.535 77.9231C109.758 57.8542 115.74 35.9521 132.981 20.905C152.646 3.73829 181.717 -2.95594 205.144 10.5918C207.025 11.6792 208.726 8.77237 206.847 7.68499" transform="translate(815 233)" id="Fill-8" fill="#60BFC2" fill-rule="evenodd" stroke="none" />
    <path d="M18.8943 0.669704C9.87637 -2.19472 -0.733111 4.14815 0.0398956 19.3399C0.433233 27.0408 3.60727 35.2016 10.376 38.9492C25.0935 47.0948 32.3011 29.143 30.8068 17.1983C29.6511 7.95628 24.5908 2.47698 18.8943 0.669704" transform="translate(971 364)" id="Fill-9" fill="#60BFC2" fill-rule="evenodd" stroke="none" />
    <path d="M2.27688 6.33464C14.8745 1.50544 29.3036 3.7513 39.7008 12.5276C41.5533 14.0924 44.2347 11.4001 42.367 9.82308C30.9762 0.209167 15.1906 -2.68866 1.27421 2.64831C-0.97461 3.50892 0.000836231 7.20752 2.27688 6.33464" transform="translate(132 402)" id="Fill-46" fill="#FCE3D6" fill-rule="evenodd" stroke="none" />
    <path d="M3.8256 9.6158C4.97107 6.05884 9.15568 5.20574 12.3061 4.67557C17.0673 3.87389 21.9027 3.66825 26.6037 4.91817C29.009 5.55919 30.0339 1.69698 27.6301 1.05595C21.7172 -0.515281 15.3128 -0.214851 9.37519 1.17966C5.26015 2.14682 1.5161 4.18396 0.109384 8.55224C-0.680543 11.0023 3.04031 12.053 3.8256 9.6158" transform="translate(173 404)" id="Fill-47" fill="#FCE3D6" fill-rule="evenodd" stroke="none" />
    <path d="M0.791656 1.71242C3.26077 5.05624 3.21965 9.28708 3.1183 13.3277C3.00813 17.702 2.84803 22.0747 2.7129 26.4458C2.58511 30.5613 2.45732 34.6768 2.32953 38.7922C2.21643 42.4665 3.09333 48.6631 0.290782 51.3631C-0.584646 52.2065 0.713807 53.5768 1.58483 52.7381C3.92175 50.4855 3.88797 47.3225 3.99372 44.1938C4.19495 38.2778 4.35946 32.3618 4.54307 26.4458C4.70905 21.0941 5.08213 15.6957 4.98372 10.3393C4.91322 6.64008 4.26693 3.29158 2.0857 0.337477C1.35863 -0.646184 0.0719247 0.738112 0.791656 1.71242" transform="translate(204 388)" id="Fill-48" fill="#FCE3D6" fill-rule="evenodd" stroke="none" />
    <path d="M18 8.99923C18 13.97 13.97 18 9.00077 18C4.03004 18 0 13.97 0 8.99923C0 4.02849 4.03004 0 9.00077 0C13.97 0 18 4.02849 18 8.99923" transform="translate(1063 264)" id="Fill-132" fill="#EE9E39" fill-rule="evenodd" stroke="none" />
    <path d="M8 3.99927C8 6.20885 6.20885 8 3.99927 8C1.79115 8 0 6.20885 0 3.99927C0 1.79115 1.79115 0 3.99927 0C6.20885 0 8 1.79115 8 3.99927" transform="translate(513 552)" id="Fill-136" fill="#EE9E39" fill-rule="evenodd" stroke="none" />
    <path d="M14 6.99925C14 10.8648 10.866 14 7 14C3.13399 14 0 10.8648 0 6.99925C0 3.13366 3.13399 0 7 0C10.866 0 14 3.13366 14 6.99925" transform="translate(540 287)" id="Fill-137" fill="#EE9E39" fill-rule="evenodd" stroke="none" />
    <path d="M14 7C14 10.8652 10.8663 14 6.99925 14C3.13366 14 0 10.8652 0 7C0 3.13332 3.13366 0 6.99925 0C10.8663 0 14 3.13332 14 7" transform="translate(315 511)" id="Fill-138" fill="#EE9E39" fill-rule="evenodd" stroke="none" />
    <path d="M8 4C8 6.21001 6.20851 8 4 8C1.79149 8 0 6.21001 0 4C0 1.79149 1.79149 0 4 0C6.20851 0 8 1.79149 8 4" transform="translate(539 2)" id="Fill-139" fill="#EE9E39" fill-rule="evenodd" stroke="none" />
    <path d="M13 6.5C13 10.0904 10.0889 13 6.5 13C2.90961 13 0 10.0904 0 6.5C0 2.90961 2.90961 0 6.5 0C10.0889 0 13 2.90961 13 6.5" transform="translate(467 278)" id="Fill-140" fill="#EE9E39" fill-rule="evenodd" stroke="none" />
    <path d="M6.5 13C2.91113 13 0 10.09 0 6.50076C0 2.90995 2.91113 0 6.5 0C10.0889 0 13 2.90995 13 6.50076C13 10.09 10.0889 13 6.5 13Z" transform="translate(632 499)" id="Fill-141" fill="#EE9E39" fill-rule="evenodd" stroke="none" />
    <path d="M9 4.5C9 6.98529 6.98529 9 4.5 9C2.01471 9 0 6.98529 0 4.5C0 2.01471 2.01471 0 4.5 0C6.98529 0 9 2.01471 9 4.5" transform="translate(789 250)" id="Fill-142" fill="#EE9E39" fill-rule="evenodd" stroke="none" />
    <path d="M14 7C14 10.866 10.866 14 7 14C3.13398 14 0 10.866 0 7C0 3.13398 3.13398 0 7 0C10.866 0 14 3.13398 14 7" transform="translate(1003 41)" id="Fill-143" fill="#EE9E39" fill-rule="evenodd" stroke="none" />
    <path d="M9 4.5008C9 6.98565 6.98405 9 4.4992 9C2.01435 9 0 6.98565 0 4.5008C0 2.01435 2.01435 0 4.4992 0C6.98405 0 9 2.01435 9 4.5008" transform="translate(976 451)" id="Fill-144" fill="#EE9E39" fill-rule="evenodd" stroke="none" />
    <path d="M10 5C10 7.76074 7.76193 10 4.99923 10C2.23807 10 0 7.76074 0 5C0 2.23773 2.23807 0 4.99923 0C7.76193 0 10 2.23773 10 5" transform="translate(804 441)" id="Fill-145" fill="#EE9E39" fill-rule="evenodd" stroke="none" />
    <path d="M10 5.00151C10 7.76185 7.76034 10 5 10C2.23664 10 0 7.76185 0 5.00151C0 2.23966 2.23664 0 5 0C7.76034 0 10 2.23966 10 5.00151" transform="translate(475 471)" id="Fill-150" fill="#EE9E39" fill-rule="evenodd" stroke="none" />
    <path d="M8 4C8 6.20835 6.20801 8 3.99925 8C1.79048 8 0 6.20835 0 4C0 1.79165 1.79048 0 3.99925 0C6.20801 0 8 1.79165 8 4" transform="translate(278 246)" id="Fill-151" fill="#E46F62" fill-rule="evenodd" stroke="none" />
    <path d="M11 5.50151C11 8.53709 8.53743 11 5.49924 11C2.46257 11 0 8.53709 0 5.50151C0 2.46291 2.46257 0 5.49924 0C8.53743 0 11 2.46291 11 5.50151" transform="translate(387 441)" id="Fill-152" fill="#E46F62" fill-rule="evenodd" stroke="none" />
    <path d="M6 3.00074C6 4.65749 4.65716 6 3 6C1.34284 6 0 4.65749 0 3.00074C0 1.34399 1.34284 0 3 0C4.65716 0 6 1.34399 6 3.00074" transform="translate(533 214)" id="Fill-153" fill="#E46F62" fill-rule="evenodd" stroke="none" />
    <path d="M9 4.50077C9 6.98565 6.98411 9 4.49923 9C2.01435 9 0 6.98565 0 4.50077C0 2.01589 2.01435 0 4.49923 0C6.98411 0 9 2.01589 9 4.50077" transform="translate(418 10)" id="Fill-154" fill="#E46F62" fill-rule="evenodd" stroke="none" />
    <path d="M9 4.5008C9 6.98477 6.986 9 4.5 9C2.01559 9 0 6.98477 0 4.5008C0 2.01523 2.01559 0 4.5 0C6.986 0 9 2.01523 9 4.5008" transform="translate(602 86)" id="Fill-155" fill="#E46F62" fill-rule="evenodd" stroke="none" />
    <path d="M8 4C8 6.20917 6.20917 8 4 8C1.79083 8 0 6.20917 0 4C0 1.79083 1.79083 0 4 0C6.20917 0 8 1.79083 8 4" transform="translate(714 6)" id="Fill-156" fill="#E46F62" fill-rule="evenodd" stroke="none" />
    <path d="M8 4C8 6.21011 6.21011 8 4 8C1.79135 8 0 6.21011 0 4C0 1.79135 1.79135 0 4 0C6.21011 0 8 1.79135 8 4" transform="translate(765 272)" id="Fill-157" fill="#E46F62" fill-rule="evenodd" stroke="none" />
    <path d="M11 5.50077C11 8.53885 8.53731 11 5.49923 11C2.46269 11 0 8.53885 0 5.50077C0 2.46422 2.46269 0 5.49923 0C8.53731 0 11 2.46422 11 5.50077" transform="translate(640 412)" id="Fill-158" fill="#E46F62" fill-rule="evenodd" stroke="none" />
    <path d="M10 4.99919C10 7.76139 7.76139 10 4.99919 10C2.23861 10 0 7.76139 0 4.99919C0 2.23861 2.23861 0 4.99919 0C7.76139 0 10 2.23861 10 4.99919" transform="translate(1053 211)" id="Fill-159" fill="#E46F62" fill-rule="evenodd" stroke="none" />
    <path d="M10 5C10 7.76011 7.76131 10 4.99923 10C2.23715 10 0 7.76011 0 5C0 2.23989 2.23715 0 4.99923 0C7.76131 0 10 2.23989 10 5" transform="translate(930 10)" id="Fill-160" fill="#E46F62" fill-rule="evenodd" stroke="none" />
    <path d="M4 2.00081C4 3.10375 3.10501 4 2 4C0.894992 4 0 3.10375 0 2.00081C0 0.896245 0.894992 0 2 0C3.10501 0 4 0.896245 4 2.00081" transform="translate(952 427)" id="Fill-161" fill="#E46F62" fill-rule="evenodd" stroke="none" />
    <path d="M8 4.00149C8 6.20896 6.21078 8 4.00075 8C1.7922 8 0 6.20896 0 4.00149C0 1.79104 1.7922 0 4.00075 0C6.21078 0 8 1.79104 8 4.00149" transform="translate(1040 346)" id="Fill-162" fill="#E46F62" fill-rule="evenodd" stroke="none" />
    <path d="M1 1L1 1" transform="translate(558 68)" id="Fill-176" fill="#FCE3D6" fill-rule="evenodd" stroke="none" />
  </g>
</svg>