<?xml version="1.0" encoding="utf-8"?>
<svg width="325px" height="448px" viewbox="0 0 325 448" version="1.1" xmlns:xlink="http://www.w3.org/1999/xlink" xmlns="http://www.w3.org/2000/svg">
  <g id="Group">
    <path d="M25.9173 37.1232C24.6417 24.5829 22.3453 12.2521 17.8049 0.429981C14.7393 0.352923 11.6769 0.184938 8.61441 0C8.96652 2.3071 9.09161 4.65273 9.20126 7.01378C9.39585 11.2211 9.58272 15.4362 10.0167 19.6235C11.0298 29.3651 12.1726 39.0959 13.3046 48.8252C13.4946 50.4665 13.178 51.926 12.4537 53.3947C8.86768 60.6689 5.86237 68.2252 1.75747 75.2513C1.01927 76.5119 0.576044 77.9452 0 79.2999C0.0509637 79.6035 0.0185322 79.958 0.165246 80.2092C3.30646 85.5847 6.53416 90.9125 9.12095 96.5916C9.19972 96.7627 9.42519 96.8659 9.58117 97C12.2946 94.6806 13.9409 91.6198 15.4729 88.4882C18.072 83.1805 20.248 77.6894 22.3406 72.1705C24.6247 66.1462 26.3853 59.9862 26.8841 53.501C27.3088 47.9853 26.4702 42.5635 25.9173 37.1232" transform="translate(226 21)" id="Fill-50" fill="#E46F62" fill-rule="evenodd" stroke="none" />
    <path d="M276.695 83.2358C275.661 74.1716 271.083 64.7908 261.095 63.4389C255.581 62.6895 249.96 64.4651 245.184 67.3172C234.185 73.8841 216.368 94.8204 205.548 76.3356C201.866 70.044 200.034 62.3393 198.5 55.2785C195.049 39.4042 191.931 23.4581 188.045 7.68173C187.504 6.16618 186.977 4.64911 186.474 3.12438C173.616 5.52081 160.59 6.37264 147.545 6.90943C135.296 7.4141 123.324 5.62328 111.65 1.86117C109.56 1.18827 107.441 0.617842 105.334 0C87.4769 21.9517 75.322 46.8107 62.3464 71.7369C50.5697 94.3585 32.6222 112.854 18.5947 133.991C6.17186 152.708 -9.23687 181.202 7.02628 202.196C9.30934 204.753 11.4178 207.466 14.0638 209.685C16.7894 211.973 19.7569 213.853 23.0521 215.208C24.6017 215.439 26.1452 215.781 27.704 215.888C43.2903 216.963 55.3763 210.213 64.7765 198.476C70.7957 190.959 75.3542 182.456 79.2419 173.574C86.4188 157.175 92.3676 140.302 98.8738 123.648C103.287 112.352 108.958 101.848 116.52 92.3368C119.117 89.0671 122.155 86.4688 125.807 84.522C135.421 79.3927 143.212 86.1109 146.702 94.9152C153.926 113.146 159.72 132.377 173.908 146.701C181.929 154.798 192.669 160.698 204.071 160.997C228.034 161.622 252.949 139.837 267.204 122.444C273.332 114.969 278.301 97.33 276.695 83.2358" transform="translate(21 218)" id="Fill-51" fill="#101429" fill-rule="evenodd" stroke="none" />
    <path d="M108.445 0C108.127 0.25809 107.793 0.565341 107.432 0.927896C105.961 2.40577 104.516 3.92973 102.902 5.23708C99.3242 8.13752 96.0822 11.3759 93.1011 14.8709C92.2346 15.8864 91.2963 16.0953 90.1093 16.123C86.3685 16.2075 82.6291 16.2612 78.8928 16.5777C76.8271 16.7528 73.4829 14.7711 72.2745 17.0109C72.1342 17.2736 72.7933 19.0772 72.4073 19.2062C72.0518 24.242 68.4131 27.6264 63.409 27.5757C58.7497 27.5281 55.5977 24.0208 55.4238 18.6885C54.7571 17.3074 53.6098 17.1876 52.2672 17.375C46.4667 18.1831 40.6159 17.6162 34.8169 17.9772C31.1401 18.2077 27.4312 14.4193 24.8437 12.2132C19.507 7.66589 14.4953 6.46762 8.86566 2.33049C8.30575 1.91878 7.80534 1.25819 6.74044 1.66222C5.84641 5.18178 4.92186 8.82576 3.99885 12.4682C2.74935 18.9389 1.49832 25.4111 0.248812 31.8803C-0.587241 34.7454 0.779737 36.6888 2.91412 38.2987C3.83103 38.9916 4.75862 39.6691 5.70452 40.322C10.6583 43.7448 16.1369 46.0399 21.8809 47.6683C23.6415 48.1676 24.1709 48.9726 24.0794 50.7547C23.8307 55.6876 23.5271 60.6159 22.8421 65.5027C21.6338 74.1333 20.2836 82.7333 17.1713 90.9476C14.3504 98.3923 12.0268 106.027 8.49188 113.197C7.15083 115.916 7.75194 117.393 10.4371 118.866C11.8041 119.616 13.2183 120.275 14.6112 120.975C16.7105 121.596 18.822 122.169 20.903 122.845C32.5361 126.624 44.4636 128.423 56.6687 127.916C70.6391 127.337 84.5865 126.395 98.3295 123.548C105.489 120.061 106.126 118.577 104.167 110.716C101.906 101.641 100.209 92.467 99.9253 83.0805C99.6156 72.8921 100.481 62.7251 100.499 52.5459C100.504 49.9082 101.501 48.5932 103.714 47.5239C106.617 46.1229 109.484 44.6281 112.089 42.6479C117.499 38.5353 120.845 32.8988 123.901 26.9981C124.893 25.0854 125.311 23.245 124.746 21.4338C119.766 13.9676 114.204 6.8778 108.445 0" transform="translate(112 97)" id="Fill-52" fill="#EE9E39" fill-rule="evenodd" stroke="none" />
    <path d="M37.5878 84.8426C34.7412 81.047 31.6969 77.4258 28.415 74.0065C25.6405 71.1178 23.2109 67.9376 20.6372 64.8793C19.5872 63.6316 18.8713 62.2821 18.8069 60.621C18.5187 53.1317 16.9797 45.7843 16.3344 38.3242C15.6155 30.036 14.3094 21.7986 13.1858 13.549C12.8271 10.9101 13.2686 2.52009 14.1546 0C11.3632 1.06726 7.69964 7.1963 4.94352 6.61332C4.97724 7.46774 4.93892 8.3345 4.7749 9.24137C3.12399 18.3701 1.3903 27.4866 0.453705 36.7326C-0.55953 46.7312 -0.0797379 56.5371 4.00233 65.891C6.10851 70.7199 8.29134 75.5149 10.4864 80.3021C10.9662 81.3493 11.5993 82.3333 12.2462 83.2895C18.951 93.1864 27.6532 101.044 37.2337 108C38.4907 101.505 39.7461 95.0078 41 88.5117C39.507 87.6264 38.5918 86.1798 37.5878 84.8426" transform="translate(75 21)" id="Fill-53" fill="#E46F62" fill-rule="evenodd" stroke="none" />
    <path d="M24.5802 37.6065C24.2269 42.6564 20.6103 46.0503 15.6365 45.9994C11.0054 45.9517 7.87258 42.4346 7.69971 37.0873C10.7249 35.462 12.3293 32.1252 11.7712 28.7591C11.6347 27.9287 11.1495 27.4866 10.5232 27.0876C8.92344 26.0693 7.61479 24.7305 6.617 23.1207C5.46303 21.2612 4.95655 19.0228 2.06328 18.6962C0.48926 18.519 -0.0414774 16.5086 0.00249801 14.8525C0.0586046 12.7311 0.713686 10.9195 3.05045 10.3402C4.55168 11.3431 5.62983 10.9718 6.0984 9.22793C6.48811 7.78134 7.27209 7.16974 8.77028 7.21134C9.6786 7.23599 10.5915 6.76612 11.5119 6.7276C15.7502 6.54736 18.4934 4.43988 19.7854 0.340463C19.8293 0.203353 20.1129 0.144812 20.3737 0C22.1434 0.801089 22.7711 2.4541 23.1351 4.22728C23.6006 6.49036 23.8918 8.79195 24.38 11.0489C25.0033 13.9235 25.8464 14.3534 28.7821 13.5261C31.1189 14.8355 31.3281 16.9476 30.6867 19.2215C30.0862 21.3552 28.6002 22.5953 26.3468 22.5106C25.1504 22.4644 24.4058 22.8911 23.8629 23.9279C23.5763 24.4779 23.1427 24.9462 22.7924 25.4638C22.0645 26.5376 20.4313 27.0229 20.6406 28.699C20.9378 31.0853 21.1713 33.5086 22.7605 35.479C23.3459 36.2046 23.9721 36.8978 24.5802 37.6065" transform="translate(159 80)" id="Fill-54" fill="#E46F62" fill-rule="evenodd" stroke="none" />
    <path d="M27.969 3.84958C30.2528 6.38434 32.362 9.07533 35.0088 11.2764C37.7353 13.5457 40.7037 15.4099 44 16.7539C43.1821 16.9269 42.7823 17.3971 42.7011 18.2526C42.5525 19.7984 42.4101 21.3562 42.0838 22.8701C40.7359 29.141 36.6585 31.6879 30.5545 28.8391C27.1572 27.2525 24.7891 24.3794 22.0902 21.9691C19.1738 19.366 16.1135 17.121 12.566 15.4782C9.53013 14.0705 6.53867 12.5718 3.81527 10.6013C2.62053 9.73671 1.48705 8.80987 0.747232 7.52657C-1.13985 4.24853 0.707407 0.547272 4.49076 0.0846147C5.94283 -0.0943805 7.40563 0.0209046 8.86076 0.333388C13.8726 1.40888 18.8997 2.40397 23.9115 3.47642C25.2594 3.76464 26.6104 3.80256 27.969 3.84958" transform="translate(0 418)" id="Fill-55" fill="#3C8CBF" fill-rule="evenodd" stroke="none" />
    <path d="M18.9957 25.6973C18.5279 23.4554 18.1629 21.1859 17.5771 18.9747C15.3272 10.4879 10.4625 5.53887 1.22998 5.50969C0.818964 5.50969 0.409482 5.38992 0 5.32543C2.88018 1.57874 6.68821 -0.279246 11.395 0.0340014C14.3518 0.230549 17.1124 1.1964 19.6229 2.86859C21.8927 4.37954 24.0521 6.02717 26.2191 7.67632C30.0762 10.6107 34.5851 12.438 38.7658 14.8242C40.4068 15.7624 42.1046 16.6008 43.4818 17.9168C46.8834 21.1629 46.8665 24.6086 43.2625 27.5906C40.8255 29.6067 37.9499 30.3791 34.7462 29.8263C29.3754 28.8973 24.0352 27.8823 18.9957 25.6973" transform="translate(279 276)" id="Fill-56" fill="#3C8CBF" fill-rule="evenodd" stroke="none" />
    <path d="M28.0342 16.3367C27.6589 16.3367 27.3018 16.4361 26.9584 16.5774C26.8065 7.38536 21.7573 0 15.5396 0C9.95556 0 5.3151 5.95148 4.31073 13.8169C4.12232 13.7749 3.9339 13.733 3.73789 13.733C1.67445 13.733 0 16.1627 0 19.1594C0 22.1561 1.67445 24.5858 3.73789 24.5858C4.24843 24.5858 4.73618 24.4351 5.17987 24.1648C6.67502 30.9287 10.9478 34 15.5396 34C19.6011 34 23.1597 30.8417 25.1882 26.0942C25.9085 27.1755 26.9143 27.8528 28.0342 27.8528C30.2237 27.8528 32 25.2755 32 22.0939C32 18.9139 30.2237 16.3367 28.0342 16.3367" transform="translate(159 75)" id="Fill-57" fill="#E46F62" fill-rule="evenodd" stroke="none" />
    <path d="M32.0791 44.3883C30.7662 44.0171 29.2422 44.7363 28.6618 46C27.8267 42.7704 27.1996 39.4852 26.7865 36.1721C25.6906 38.1844 23.336 39.196 21.0915 39.2625C18.8439 39.3274 16.6566 38.602 14.5206 37.8859C14.7859 39.4852 14.4814 41.2129 13.5317 42.509C12.5805 43.8052 10.951 44.5987 9.38776 44.3543C7.89239 44.1192 6.61107 42.9622 6.0292 41.53C5.44734 40.0962 5.52271 38.435 6.06237 36.9842C3.83589 36.8094 1.83854 35.2255 0.845145 33.1746C-0.14976 31.1221 -0.213073 28.6783 0.377841 26.4695C0.587374 25.6854 0.887353 24.9058 1.424 24.3088C2.44001 23.1812 4.06351 22.9384 5.55286 22.7976C3.37009 21.1859 2.25158 18.2905 2.87415 15.6054C3.49521 12.9203 5.79857 10.7317 8.45466 10.3017C9.45409 10.1393 10.5093 10.2135 11.4288 10.645C12.3499 11.0781 13.1217 11.8932 13.393 12.894C12.9197 11.1586 12.5217 9.12616 12.5775 7.32423C12.6348 5.52385 13.1729 3.68634 14.3532 2.35152C15.3979 1.17137 16.8782 0.458334 18.4052 0.159817C22.2251 -0.588797 26.4067 1.34925 28.3829 4.78606C30.4858 8.44251 30.0577 13.027 29.3552 17.2124C28.9256 19.7661 28.4191 22.3073 27.8357 24.8285C28.3799 23.6189 30.0516 23.489 31.1189 24.25C32.1847 25.011 32.6972 26.3443 33.059 27.6234C34.6508 33.2535 34.1564 38.9268 32.0791 44.3883" transform="translate(156 48)" id="Fill-58" fill="#EE9E39" fill-rule="evenodd" stroke="none" />
    <path d="M19.9486 10.6618C18.9495 9.29351 13.4546 14.2059 13.4546 14.2059C13.4546 14.2059 20.2223 7.33656 19.6465 6.16547C18.7341 4.31639 11.1603 12.252 11.1603 12.252C11.1603 12.252 19.1918 3.39801 17.403 2.06975C15.6128 0.743031 8.62827 10.4353 8.62827 10.4353C8.62827 10.4353 14.6511 0.900203 12.9326 0.041919C11.2127 -0.816365 3.90212 11.7898 3.90212 11.7898C3.90212 11.7898 2.82977 4.44428 1.36407 4.57372C-1.10968 4.79253 0.536992 20.4928 0.536992 20.4928L7.01749 26C7.01749 26 20.9491 12.0286 19.9486 10.6618" transform="translate(234 0)" id="Fill-59" fill="#E46F62" fill-rule="evenodd" stroke="none" />
    <path d="M0.0719369 9.68048C1.19802 8.44679 6.15961 13.8114 6.15961 13.8114C6.15961 13.8114 0.127049 6.40325 0.813719 5.31942C1.89809 3.60588 8.62477 12.1373 8.62477 12.1373C8.62477 12.1373 1.53465 2.66131 3.43826 1.54721C5.34186 0.433103 11.3119 10.622 11.3119 10.622C11.3119 10.622 6.27877 0.685896 8.0662 0.0243962C9.85511 -0.638617 15.8609 12.4324 15.8609 12.4324C15.8609 12.4324 17.6453 5.36483 19.0842 5.64185C21.5136 6.10808 18.3409 21.2832 18.3409 21.2832L11.3804 26C11.3804 26 -1.05265 10.9142 0.0719369 9.68048" transform="translate(69 8)" id="Fill-60" fill="#E46F62" fill-rule="evenodd" stroke="none" />
    <path d="M9.39204 2.75685C7.27879 14.8625 4.22893 26.6991 0.222064 38.3432C-1.38131 43.0036 6.16961 45.0028 7.76514 40.3684C11.772 28.7275 14.8234 16.8893 16.9351 4.7821C17.7729 -0.0158316 10.2361 -2.07624 9.39204 2.75685" transform="translate(106 94)" id="Fill-61" fill="#E58933" fill-rule="evenodd" stroke="none" />
    <path d="M0.603967 5.66973C6.33809 14.8343 12.0707 23.9989 17.8033 33.1635C19.8067 31.613 21.8102 30.0655 23.8153 28.515C23.5681 28.2751 23.3224 28.0351 23.0768 27.7952C19.5473 24.3481 14.1294 29.7656 17.6635 33.2188C17.9092 33.4588 18.1564 33.6988 18.402 33.9387C21.4494 36.9167 26.7752 33.0681 24.4125 29.2918C18.6799 20.1272 12.9473 10.9627 7.21471 1.79809C4.6048 -2.37504 -2.02129 1.47045 0.603967 5.66973" transform="translate(218 91)" id="Fill-62" fill="#E58933" fill-rule="evenodd" stroke="none" />
    <path d="M9 0.411303C8.60793 2.53054 6.61891 4.10137 4.29361 3.99489C1.96671 3.88988 0.16097 2.14549 0 0L9 0.411303" transform="translate(168 99)" id="Fill-63" fill="#FFFFFE" fill-rule="evenodd" stroke="none" />
    <path d="M22.7614 0.647265C16.359 8.20493 9.08179 14.7644 0.884589 20.2767C-1.18573 21.6702 0.755389 25.0711 2.84283 23.6667C11.3062 17.9748 18.8901 11.2311 25.5058 3.42313C27.1231 1.51482 24.3912 -1.27522 22.7614 0.647265" transform="translate(150 171)" id="Fill-64" fill="#E58933" fill-rule="evenodd" stroke="none" />
    <path d="M7.55797 0.843327C5.4378 3.99458 3.08253 6.93242 0.529669 9.68334C-1.11022 11.4513 1.43255 14.1976 3.07244 12.4296C5.84453 9.4419 8.36133 6.22366 10.6632 2.80293C12.0248 0.779461 8.90652 -1.16145 7.55797 0.843327" transform="translate(181 152)" id="Fill-65" fill="#E58933" fill-rule="evenodd" stroke="none" />
    <path d="M8.26422 0.485905C-1.4126 20.3862 -0.561521 45.506 0.871073 67.0819C0.952848 68.3014 2.84127 68.3106 2.75798 67.0819C1.35113 45.9008 0.415248 20.9447 9.89368 1.44993C10.4283 0.351247 8.80031 -0.615841 8.26422 0.485905" transform="translate(136 224)" id="Fill-66" fill="#3F8ABC" fill-rule="evenodd" stroke="none" />
    <path d="M4.04063 0.689584C-1.27207 23.5591 -1.04367 47.2602 2.96458 70.3053C3.17689 71.5218 5.10863 71.0059 4.89793 69.7956C0.950802 47.1062 0.743312 23.7162 5.97237 1.19927C6.25224 -0.00487956 4.32049 -0.519183 4.04063 0.689584" transform="translate(152 225)" id="Fill-67" fill="#3F8ABC" fill-rule="evenodd" stroke="none" />
    <path d="M0.903233 2.32226C12.6657 1.05308 23.3269 2.62803 30.348 13.1088C34.7997 19.7528 37.2568 27.5876 39.1452 35.318C39.4364 36.5134 41.2611 36.0063 40.9683 34.8078C38.7508 25.733 35.6824 16.1757 29.6018 8.93246C22.2243 0.143443 11.6965 -0.756971 0.903233 0.406192C-0.295003 0.535261 -0.307137 2.45287 0.903233 2.32226" transform="translate(132 291)" id="Fill-68" fill="#3F8ABC" fill-rule="evenodd" stroke="none" />
    <path d="M0.0940785 1.48622C6.1862 15.2142 17.5375 38.8012 36.3286 33.1383C37.5074 32.7829 37.0049 30.9077 35.8184 31.2646C18.0462 36.6221 7.51404 13.4995 1.74774 0.505762C1.24211 -0.633687 -0.408475 0.353004 0.0940785 1.48622" transform="translate(181 225)" id="Fill-69" fill="#3F8ABC" fill-rule="evenodd" stroke="none" />
    <path d="M32.1986 0.476109C28.5763 7.22829 24.8994 14.1614 19.3254 19.6164C16.4713 22.4101 13.2363 24.7049 9.50779 26.2424C6.50847 27.4772 3.25621 27.6141 0.467672 29.2246C-0.609647 29.8451 0.367747 31.4845 1.44975 30.8609C4.62082 29.0299 8.76616 28.8703 12.1152 27.205C15.3066 25.6174 18.181 23.4244 20.7025 20.9577C26.3952 15.3857 30.1783 8.33085 33.8802 1.43267C34.4594 0.352927 32.781 -0.608195 32.1986 0.476109" transform="translate(104 222)" id="Fill-70" fill="#3F8ABC" fill-rule="evenodd" stroke="none" />
    <path d="M114.313 0.229421C92.2655 17.9746 79.5533 43.2029 67.9887 68.3394C61.5454 82.343 55.0373 96.6252 45.2204 108.685C35.1521 121.052 18.4045 135.22 1.20029 131.36C-0.00445469 131.09 -0.519671 132.928 0.689699 133.199C29.5094 139.667 52.0031 105.472 62.6329 84.1533C77.3891 54.5576 88.9922 23.0536 115.672 1.5776C116.633 0.804809 115.267 -0.538782 114.313 0.229421" transform="translate(30 293)" id="Fill-71" fill="#3F8ABC" fill-rule="evenodd" stroke="none" />
    <path d="M0.0203047 1.19446C1.60073 9.43494 3.18115 17.6739 4.76157 25.9144C5.71738 30.8969 5.70226 40.6126 8.85705 44.6341C11.8667 48.469 18.394 50.316 22.116 53.655C28.4089 59.2987 32.6526 66.497 33.1139 75.0818C33.1789 76.3015 35.0648 76.3106 34.9983 75.0818C34.3979 63.9109 27.8554 55.0216 18.9642 48.7704C15.8018 46.547 11.3812 45.1636 9.64802 41.4022C8.00257 37.8275 7.8725 32.1456 7.13749 28.3154C5.37105 19.1062 3.60461 9.89708 1.83817 0.68794C1.60678 -0.516379 -0.211087 -0.00680058 0.0203047 1.19446" transform="translate(207 257)" id="Fill-72" fill="#3F8ABC" fill-rule="evenodd" stroke="none" />
    <path d="M1.6088 35.6938C9.61329 26.7381 18.6493 18.8963 28.8613 12.5111C39.1178 6.09995 55.4666 -4.14567 66.3503 6.15657C67.245 7.00272 68.6024 5.65622 67.7062 4.80701C58.5503 -3.85954 46.323 0.868505 36.5629 5.92246C22.7522 13.0727 10.5864 22.7858 0.252942 34.3443C-0.563341 35.2593 0.78637 36.6119 1.6088 35.6938" transform="translate(239 285)" id="Fill-73" fill="#3F8ABC" fill-rule="evenodd" stroke="none" />
    <path d="M0.627885 1.96976C9.13679 5.54647 17.2497 10.0217 24.6629 15.6807C29.8453 19.6373 34.2721 25.1056 41.0898 24.9984C42.3019 24.9795 42.3049 23.0138 41.0898 23.0343C33.7295 23.1478 25.1496 13.3288 19.0392 9.38484C13.3399 5.70568 7.3398 2.68542 1.12965 0.0750058C0.00520787 -0.397895 -0.48447 1.50159 0.627885 1.96976" transform="translate(0 420)" id="Fill-74" fill="#FCE3D6" fill-rule="evenodd" stroke="none" />
    <path d="M0.057617 1.11263C1.11282 4.04059 1.81228 7.03309 2.12299 10.1253C2.24007 11.2857 4.11181 11.2974 3.99473 10.1253C3.66751 6.8688 2.97405 3.71494 1.86181 0.625615C1.46405 -0.476037 -0.343149 -0.00222374 0.057617 1.11263" transform="translate(14 414)" id="Fill-75" fill="#FCE3D6" fill-rule="evenodd" stroke="none" />
    <path d="M0.0212617 1.18684C0.845997 5.12024 2.21044 8.88052 4.07747 12.5102C4.64416 13.6158 6.45723 12.6545 5.89223 11.5549C4.10109 8.07257 2.83953 4.45354 2.04852 0.682639C1.79723 -0.512568 -0.228351 -0.00684538 0.0212617 1.18684" transform="translate(18 414)" id="Fill-76" fill="#FCE3D6" fill-rule="evenodd" stroke="none" />
    <path d="M0.902684 1.96123C8.32903 2.78883 13.7838 10.7874 20.3617 14.1777C26.9078 17.5492 33.8135 19.5602 39.3609 24.7374C40.2624 25.5791 41.6041 24.2014 40.6996 23.3565C34.4753 17.5477 26.5314 15.5978 19.3615 11.4441C12.8883 7.69486 8.65534 0.870304 0.902684 0.00665501C-0.305444 -0.128143 -0.296337 1.828 0.902684 1.96123" transform="translate(282 275)" id="Fill-77" fill="#FCE3D6" fill-rule="evenodd" stroke="none" />
    <path d="M0.474616 1.85981C8.28564 6.39322 15.5581 11.675 22.3077 17.7403C23.2458 18.583 24.6273 17.1774 23.6845 16.3299C16.8131 10.1559 9.41109 4.75415 1.45646 0.137596C0.36691 -0.495642 -0.614931 1.22657 0.474616 1.85981" transform="translate(120 103)" id="Fill-78" fill="#FCE3D6" fill-rule="evenodd" stroke="none" />
    <path d="M0.921109 2.53199C9.99141 1.96126 19.031 2.11627 28.0829 2.99528C29.3088 3.11506 29.3026 0.91843 28.0829 0.800407C19.031 -0.0785971 9.99141 -0.233612 0.921109 0.335363C-0.303198 0.41287 -0.310869 2.6095 0.921109 2.53199" transform="translate(141 118)" id="Fill-79" fill="#FCE3D6" fill-rule="evenodd" stroke="none" />
    <path d="M0.490082 1.83765C8.12129 5.76834 15.0798 10.7258 21.3363 16.7259C22.2456 17.5973 23.611 16.1893 22.6987 15.3148C16.3246 9.20089 9.24238 4.12014 1.46273 0.11417C0.35555 -0.456052 -0.621739 1.26583 0.490082 1.83765" transform="translate(121 100)" id="Fill-80" fill="#FCE3D6" fill-rule="evenodd" stroke="none" />
    <path d="M0.953487 2C8.98377 2 17.0156 2 25.0459 2C26.3164 2 26.3196 0 25.0459 0C17.0156 0 8.98377 0 0.953487 0C-0.317037 0 -0.318621 2 0.953487 2" transform="translate(142 114)" id="Fill-81" fill="#FCE3D6" fill-rule="evenodd" stroke="none" />
    <path d="M0.929558 2.75638C7.6434 2.40944 14.3573 2.31693 21.0742 2.47883C20.9117 1.73292 20.7508 0.987011 20.5883 0.241102C20.4336 0.389513 20.2789 0.537924 20.1241 0.686334C19.154 1.61728 20.1133 3.70466 21.0974 2.76023C21.2521 2.61182 21.4069 2.46341 21.5616 2.315C22.2811 1.62498 22.1124 0.102328 21.0742 0.0772718C14.3573 -0.084631 7.6434 0.00788487 0.929558 0.354819C-0.306756 0.418424 -0.312945 2.82191 0.929558 2.75638" transform="translate(183 113)" id="Fill-82" fill="#FCE3D6" fill-rule="evenodd" stroke="none" />
    <path d="M1.79886 17.5947C6.42773 11.3166 12.0608 6.02464 18.5644 1.79654C19.5777 1.13867 18.6396 -0.508302 17.6188 0.15415C10.8341 4.56541 5.01005 10.0848 0.181237 16.6346C-0.541882 17.6145 1.08476 18.5639 1.79886 17.5947" transform="translate(203 97)" id="Fill-83" fill="#FCE3D6" fill-rule="evenodd" stroke="none" />
    <path d="M0.949976 3.99744C8.98385 3.42311 17.0161 2.84878 25.05 2.27628C26.3127 2.18511 26.3206 -0.0884938 25.05 0.00266929C17.0161 0.576997 8.98385 1.15132 0.949976 1.72383C-0.312695 1.81317 -0.320616 4.08677 0.949976 3.99744" transform="translate(182 117)" id="Fill-84" fill="#FCE3D6" fill-rule="evenodd" stroke="none" />
    <path d="M1.54301 17.6696C6.58426 11.2162 12.6024 5.90667 19.5436 1.81774C20.5892 1.20275 19.6512 -0.484151 18.6041 0.133963C11.5329 4.29801 5.3654 9.71081 0.225567 16.2894C-0.527259 17.2534 0.782718 18.6414 1.54301 17.6696" transform="translate(205 102)" id="Fill-85" fill="#FCE3D6" fill-rule="evenodd" stroke="none" />
    <path d="M0.0539848 3.98963C0.72632 7.08638 0.292456 10.312 2.78641 12.6405C4.87111 14.5889 7.98662 14.9722 10.6837 14.9992C18.4378 15.0788 20.8533 9.00614 20.9995 1.914C21.0518 -0.638794 17.2162 -0.637203 17.1624 1.914C17.1193 4.08347 17.1578 6.50424 16.107 8.45741C14.7746 10.9339 12.0883 11.1677 9.64208 10.9911C7.70199 10.8511 5.81576 10.5489 4.79418 8.7278C3.9203 7.1659 4.14031 4.71809 3.7526 2.93511C3.21104 0.447533 -0.487576 1.50046 0.0539848 3.98963" transform="translate(165 111)" id="Fill-86" fill="#FCE3D6" fill-rule="evenodd" stroke="none" />
    <path d="M0 0.920917C0 4.30735 0 7.69379 0 11.0802C0 12.3058 2 12.3074 2 11.0802C2 7.69379 2 4.30735 2 0.920917C2 -0.306208 0 -0.307736 0 0.920917" transform="translate(305 295)" id="Fill-87" fill="#FCE3D6" fill-rule="evenodd" stroke="none" />
    <path d="M1.40588 0.660029C0.818281 2.36942 0.353715 4.09662 0.0143067 5.83717C-0.212673 7.00348 2.33289 7.50502 2.56412 6.32981C2.90352 4.58777 3.36809 2.86206 3.95781 1.15118C4.35662 -0.00473485 1.80681 -0.497372 1.40588 0.660029" transform="translate(311 301)" id="Fill-88" fill="#FCE3D6" fill-rule="evenodd" stroke="none" />
  </g>
</svg>