<?xml version="1.0" encoding="utf-8"?>
<svg width="183px" height="190px" viewbox="0 0 183 190" version="1.1" xmlns:xlink="http://www.w3.org/1999/xlink" xmlns="http://www.w3.org/2000/svg">
  <g id="Fill-769" transform="matrix(-0.9659258 -0.25881913 0.25881913 -0.9659258 303.28906 189.30396)">
    <path d="M306.948 33.4272C306.846 33.4018 306.751 33.3701 306.631 33.3637C305.636 33.7828 304.799 34.405 303.987 35.0843C303.975 35.0018 304.006 34.9383 303.981 34.8684C303.981 34.8557 303.975 34.8494 303.975 34.8494C304.653 34.0431 305.325 33.2177 306.003 32.405C306.168 32.3416 306.327 32.2908 306.491 32.2654C306.561 32.2146 306.618 32.1574 306.675 32.0939C306.593 32.386 306.644 32.7987 306.948 33.4272ZM297.806 35.9605C297.673 35.8716 297.553 35.7827 297.401 35.7192C297.255 35.5605 297.115 35.3764 296.97 35.2176C297.014 35.1795 297.058 35.1414 297.096 35.1097C297.426 34.6399 297.686 34.1574 297.597 33.5859C298.237 34.2907 297.572 35.2049 297.806 35.9605ZM300.171 37.3445C299.917 37.4207 299.695 37.5604 299.524 37.7763C299.283 38.1318 299.055 38.5127 298.84 38.8746C299.036 38.1318 299.302 37.3826 298.656 36.6906C298.947 36.7223 299.233 36.6779 299.493 36.5128C299.55 36.9572 299.791 37.2175 300.171 37.3445ZM286.129 30.348C285.704 30.3543 285.273 30.3607 284.848 30.3734C284.779 30.2337 284.671 30.1258 284.55 30.0178C284.665 29.9797 284.785 29.9734 284.899 29.9226C285.229 29.7321 285.463 29.4972 285.66 29.2306C285.673 29.5861 285.926 29.9734 286.129 30.348ZM304.811 48.4615C304.786 48.4933 304.767 48.525 304.742 48.5568C304.742 48.5568 304.735 48.5504 304.729 48.5504C304.888 48.2711 305.052 47.9854 305.211 47.7124C305.357 47.6552 305.528 47.6171 305.718 47.6235C305.464 47.9409 305.173 48.2393 304.811 48.4615ZM295.816 43.0967C295.67 43.2744 295.524 43.4395 295.404 43.63C294.814 43.503 294.288 43.6744 293.774 43.9538C293.781 43.903 293.819 43.8586 293.825 43.7951C293.971 42.8364 294.427 42.0872 295.093 41.4586C294.966 42.1507 294.992 42.7856 295.816 43.0967ZM284.405 35.4208C284.842 35.2811 285.222 35.0399 285.533 34.7161C285.616 34.7732 285.711 34.824 285.812 34.8557C285.292 35.0145 284.899 35.351 284.55 35.7319C284.519 35.624 284.468 35.5287 284.405 35.4208ZM305.052 56.7469C304.792 56.4866 304.621 56.1311 304.374 55.8708C304.456 55.8073 304.526 55.7374 304.59 55.6676C304.596 55.6803 304.596 55.6866 304.596 55.6993C304.767 56.0612 305.046 56.2327 305.376 56.3152C305.262 56.4549 305.141 56.5819 305.052 56.7469ZM257.196 21.4785C257.196 21.4087 257.215 21.3642 257.208 21.288C257.094 21.0912 256.942 20.9515 256.784 20.8436C256.974 20.7293 257.158 20.6087 257.329 20.4817C257.316 20.7547 257.335 21.015 257.456 21.2626C257.36 21.3261 257.265 21.396 257.196 21.4785ZM290.681 50.69C290.668 50.6964 290.668 50.7027 290.655 50.7091C290.275 50.6456 289.888 50.7027 289.502 50.7154C290.009 50.4932 290.351 50.1631 290.51 49.6996C290.605 50.0043 290.598 50.3599 290.681 50.69ZM263.681 29.6052C263.307 29.802 263.003 30.0813 262.755 30.4115C262.571 30.1893 262.413 29.967 262.197 29.7956C262.54 29.421 262.882 29.0401 263.224 28.6655C263.294 28.729 263.345 28.7798 263.421 28.8179C263.37 29.1163 263.446 29.3893 263.681 29.6052ZM204.635 21.123C204.331 21.396 204.02 21.6563 203.716 21.9293C203.69 21.9674 203.678 22.0118 203.659 22.0626C203.456 21.8531 203.272 21.7261 203.094 21.7071C203.551 21.3769 203.988 20.9896 204.432 20.596C204.502 20.5389 204.584 20.4817 204.667 20.4182C204.73 20.469 204.806 20.5198 204.876 20.5706C204.768 20.7484 204.692 20.9325 204.635 21.123ZM204.09 31.313C203.259 31.7511 203.025 31.4083 202.898 30.9194C203.247 30.9194 203.741 30.8369 204.476 30.7416C204.521 30.9321 204.445 31.1226 204.09 31.313ZM278.325 108.25C278.236 108.3 278.148 108.326 278.065 108.389C277.843 108.586 277.666 108.815 277.539 109.081C277.539 110.694 274.946 111.418 275.935 113.361C275.891 113.361 275.84 113.341 275.796 113.341C274.959 113.64 274.655 114.414 274.236 115.087C273.805 115.754 273.368 116.408 273.013 117.125C272.499 118.465 271.478 119.456 270.648 120.586C270.464 120.84 270.287 121.106 270.16 121.392C270.16 121.405 270.16 121.405 270.16 121.411C269.583 121.1 269.031 120.801 268.81 120.084C270.255 118.789 271.415 117.271 272.296 115.532C273.234 114.44 274.166 113.329 275.105 112.23C275.878 110.205 277.19 108.548 278.648 106.986C278.42 107.373 278.281 107.786 278.325 108.25ZM284.582 105.075C284.677 105.069 284.766 105.075 284.861 105.069C285.159 104.98 285.438 104.853 285.685 104.675C285.755 104.612 285.812 104.548 285.875 104.485C285.666 104.872 285.539 105.335 285.527 105.888C285.153 105.672 284.734 105.577 284.303 105.596C284.411 105.424 284.487 105.24 284.582 105.075ZM286.528 102.84C286.535 102.84 286.535 102.853 286.535 102.853C286.89 102.897 287.251 102.916 287.6 102.942C287.162 103.164 286.769 103.431 286.433 103.748C286.573 103.488 286.598 103.189 286.528 102.84ZM290.934 97.3294C291.08 96.885 291.099 96.4152 291.137 95.9517C291.125 95.12 291.758 94.5613 292.025 93.8438C292.031 93.8185 292.044 93.7803 292.05 93.755C292.133 93.7169 292.202 93.6661 292.272 93.6153C292.107 93.901 291.923 94.193 291.771 94.4851C291.384 95.1517 291.163 95.8882 291.207 96.6755C291.239 97.012 291.346 97.3485 291.524 97.6405C291.188 97.6215 290.903 97.7167 290.643 97.8627C290.744 97.685 290.852 97.5262 290.934 97.3294ZM265.082 129.411C264.968 129.487 264.854 129.55 264.708 129.595C264.467 129.766 264.27 129.963 264.125 130.211C264.106 130.236 264.106 130.274 264.093 130.3C263.643 130.274 263.231 130.433 262.838 130.661C262.774 130.598 262.73 130.528 262.654 130.484C263.142 129.836 263.643 129.201 264.137 128.56C264.321 128.998 264.625 129.284 265.082 129.411ZM165.482 57.058C164.664 58.2643 163.371 59.1151 162.908 60.5753L163.048 60.6452C162.725 60.9309 162.408 61.2102 162.078 61.4896C161.869 61.534 161.641 61.5658 161.425 61.6039C161.419 61.1975 161.292 60.842 160.956 60.5753C161.983 59.9277 162.864 59.1024 163.656 58.1881C163.745 58.0358 163.777 57.8643 163.815 57.7056C164.297 57.7247 164.683 57.4326 165.064 57.1279C165.609 56.9374 165.615 55.8073 166.478 56.1565C166.015 56.2834 165.723 56.6326 165.482 57.058ZM255.731 140.394C255.465 140.413 255.218 140.483 254.989 140.629C254.609 140.915 254.286 141.213 254.013 141.556C254.007 141.55 254.007 141.537 254.007 141.531C254.007 141.359 253.975 141.182 253.918 141.004C254.108 140.661 254.292 140.325 254.476 139.975C254.596 140.007 254.704 140.039 254.863 140.052C255.116 139.925 255.3 139.753 255.459 139.563C255.49 139.842 255.617 140.121 255.731 140.394ZM204.121 101.069C204.083 101.113 204.045 101.158 204.007 101.19C203.487 101.393 203.234 101.767 203.259 102.326C203.266 102.326 203.272 102.332 203.272 102.339C203.044 102.637 202.809 102.948 202.575 103.247C202.131 103.774 202.46 104.688 201.674 105.037C199.665 105.081 198.822 106.085 198.771 107.735C198.688 107.488 198.612 107.24 198.606 106.98C198.619 106.269 199.113 105.862 199.62 105.475C199.956 105.215 200.28 104.929 200.571 104.612C201.091 104.002 201.56 103.374 201.668 102.548C201.662 102.37 201.617 102.205 201.554 102.047C201.681 101.913 201.808 101.774 201.934 101.64C202.676 101.247 203.113 100.485 203.627 99.8119C203.456 100.307 203.449 100.758 204.121 101.069ZM206.049 106.231C204.419 108.205 202.765 110.186 201.129 112.161C200.451 112.389 199.874 113.214 199.208 113.386C198.688 113.78 198.219 114.224 197.839 114.757L197.839 114.764C197.623 114.694 197.402 114.719 197.173 114.77C199.234 112.23 201.288 109.678 203.348 107.119C203.627 106.954 203.9 106.802 204.21 106.662C204.464 106.478 204.679 106.25 204.838 105.983C204.869 105.926 204.869 105.862 204.888 105.805C205.294 105.793 205.719 105.653 206.068 105.996C206.08 106.078 206.055 106.142 206.049 106.231ZM218.994 123.227C219.609 122.573 220.211 121.913 220.82 121.265C220.965 121.379 221.111 121.494 221.27 121.614C221.111 121.843 220.972 122.084 220.858 122.338C220.832 122.42 220.807 122.503 220.775 122.592C220.173 122.77 219.615 123.157 218.994 123.227ZM257.367 151.892C257.348 151.74 257.24 151.619 256.955 151.549C256.46 152.076 255.953 152.61 255.452 153.143C255.408 153.105 255.338 153.092 255.281 153.061C255.091 152.965 254.882 152.94 254.672 152.953C254.622 152.502 254.355 152.216 253.943 152.032C253.867 152.045 253.791 152.051 253.709 152.057C253.664 151.968 253.595 151.892 253.487 151.842C253.588 151.67 253.645 151.467 253.652 151.257C254.558 150.591 255.649 152.235 256.505 151.048C256.923 150.546 257.329 150.064 257.747 149.575C257.836 149.683 257.969 149.746 258.089 149.816C258.502 150.851 258.026 151.416 257.367 151.892ZM249.252 150.305C249.246 150.311 249.227 150.318 249.214 150.324C248.846 150.419 248.637 150.623 248.593 150.965C248.029 150.813 248.01 150.394 248.105 149.924C248.073 149.842 248.016 149.778 247.965 149.715C248.65 149.245 248.885 149.924 249.252 150.305ZM250.165 153.435C249.835 154.838 249.626 156.298 248.466 157.244C248.84 156.502 249.335 155.771 248.872 154.895C249.303 154.406 249.715 153.905 250.14 153.403L250.152 153.441C250.159 153.435 250.159 153.435 250.165 153.435ZM243.135 155.918L243.363 155.74L243.28 155.429C243.28 155.403 243.287 155.384 243.293 155.372C244.536 155.638 245.607 154.083 246.894 154.775C245.632 155.124 244.555 156.248 243.135 155.918ZM141.62 71.7622C140.055 71.6035 139.085 72.1495 139.059 73.8764L139.059 73.8891C137.963 74.3145 137.164 75.1208 136.428 75.9969C134.641 76.416 134.095 78.1492 132.967 79.2667C131.845 80.3777 131.053 82.0094 129.062 81.7173C129.176 81.565 129.303 81.4126 129.417 81.2602C129.404 80.2253 130.514 79.8254 130.729 78.9111C130.71 78.8794 130.685 78.854 130.659 78.8222C130.666 78.8222 130.672 78.8222 130.672 78.8222C130.919 78.5175 131.167 78.2127 131.42 77.908C131.528 77.9207 131.623 77.9651 131.75 77.9588C132.498 77.7302 133.145 77.3048 133.804 76.9048C134.197 76.6318 134.558 76.3271 134.882 75.9715C135.496 75.2668 136.118 74.5621 136.308 73.597C136.352 73.4256 136.289 73.2923 136.2 73.178C136.466 73.2161 136.606 73.1145 136.587 72.8161C136.593 72.8161 136.593 72.8098 136.6 72.8034C136.65 72.924 136.733 73.0383 136.84 73.1653C137.176 73.2605 137.5 73.2288 137.817 73.0891C138.996 72.2447 140.067 71.3432 139.985 69.6988C141.196 69.667 142.356 69.1337 143.579 69.3305C143.231 69.8321 142.882 70.34 142.54 70.8543C142.229 71.1527 141.931 71.4638 141.62 71.7622ZM204.166 124.528C203.627 124.751 203.449 125.093 203.633 125.576C203.373 125.817 203.158 126.09 203.012 126.414C202.98 126.516 202.955 126.63 202.923 126.731C202.473 126.649 202.086 126.674 201.788 126.795C202.486 125.976 203.202 125.176 203.373 124.02C203.361 123.982 203.348 123.944 203.342 123.906C203.361 123.887 203.38 123.868 203.405 123.849C203.443 123.83 203.468 123.798 203.5 123.779C203.576 124.109 203.747 124.357 204.045 124.522C204.083 124.528 204.128 124.522 204.166 124.528ZM240.973 161.936C240.821 163.282 239.578 162.438 239.014 162.927C238.779 163.098 238.577 163.295 238.412 163.536C238.196 163.885 238.082 164.26 238.164 164.666C238.088 164.628 238.05 164.584 237.968 164.552C237.524 164.539 237.099 164.552 236.668 164.616C236.7 164.527 236.694 164.438 236.675 164.343C236.865 164.209 237.049 164.076 237.239 163.949C237.803 163.593 238.437 163.257 238.272 162.419C238.672 162.514 239.052 162.413 239.407 162.216C240.136 161.816 240.871 161.428 241.658 161.149C241.936 161.035 242.215 160.895 242.494 160.768C241.943 161.105 241.448 161.517 240.973 161.936ZM216.781 153.664C215.932 154.737 214.201 155.232 214.518 157.079C214.15 158.305 212.471 157.956 212.077 159.143C211.837 159.429 211.615 159.708 211.393 159.987C211.222 160.025 211.05 160.07 210.892 160.146C210.695 160.355 210.531 160.59 210.461 160.876C210.455 160.959 210.429 161.028 210.423 161.098C210.239 161.263 210.055 161.428 209.871 161.587C208.806 161.778 208.134 162.444 207.519 163.174C207.532 163.149 207.545 163.143 207.551 163.117C208.027 162.546 208.331 161.867 208.654 161.194C208.908 160.921 209.161 160.648 209.428 160.381C209.789 159.828 210.176 159.302 210.537 158.756C211.114 158.102 211.697 157.435 212.28 156.781C212.616 156.476 212.965 156.146 213.32 155.841C213.345 155.625 213.409 155.429 213.491 155.232C215.583 152.724 217.688 150.216 219.78 147.715C220.344 147.327 220.763 146.762 221.168 146.204C221.003 146.61 220.934 147.061 221.054 147.613C220.186 150.019 217.764 151.327 216.781 153.664ZM231.609 164.362C231.616 164.381 231.616 164.393 231.622 164.412C231.635 164.463 231.622 164.495 231.628 164.546C231.489 164.501 231.33 164.47 231.109 164.47C230.063 164.819 229.429 165.657 228.744 166.431C228.725 166.463 228.693 166.495 228.668 166.533C228.63 166.533 228.592 166.533 228.554 166.546C228.516 165.403 229.708 164.882 230.05 163.943C230.215 163.784 230.373 163.619 230.532 163.454C231.451 163.143 231.292 164.012 231.565 164.412C231.584 164.393 231.597 164.381 231.609 164.362ZM225.188 170.076C225.314 170.215 225.447 170.355 225.574 170.501C225.473 170.672 225.352 170.844 225.276 171.028C225.023 171.587 224.744 172.12 224.37 172.603C223.349 172.634 222.836 173.758 222.094 174.399C221.466 175.072 221.035 175.961 219.995 176.164C219.881 176.152 219.723 176.082 219.704 176.107C219.469 176.463 219.476 176.139 219.736 175.783C220.503 174.749 221.694 174.133 222.398 173.041C222.785 172.374 223.184 171.726 223.609 171.085C223.996 170.406 224.401 169.746 223.989 168.92C223.558 167.968 222.259 169.453 221.916 168.196C222.449 167.428 223.267 166.965 223.977 166.374C223.66 166.812 223.438 167.301 223.514 167.949C224.37 168.92 225.276 168.063 226.17 167.981C225.555 168.552 225.01 169.142 225.188 170.076ZM232.345 174.031C231.438 174.52 230.798 175.263 230.329 176.171C229.733 178.621 229.061 181.053 227.032 182.786C226.931 182.901 226.836 183.009 226.722 183.123C226.417 182.761 226.119 182.418 225.65 182.285C225.821 181.751 225.942 181.205 225.942 180.634C225.936 180.577 225.904 180.532 225.904 180.469C226.696 179.529 227.444 178.564 227.692 177.301C228.554 176.647 229.416 175.993 230.272 175.339C231.235 175.161 230.842 172.234 232.719 173.923C232.598 173.961 232.472 173.974 232.345 174.031ZM209.345 155.257C209.371 155.232 209.402 155.213 209.428 155.194C209.428 155.2 209.428 155.2 209.421 155.206C209.428 155.2 209.428 155.194 209.434 155.194C209.567 155.314 209.707 155.448 209.814 155.587C210.721 154.514 211.608 153.441 212.509 152.368C212.673 152.489 212.845 152.597 212.997 152.711C212.819 153.359 212.616 153.994 212.426 154.641C212.09 154.679 211.76 154.762 211.469 154.952C210.962 155.384 210.531 155.848 210.505 156.476C210.436 156.489 210.372 156.508 210.315 156.514C209.89 156.635 209.466 156.705 209.035 156.794C209.301 156.387 209.554 155.994 209.814 155.587C209.694 155.416 209.529 155.321 209.345 155.257ZM196.476 160.533C196.495 160.559 196.508 160.59 196.52 160.622C196.463 160.654 196.4 160.673 196.33 160.705C196.121 160.844 195.931 161.009 195.741 161.174C195.791 160.978 195.823 160.774 195.874 160.571C195.975 160.14 196.026 159.708 195.975 159.27C195.88 159.156 195.766 159.073 195.684 158.965C196.064 157.936 196.444 156.895 196.825 155.867C196.78 154.565 195.588 155.073 194.955 154.679L194.948 154.679C195.056 151.918 197.598 150.902 199.126 149.15C199.576 148.915 200.02 148.731 200.489 148.902C200.451 149.111 200.464 149.321 200.514 149.518C199.956 150.375 199.513 151.245 199.842 152.318C200.425 151.581 201.015 150.845 201.605 150.115C201.871 150.115 202.143 150.064 202.429 149.937C204.102 148.984 204.984 147.048 206.778 146.235C206.638 146.794 206.797 147.391 206.879 147.969C205.313 149.505 204.438 151.746 202.213 152.616C202.194 152.673 202.175 152.711 202.163 152.775C202.036 152.616 201.915 152.407 201.833 152.102C200.73 152.115 200.178 152.813 199.811 153.74C199.747 154.305 199.709 154.87 199.639 155.429C199.62 155.473 199.608 155.518 199.595 155.568C199.57 155.702 199.551 155.829 199.532 155.962C199.405 156.508 199.208 157.035 198.822 157.511C198.619 157.854 198.505 158.21 198.492 158.597C198.46 158.584 198.441 158.552 198.403 158.533C197.04 158.508 196.394 159.168 196.476 160.533ZM196.134 164.381C196.127 164.082 196.077 163.771 195.963 163.416C195.874 163.403 195.798 163.435 195.715 163.428C195.728 163.416 195.741 163.39 195.76 163.378C196.191 162.92 196.603 162.463 197.015 162.006C197.116 162.089 197.218 162.159 197.332 162.241C197.034 163.003 196.603 163.695 196.134 164.381ZM217.27 181.897C217.257 181.923 217.244 181.929 217.231 181.948C217.124 181.675 217.016 181.402 217.117 181.085C217.181 181.351 217.212 181.624 217.27 181.897ZM200.781 171.307C200.717 171.244 200.641 171.193 200.571 171.123C201.11 170.45 201.643 169.765 202.175 169.085L202.175 169.079L202.175 169.085C202.258 169.142 202.315 169.2 202.391 169.244C202.315 169.371 202.239 169.498 202.143 169.612C201.731 170.203 201.25 170.755 200.781 171.307ZM194.352 167.727C194.232 167.727 194.13 167.714 194.004 167.727C193.883 167.746 193.775 167.809 193.649 167.828C193.947 167.53 194.264 167.244 194.593 166.971C194.492 167.206 194.409 167.466 194.352 167.727ZM219.938 191.624C219.793 191.732 219.653 191.846 219.507 191.961C219.026 192.678 218.563 193.389 218.081 194.106C217.675 194.64 218.17 194.989 218.354 195.402C217.999 195.903 217.65 196.398 217.308 196.9C217.016 197.205 216.724 197.516 216.439 197.827C216.014 198.182 215.609 198.57 215.146 198.875C215.032 198.957 214.943 199.059 214.835 199.154C212.547 198.557 214.651 197.357 214.753 196.43C215.799 195.598 216.54 194.583 216.8 193.256C216.813 193.262 216.819 193.281 216.845 193.287C217.339 193.287 217.758 193.078 218.125 192.773C218.785 192.195 219.235 191.313 220.16 191.142C220.034 191.275 219.957 191.434 219.938 191.624ZM210.803 197.217C211.672 196.76 212.147 195.865 212.749 195.11C212.604 195.579 212.591 196.106 212.857 196.76C212.889 196.767 212.914 196.748 212.952 196.748C212.28 196.76 211.672 197.129 211.006 197.205C210.943 197.205 210.873 197.217 210.803 197.217ZM216.674 190.354C216.439 190.608 216.198 190.869 215.964 191.122C216.078 190.919 216.198 190.71 216.319 190.5C216.445 190.462 216.559 190.405 216.674 190.354ZM184.234 175.98C182.89 177.637 181.553 179.282 180.215 180.926C179.657 181.383 179.068 181.783 178.389 182.094C177.35 182.818 176.513 183.745 175.752 184.748C175.049 184.812 174.541 185.434 174.015 185.942C173.007 186.907 172.196 188.043 171.289 189.097C171.492 188.411 172.208 187.738 171.727 187.002C171.479 186.945 171.219 186.939 170.972 186.996C170.528 187.104 170.091 187.123 169.635 187.116C169.844 186.564 169.964 186.005 169.869 185.415C170.554 185.935 171.118 185.542 171.67 185.091C173.083 183.948 173.521 182.17 174.484 180.736C174.624 180.824 174.776 180.894 174.922 180.977C175.08 180.85 175.226 180.723 175.378 180.602C177.045 182.063 178.288 181.593 179.264 179.777C178.504 179.377 178.808 178.786 178.979 178.228L178.966 178.228C179.67 177.739 180.374 177.25 181.071 176.774C181.185 175.968 180.501 176.114 180.082 175.936C179.733 175.587 179.309 175.447 178.833 175.409C179.201 174.971 179.556 174.526 179.917 174.095C180.703 173.644 182.06 173.923 182.003 172.418C181.978 172.139 181.933 171.853 181.895 171.568C181.68 170.698 182.409 170.253 182.77 169.638C183.062 169.314 183.366 168.984 183.67 168.66C183.937 168.215 184.304 167.796 184.013 167.219C183.664 167.282 183.315 167.346 182.973 167.409C183.1 168.203 182.155 168.52 182.117 169.25C182.117 169.257 182.13 169.276 182.13 169.282C181.692 169.314 181.445 169.86 180.97 169.777C180.215 170.634 179.461 171.485 178.706 172.342C177.717 173.009 177.191 173.923 177.223 175.11C177.204 175.11 177.179 175.098 177.147 175.091C177.007 175.117 176.874 175.161 176.748 175.212C176.792 174.533 177.47 173.841 177.014 173.199C177.477 172.818 177.939 172.425 178.389 172.044C178.637 171.663 178.884 171.288 179.138 170.901C179.841 170.203 180.443 169.479 179.448 168.546C179.879 168.076 180.304 167.612 180.735 167.136C181.781 167.035 182.618 166.641 182.859 165.485C184.361 166.457 184.818 164.958 185.623 164.292C185.769 163.758 185.616 163.339 185.166 163.009C185.515 162.451 185.851 161.886 186.206 161.34L186.314 161.543C187.905 160.47 189.515 159.479 191.1 161.562L191.1 161.568C190.473 162.298 189.027 162.851 190.568 164.031C191.652 163.111 192.843 162.609 194.283 163.06C194.492 162.997 194.65 162.914 194.79 162.819C194.745 163.016 194.701 163.212 194.688 163.435C194.638 163.524 194.581 163.6 194.53 163.682C193.985 163.962 193.496 164.381 192.945 164.66C192.482 164.997 192.07 165.384 191.677 165.79C189.522 168.514 186.707 170.736 185.426 174.114C185.414 174.285 185.471 174.425 185.528 174.545C185.49 174.577 185.458 174.603 185.426 174.641C184.666 174.736 184.323 175.231 184.234 175.98ZM202.486 207.388C202.67 207.103 202.765 206.773 202.79 206.392C202.936 206.531 203.088 206.652 203.247 206.76C202.987 206.944 202.733 207.179 202.486 207.388ZM203.988 208.366C203.361 208.671 203.589 210.646 202.277 209.642C202.524 209.401 202.777 209.154 203.025 208.9C203.722 208.519 204.28 208.023 204.54 207.281C204.597 207.281 204.648 207.274 204.698 207.274C204.432 207.604 204.191 207.979 203.988 208.366ZM172.462 180.101C172.551 180.298 172.684 180.444 172.855 180.558C172.012 181.174 171.372 182.005 170.624 182.723C170.814 182.247 170.985 181.764 171.169 181.275C171.6 180.882 172.031 180.494 172.462 180.101ZM197.015 138.02C197.091 138.109 197.167 138.185 197.249 138.255C197.23 138.267 197.218 138.274 197.199 138.286C196.913 138.598 196.711 138.972 196.609 139.385C196.596 139.588 196.584 139.772 196.552 139.963C196.248 140.331 195.943 140.693 195.627 141.061C195.208 141.226 194.891 141.086 194.619 140.845C194.758 140.674 194.897 140.496 194.999 140.305C195.411 139.372 196.007 138.623 196.894 138.121C196.939 138.096 196.97 138.058 197.015 138.02ZM209.18 147.226C208.895 147.435 208.629 147.664 208.369 147.899C208.286 147.835 208.223 147.772 208.128 147.721C208.248 147.467 208.382 147.213 208.508 146.972C208.711 147.112 208.933 147.207 209.18 147.226ZM219.564 144.045C219.679 144.172 219.786 144.299 219.894 144.432C219.837 144.515 219.786 144.604 219.736 144.68C219.552 145.067 219.368 145.448 219.368 145.867C219.184 146.058 219 146.254 218.861 146.483C218.804 146.661 218.797 146.819 218.823 146.985C218.601 146.927 218.373 146.915 218.138 146.972C217.929 146.845 217.726 146.718 217.517 146.591C218.201 145.74 218.886 144.896 219.564 144.045ZM199.639 128.934C199.804 128.833 199.937 128.706 200.102 128.585C199.868 128.896 199.62 129.188 199.303 129.385C198.505 129.912 198.219 130.852 197.598 131.519C197.541 131.595 197.484 131.671 197.427 131.734C197.528 131.601 197.642 131.474 197.719 131.303C197.953 130.687 198.137 130.077 197.427 129.607C197.687 129.277 197.763 128.877 197.731 128.458C197.738 128.446 197.75 128.433 197.75 128.42C197.763 128.49 197.738 128.56 197.776 128.649C198.314 129.309 198.948 129.284 199.639 128.934ZM135.788 81.565C135.947 81.2729 136.035 80.9491 136.004 80.6126C136.701 80.6698 137.246 80.4793 137.474 79.7746C137.544 79.8 137.608 79.8381 137.684 79.8508C137.982 80.5491 137.157 80.4349 137.005 80.8094C136.815 80.9809 136.663 81.1967 136.517 81.4126C136.283 81.4189 136.029 81.4888 135.788 81.565ZM180.126 120.554C179.74 120.643 179.543 120.897 179.512 121.297C179.359 121.068 179.195 120.865 178.966 120.713C178.542 120.478 178.111 120.255 177.698 120.008C177.756 119.906 177.806 119.792 177.832 119.665C177.844 119.671 177.857 119.69 177.87 119.697C178.231 119.855 178.58 119.805 178.922 119.69C178.985 119.786 179.074 119.887 179.169 119.957C179.493 120.141 179.778 120.452 180.126 120.554ZM161.324 182.17C160.525 182.431 159.878 182.818 159.802 183.77C159.897 184.697 159.98 185.631 160.068 186.551C160.354 187.015 160.607 187.599 161.108 187.294C161.07 187.942 161.216 188.583 161.133 189.224C160.823 189.624 160.499 190.024 160.182 190.43C159.333 191.199 158.471 191.954 158.109 193.027C157.824 193.37 157.545 193.732 157.266 194.081C157.063 194.113 156.873 194.157 156.677 194.183C156.315 194.278 155.973 194.418 155.631 194.589C155.605 194.367 155.58 194.157 155.561 193.941C155.39 193.319 156.867 192.367 155.174 192.056C154.566 192.348 154.204 192.773 154.255 193.427C153.938 193.224 153.577 193.122 153.19 193.11C154.128 192.837 154.724 192.208 155.003 191.218C155.066 190.837 154.959 190.532 154.667 190.297C153.963 190.049 153.336 190.291 152.715 190.589C152.29 190.83 151.909 191.135 151.567 191.478C150.844 192.278 150.122 193.053 149.272 193.713C149.069 193.929 148.892 194.164 148.746 194.443C148.67 195.694 148.575 196.951 148.575 198.202C148.518 198.189 148.473 198.151 148.41 198.151C148.201 198.195 148.011 198.284 147.827 198.367C147.459 198.094 147.079 197.929 146.572 198.322C146.248 198.538 145.906 198.76 145.576 198.976C145.38 198.97 145.177 198.957 144.974 198.932C144.638 198.957 144.346 199.078 144.112 199.294C144.264 198.652 144.296 198.024 143.871 197.446C143.662 197.275 143.421 197.237 143.155 197.256C143.072 197.16 142.971 197.059 142.882 196.97C142.685 197.205 142.495 197.44 142.292 197.675C141.329 198.367 140.663 199.452 139.528 199.928C138.527 200.494 137.531 201.078 136.777 201.979C136.485 202.347 136.264 202.741 136.08 203.166C135.902 203.287 135.725 203.389 135.528 203.509C134.114 203.839 133.322 204.709 133.049 206.055C133.03 206.074 133.011 206.087 132.986 206.1C132.435 204.773 131.395 204.392 130.07 204.544C130.064 204.404 130.089 204.265 130.064 204.106C130.038 203.966 130.019 203.833 129.987 203.693C130.159 203.554 130.317 203.389 130.482 203.249C130.97 202.595 131.141 201.928 130.774 201.23C131.224 201.16 131.528 200.894 131.674 200.455C131.674 200.386 131.642 200.328 131.629 200.252C132.339 199.427 133.049 198.602 133.759 197.776C134.387 195.948 136.53 196.252 137.595 195.052C137.791 194.913 137.982 194.792 138.178 194.652C139.376 193.427 140.568 192.208 141.766 190.989C142.033 190.221 142.527 189.51 142.229 188.634C142.185 188.361 142.147 188.1 142.115 187.827C141.975 187.916 141.83 187.999 141.658 188.043C141.513 187.878 141.329 187.764 141.126 187.688C140.866 188.011 140.612 188.323 140.365 188.634C139.56 189.237 138.964 190.1 138.146 190.659C137.899 190.888 137.665 191.11 137.455 191.37C137.436 191.395 137.424 191.427 137.405 191.453C137.36 191.427 137.316 191.389 137.272 191.351C137.138 191.503 136.993 191.637 136.828 191.757C136.016 192.011 135.839 192.526 135.921 193.154C135.63 192.722 135.211 192.481 134.603 192.589L134.584 192.507C134.305 192.83 134.019 193.167 133.734 193.484C132.771 194.411 131.357 194.824 130.729 196.132C132.244 197.205 132.587 195.56 133.411 194.976C133.867 195.097 134.336 195.199 134.799 195.306C134.286 196.005 133.759 196.703 133.24 197.389C132.46 197.986 131.674 198.563 130.894 199.141C130.368 198.551 130.425 197.383 129.233 197.478C129.106 197.51 128.992 197.567 128.872 197.617C128.631 196.995 128.358 196.373 128.193 195.719C128.136 195.535 128.124 195.376 128.124 195.224C128.612 194.633 129.094 194.056 129.582 193.472C131.61 193.287 132.263 191.903 132.447 190.132C132.339 190.259 132.213 190.354 132.06 190.405C131.3 190.824 130.685 191.402 130.076 191.986C130.178 191.675 130.26 191.345 130.292 191.008C130.273 190.5 130.108 190.126 129.544 190.056C129.176 190.126 128.853 190.284 128.548 190.475C128.428 190.386 128.288 190.297 128.124 190.227C128.098 190.221 128.086 190.234 128.067 190.227C128.536 189.58 129.005 188.932 129.474 188.291C130.083 187.91 130.691 187.542 131.287 187.167C131.661 186.666 132.251 186.062 131.82 185.491C131.217 184.685 130.469 185.32 129.956 185.764C129.411 186.227 129.005 186.875 128.555 187.44C128.016 188.043 127.483 188.659 126.951 189.262C126.881 189.148 126.811 189.015 126.716 188.888C124.77 188.221 124.092 189.313 123.832 190.957C123.813 190.989 123.794 191.008 123.781 191.04C123.337 190.659 122.932 190.659 122.545 190.805C127.775 185.624 131.902 179.504 136.764 174.006C136.859 173.885 136.961 173.771 137.056 173.65C137.855 174.088 138.666 174.901 139.04 173.383C139.934 169.72 143.434 168.374 145.24 165.574C146.039 165.339 146.546 164.882 146.572 163.993C146.546 163.987 146.527 163.993 146.508 163.987C146.768 163.657 147.022 163.32 147.269 162.997C149.253 162.73 150.077 161.035 151.231 159.746C151.415 159.511 151.618 159.263 151.814 159.016C151.871 159.13 151.935 159.257 152.062 159.384C154.375 158.73 154.433 156.698 154.794 154.864C154.705 154.724 154.629 154.584 154.559 154.426C156.036 152.356 157.507 150.28 158.991 148.21C159.904 148.299 160.22 146.788 161.305 147.334C161.247 147.791 161.4 147.886 161.793 147.632C162.249 145.397 163.365 143.537 165.026 141.982C165.539 141.569 165.438 141.258 164.918 141.01C164.912 140.991 164.88 140.978 164.874 140.959C165.14 140.623 165.4 140.28 165.672 139.931C165.584 139.62 165.394 139.398 165.089 139.29C164.145 139.106 163.251 139.315 162.395 139.702C160.975 140.407 160.436 141.651 160.322 143.143C160.056 146.375 156.702 147.765 155.859 150.654C155.713 150.705 155.631 150.813 155.599 150.959L155.599 150.965C154.35 151.245 153.837 152.451 152.905 153.143C152.74 153.384 152.569 153.632 152.461 153.892C151.009 155.34 149.481 156.705 148.48 158.527C148.34 158.565 148.194 158.609 148.023 158.609C147.015 158.978 146.343 159.867 145.437 160.387C144.803 160.813 144.169 161.213 143.535 161.632C142.641 162.279 141.899 163.028 141.424 164.031C140.885 165.022 140.346 166.006 139.82 166.984C139.547 167.32 139.281 167.663 139.009 167.993C138.939 167.949 138.894 167.898 138.825 167.847C138.248 167.911 137.779 168.171 137.36 168.558C136.245 169.701 135.256 170.971 134.216 172.184C133.671 172.85 133.132 173.504 132.517 174.101C131.699 174.729 130.85 175.314 130.07 175.98C128.916 176.996 127.445 177.752 127.312 179.529C127.185 179.358 127.065 179.167 126.926 179.021C126.926 179.009 126.938 178.996 126.938 178.983C127.002 178.685 126.983 178.399 126.906 178.101C127.952 177.174 127.407 176.126 127.021 175.091C127.059 175.091 127.097 175.104 127.147 175.098C127.395 174.926 127.547 174.679 127.585 174.368C127.578 174.342 127.572 174.323 127.566 174.304C127.826 174.082 128.073 173.847 128.308 173.625C129.303 173.383 129.924 172.609 130.609 171.949C130.628 171.936 130.634 171.917 130.653 171.898C131.186 171.917 131.756 171.612 132.295 171.784C133.246 171.961 133.645 171.155 134.229 170.666C135.585 169.86 136.72 168.863 137.113 167.244L136.917 167.136C137.411 166.666 137.905 166.203 138.406 165.733C139.484 164.87 140.27 163.727 141.284 162.781C141.633 161.352 141.779 159.898 141.963 158.438C141.95 158.419 141.937 158.413 141.931 158.394C145.063 158.165 145.177 155.479 145.944 153.334C145.944 153.092 145.893 152.845 145.824 152.622C146.476 151.905 147.066 151.092 148.08 150.813C149.107 150.572 149.754 149.962 149.9 148.896C150.014 148.711 150.134 148.521 150.267 148.337C151.073 148.083 151.218 147.537 150.965 146.8C150.927 146.756 150.889 146.743 150.851 146.699C151.016 146.439 151.174 146.185 151.339 145.931C151.485 145.956 151.643 145.95 151.814 145.893C152.632 145.258 153.12 144.369 153.577 143.467C153.716 143.289 153.843 143.105 153.976 142.928C155.396 142.401 156.455 141.442 157.146 140.09C157.203 139.956 157.241 139.823 157.279 139.69C157.488 139.823 157.691 139.931 157.907 140.064C158.471 139.899 158.762 139.417 159.13 139.042C159.213 139.486 159.098 139.994 159.289 140.407C159.72 139.95 160.132 139.486 160.556 139.029C160.455 138.712 160.354 138.401 160.259 138.077C160.385 137.963 160.525 137.848 160.626 137.709C160.892 137.328 161.032 136.902 160.918 136.433C160.69 135.988 160.322 135.741 159.834 135.652L159.815 135.804C159.187 135.512 158.452 136.274 157.843 135.861C157.913 135.81 157.945 135.753 158.027 135.702C158.579 135.099 159.035 134.471 158.49 133.62C158.426 133.576 158.363 133.563 158.293 133.537C158.439 132.877 158.585 132.217 159.01 131.684C159.098 131.709 159.174 131.741 159.257 131.772C159.568 131.823 159.878 131.804 160.182 131.709C160.271 131.792 160.335 131.88 160.442 131.931C160.576 132.109 160.721 132.255 160.899 132.376C161.19 132.42 161.476 132.376 161.742 132.242C162.687 131.379 163.669 130.649 165.019 131.404C165.476 131.48 165.932 131.449 166.382 131.347C166.357 131.43 166.338 131.519 166.325 131.62C165.97 131.779 165.647 131.995 165.406 132.331C165.038 133.252 164.804 134.103 166.186 134.312C166.306 134.191 166.421 134.064 166.541 133.944C166.921 134.807 167.333 135.652 167.048 136.655C166.915 137.671 165.983 138.655 166.959 139.696C167.764 140.096 168.506 140.204 168.975 139.207C170.199 138.014 171.435 136.807 172.671 135.607C172.703 134.833 173.812 134.464 173.533 133.569C173.705 133.487 173.863 133.379 173.99 133.239C175.163 132.884 176.589 133.03 177.229 131.62C177.61 131.087 177.984 130.553 178.364 130.02L178.58 129.836L178.751 129.601C180.469 129.144 181.071 127.525 182.104 126.363C181.99 126.236 181.895 126.09 181.819 125.938C182.65 124.878 183.493 123.817 184.336 122.763C184.539 122.738 184.748 122.738 184.957 122.662C186.643 121.417 187.258 119.367 188.577 117.862C188.723 117.564 188.818 117.259 188.875 116.941C189.033 117.195 189.255 117.367 189.547 117.437C189.179 117.551 188.907 117.786 188.742 118.148C188.755 118.408 188.685 118.649 188.628 118.871C188.501 119.024 188.368 119.195 188.241 119.341C188.285 119.513 188.266 119.659 188.247 119.792C187.892 120.344 187.43 120.821 186.967 121.303C186.859 121.532 186.84 121.767 186.897 122.008C186.529 122.459 186.168 122.916 185.794 123.379C185.376 123.868 184.938 124.376 184.501 124.878C183.886 125.512 183.284 126.141 182.662 126.763C182.231 127.328 181.578 127.811 181.959 128.674C182.719 128.649 183.131 129.493 183.898 129.455C184.323 129.03 184.742 128.598 185.16 128.166C185.338 128.217 185.496 128.268 185.661 128.331C186.181 128.395 186.403 128.001 186.675 127.696C187.005 127.227 187.176 126.693 187.284 126.141C187.284 126.02 187.322 125.906 187.341 125.798C188.076 125.525 188.59 125.144 187.74 124.084C187.728 124.09 187.721 124.09 187.702 124.09C187.696 124.059 187.677 124.02 187.67 123.982L187.816 123.83L187.949 123.544C187.949 123.532 187.949 123.532 187.949 123.532C188.691 122.884 188.761 123.468 188.85 124.166C188.888 124.471 189.186 124.649 189.534 124.655C190.111 123.519 190.694 122.37 191.278 121.221C192.007 120.516 192.736 119.805 193.458 119.1C193.11 120.389 191.506 121.627 193.313 122.979C193.313 122.986 193.313 122.992 193.313 123.005C192.076 123.411 191.981 124.655 191.436 125.576C190.935 126.166 190.517 126.814 190.048 127.29C190.479 126.496 191.538 125.906 191.297 124.662C188.184 124.166 187.791 127.112 186.295 128.655C185.908 129.131 186.231 129.887 186.079 130.452C186.016 130.369 185.971 130.287 185.883 130.192C185.68 130.109 185.483 130.033 185.293 129.944C184.97 129.639 184.666 129.944 184.355 129.988C184.076 130.357 183.784 130.738 183.505 131.125C183.455 131.138 183.41 131.131 183.366 131.138C183.265 131.214 183.144 131.296 183.036 131.379C183.353 132.871 185.35 134.21 183.505 135.925C183.461 136.236 183.423 136.541 183.385 136.845C183.322 137.042 183.271 137.239 183.207 137.448C183.195 137.429 183.188 137.423 183.182 137.404C182.32 137.563 182.028 138.223 181.857 138.972C180.437 141.296 178.922 143.512 176.748 145.258C175.879 145.969 174.465 146.883 175.613 148.483C175.27 148.851 174.941 149.207 174.592 149.575C174.579 149.626 174.56 149.657 174.541 149.696C173.648 148.356 172.576 148.673 171.606 149.715C169.761 151.689 167.98 153.746 169.33 156.781C169.356 156.819 169.387 156.864 169.413 156.902C167.505 157.352 166.002 158.241 165.666 160.413C166.027 160.717 166.389 161.016 166.744 161.308C167.98 160.019 169.216 158.717 170.452 157.422C171.613 156.171 172.773 154.921 173.926 153.664C175.442 151.81 176.957 149.95 178.472 148.089C178.662 148.07 178.833 148 178.985 147.854C180.501 149.08 181.407 148.235 182.18 146.927C183.562 146.07 184.241 144.635 185.109 143.366C185.68 142.737 186.257 142.096 186.834 141.461L186.821 141.455C189.179 140.382 190.168 137.906 192 136.293C192.248 136.191 192.495 136.102 192.736 135.988C192.894 135.753 193.04 135.506 193.167 135.252C193.23 135.131 193.313 135.023 193.382 134.909C193.864 134.477 194.352 134.052 194.834 133.62C195.614 133.138 196.501 132.788 197.142 132.134C196.882 132.522 196.698 132.928 196.685 133.43C196.4 133.817 196.121 134.21 195.823 134.604C195.335 134.928 194.866 135.315 194.384 135.658C194.023 136.007 193.775 136.401 193.699 136.902C193.611 137.106 193.528 137.309 193.439 137.518C192.856 138.191 192.279 138.858 191.696 139.531C191.728 139.867 191.753 140.185 191.778 140.534C191.683 140.667 191.576 140.807 191.487 140.959C191.341 141.226 191.233 141.512 191.189 141.823C191.189 141.893 191.208 141.963 191.214 142.02C190.371 142.343 189.858 142.966 189.686 143.912L189.845 143.905C189.141 144.743 188.457 145.588 187.766 146.432C187.613 146.597 187.48 146.762 187.322 146.934C186.91 147.48 186.491 148.032 186.092 148.585L185.921 148.331C185.35 148.87 184.716 149.334 184.139 149.873C184.165 149.765 184.19 149.657 184.184 149.53C183.778 149.359 184.875 147.664 183.341 148.661C182.51 149.194 182.333 150.184 182.047 151.048C180.653 151.321 180.894 152.927 179.993 153.6C180.589 153.727 180.982 153.378 181.382 153.022C181.737 152.489 182.104 151.956 182.472 151.429C182.7 151.308 182.922 151.194 183.144 151.073C183.163 151.061 183.169 151.054 183.182 151.048C183.043 151.543 183.024 152 183.588 152.305C184.298 151.918 185.674 152.146 185.09 150.616C186.624 150.629 186.827 148.934 187.93 148.394C187.975 148.254 188.019 148.108 188.057 147.962C188.057 147.943 188.051 147.924 188.051 147.899C188.273 147.715 188.501 147.524 188.716 147.334C188.926 147.772 189.129 148.21 189.331 148.648C188.97 149.124 188.602 149.594 188.247 150.077C188.146 150.051 188.038 150.013 187.93 149.981C187.791 151.156 185.471 151.657 186.91 153.308C189.363 153.314 190.396 151.359 191.696 149.778C191.506 148.731 190.777 148.661 189.921 148.838C189.87 148.864 189.839 148.896 189.788 148.927C189.902 148.458 190.01 147.994 190.124 147.524C190.466 147.613 190.802 147.715 191.151 147.804C191.195 147.886 191.208 147.981 191.265 148.064C191.461 148.299 191.709 148.451 192.007 148.502C192.203 148.508 192.412 148.527 192.609 148.565L192.609 148.559C192.774 148.794 192.939 149.029 193.103 149.27C193.059 149.296 192.989 149.308 192.932 149.346C192.419 149.74 191.969 150.216 191.544 150.718C190.91 151.505 190.213 152.248 189.845 153.2C189.75 153.499 189.75 153.803 189.82 154.102C189.522 154.007 189.154 154.121 188.742 154.343C186.276 156.457 184.558 159.232 182.333 161.562C181.711 162.647 180.247 163.536 181.432 165.079C181.331 165.047 181.236 165.022 181.128 165.041C180.126 165.46 179.34 166.133 178.662 166.965C178.611 167.079 178.561 167.193 178.523 167.308C177.622 167.327 176.976 167.911 176.373 168.539C176.342 168.609 176.304 168.673 176.266 168.742C175.283 168.99 175.638 170.298 174.947 170.78C174.655 171.104 174.383 171.441 174.098 171.771C173.59 172.05 173.622 172.431 173.869 172.863L173.895 172.882C172.912 173.637 172.056 174.488 171.746 175.771C171.885 175.923 172.037 176.05 172.208 176.152C173.026 175.142 173.844 174.139 174.662 173.123C174.953 172.736 175.245 172.361 175.543 171.98C175.816 171.752 176.088 171.542 176.367 171.32C176.519 171.663 176.748 171.936 177.141 172.088C176.786 172.234 176.64 172.495 176.697 172.901C176.399 172.863 176.095 172.914 175.816 173.034C174.529 173.872 173.622 175.066 172.855 176.374C172.728 176.679 172.659 176.996 172.64 177.333C172.697 177.44 172.754 177.529 172.811 177.618C171.949 177.421 171.074 177.694 170.218 177.606C169.368 177.675 168.76 178.139 168.259 178.806C168.227 178.869 168.196 178.939 168.164 179.009C167.669 179.523 167.188 180.05 166.699 180.571C166.655 180.532 166.655 180.494 166.611 180.45C166.478 180.386 166.319 180.342 166.167 180.323C166.256 180.19 166.344 180.069 166.446 179.948C166.256 179.72 166.078 179.498 165.888 179.275C165.901 179.256 165.913 179.244 165.926 179.218C165.989 178.717 165.894 178.304 165.413 178.037C165.089 178.037 164.779 178.094 164.487 178.228C164.347 178.279 164.233 178.342 164.107 178.406C163.656 178.38 163.206 178.367 162.75 178.348C162.959 178.025 163.168 177.713 163.365 177.402C163.809 176.901 164.252 176.393 164.683 175.885C164.696 175.358 164.981 174.729 164.145 174.533C163.301 175.536 162.452 176.545 161.615 177.548C161.596 177.866 161.577 178.202 161.564 178.513C161.457 178.679 161.393 178.863 161.374 179.053C160.911 179.504 160.442 179.948 159.967 180.393C158.75 180.59 158.617 181.631 158.306 182.539C158.471 182.678 158.655 182.78 158.851 182.862C158.984 182.716 159.13 182.596 159.289 182.501C159.669 181.942 160.03 181.39 160.404 180.837C162.3 180.342 161.609 181.402 161.438 182.158C161.4 182.164 161.368 182.164 161.324 182.17ZM163.809 186.875C163.637 186.494 163.504 186.088 163.301 185.72C163.574 185.796 163.815 185.777 164.024 185.675C163.916 186.069 163.834 186.462 163.809 186.875ZM166.319 189.719C166.275 190.018 166.325 190.291 166.465 190.545C166.668 190.748 166.915 190.913 167.188 191.002C167.98 191.154 168.779 191.142 169.578 191.186C168.95 191.954 168.316 192.722 167.676 193.478C167.226 194.024 166.788 194.583 166.408 195.179C166.129 195.649 165.951 196.144 165.97 196.69C165.983 196.716 166.008 196.722 166.015 196.741C164.855 196.824 164.233 197.7 163.511 198.449C163.061 198.957 162.61 199.471 162.135 199.948C160.835 201.16 158.591 201.376 158.255 203.624C158.274 203.751 158.3 203.858 158.338 203.954C157.469 203.643 156.651 203.744 155.872 204.233C155.783 204.214 155.688 204.201 155.599 204.151L155.599 204.163C155.098 204.189 154.851 204.474 154.788 204.95C154.775 204.957 154.775 204.97 154.769 204.97C154.769 204.963 154.762 204.95 154.737 204.95C154.014 204.538 153.45 204.881 152.905 205.331C152.398 205.871 152.036 206.468 152.131 207.262C151.764 208.023 150.572 208.385 151.035 209.553C151.459 210.201 150.939 210.868 151.092 211.522C151.054 211.718 151.009 211.903 150.971 212.087C150.775 212.264 150.578 212.436 150.356 212.582C149.97 212.976 149.659 213.407 149.596 213.947C149.519 213.991 149.431 214.023 149.361 214.074C149.228 213.96 149.088 213.883 148.924 213.826C147.332 214.201 145.462 213.61 144.226 215.21C144.201 215.312 144.169 215.426 144.137 215.534C143.085 215.75 142.546 216.506 142.292 217.572C142.286 217.737 142.343 217.858 142.394 217.972C142.096 218.01 141.811 218.042 141.506 218.08C140.828 217.979 140.27 218.245 139.738 218.569C139.757 218.34 139.801 218.131 139.883 217.934C140.283 217.629 140.593 217.255 140.765 216.804C141.303 216.302 141.899 215.82 142.14 215.128C142.546 214.595 142.945 214.074 143.357 213.547C143.529 213.407 143.7 213.287 143.884 213.153C144.448 212.087 145.126 211.179 146.426 211.02C146.426 210.703 146.426 210.372 146.426 210.049C146.293 209.788 146.09 209.674 145.83 209.63C146.546 207.604 149.095 207.166 149.912 205.223C150.122 205.179 150.337 205.116 150.553 205.084C151.136 204.912 151.643 204.62 152.112 204.265C152.366 204.677 152.753 204.938 153.342 204.982C154.046 204.665 154.597 204.214 154.718 203.389C155.022 202.417 156.67 201.916 156.017 200.735C155.561 199.916 154.775 201.306 154.027 201.046C154.547 199.598 155.187 198.227 156.372 197.192C158.762 196.576 159.878 194.367 161.634 192.97C163.175 192.38 164.373 191.478 164.62 189.713C164.493 189.567 164.373 189.478 164.252 189.364C164.316 189.345 164.373 189.338 164.436 189.326C164.633 189.243 164.829 189.154 165.032 189.072C165.127 188.837 165.222 188.602 165.317 188.367C165.609 188.069 165.913 187.764 166.205 187.459C166.408 187.935 166.814 187.954 167.283 187.846C166.896 188.437 166.547 189.046 166.319 189.719ZM72.7419 163.054C73.1603 162.476 73.9084 162.076 73.7245 161.213C73.8513 161.282 73.9591 161.371 74.0605 161.467C73.6802 161.981 73.3061 162.501 73.0969 163.117C72.9828 163.066 72.8687 163.041 72.7419 163.054ZM123.014 202.233C122.887 201.973 122.703 201.808 122.482 201.693C122.494 201.662 122.52 201.624 122.532 201.586C122.684 201.122 122.735 200.646 122.71 200.157C122.71 200.138 122.703 200.119 122.703 200.094C123.585 199.89 124.028 198.963 124.795 198.405C124.612 199.059 124.618 199.567 124.808 200.068C124.833 200.1 124.859 200.132 124.884 200.163C124.51 200.538 124.13 200.919 123.756 201.294C123.781 201.598 123.857 201.751 123.952 201.82C123.699 202.049 123.445 202.29 123.192 202.519C123.134 202.481 123.071 202.481 123.008 202.462C123.02 202.392 123.027 202.309 123.014 202.233ZM136.283 165.035C136.543 164.685 136.733 164.317 136.859 163.905C137.043 164.59 136.099 164.958 136.042 165.581C135.94 166.006 135.953 166.381 136.327 166.654C136.321 166.654 136.321 166.654 136.314 166.647C135.915 166.768 135.573 166.996 135.224 167.225C135.389 166.901 135.433 166.514 135.319 166.025C135.319 166.019 135.319 166.019 135.325 166.019C135.687 165.727 136.004 165.397 136.283 165.035ZM141.614 148.591C141.982 148.451 142.273 148.242 142.419 147.854C142.457 147.092 142.248 146.28 142.838 145.626C142.964 145.391 143.072 145.143 143.117 144.864C143.117 144.807 143.085 144.769 143.085 144.718C143.934 144.661 144.461 144.058 145.044 143.55C145.069 143.753 145.094 143.95 145.113 144.14C144.993 144.28 144.898 144.432 144.816 144.604C145.152 145.55 143.998 146.115 143.941 146.966C143.782 147.042 143.63 147.118 143.497 147.239C143.174 147.55 142.945 147.905 142.85 148.324C142.419 148.381 142.052 148.521 141.817 148.864C141.779 148.775 141.728 148.686 141.69 148.597C141.665 148.597 141.639 148.591 141.614 148.591ZM136.536 129.106C136.46 129.252 136.378 129.385 136.333 129.55C136.264 129.722 136.314 129.893 136.283 130.071C136.264 130.077 136.257 130.115 136.245 130.134C136.105 129.766 136.232 129.411 136.327 129.049C136.397 129.074 136.46 129.106 136.536 129.106ZM152.131 139.144C152.271 139.359 152.455 139.518 152.664 139.601C152.664 139.645 152.657 139.69 152.657 139.74C152.302 139.88 151.992 140.077 151.7 140.293C151.909 139.963 152.062 139.594 152.131 139.144ZM156.41 129.049C156.385 129.106 156.385 129.176 156.36 129.233C156.315 130.109 156.797 130.674 157.488 131.106C157.539 131.138 157.59 131.15 157.64 131.176C157.456 131.404 157.279 131.633 157.095 131.874C156.93 132.407 156.765 132.947 156.601 133.48C156.449 133.531 156.303 133.576 156.151 133.658C155.517 134.185 155.143 134.915 154.648 135.55C154.325 135.944 154.027 136.35 153.729 136.756C153.399 136.915 153.025 136.902 152.531 136.483L152.404 136.471C152.936 135.683 153.646 135.004 154.135 134.179C154.445 133.893 154.762 133.601 155.079 133.341C155.713 132.636 156.087 131.823 156.087 130.852C156.036 129.906 155.745 129.042 155.244 128.249C155.092 128.09 154.914 127.969 154.73 127.887C154.845 127.849 154.914 127.754 154.914 127.614C155.187 128.135 155.859 128.376 156.119 128.89C156.208 128.96 156.309 129.011 156.41 129.049ZM77.3254 156.171C78.4348 154.762 79.7217 153.48 80.5902 151.886C80.7107 151.619 80.8248 151.359 80.9452 151.099C81.5285 150.711 81.4714 149.829 81.8581 149.289C82.0103 149.334 82.1878 149.359 82.3779 149.308C82.7076 149.207 83.0309 149.042 83.3098 148.826C87.8362 144.293 91.323 138.839 96.0649 134.515C96.8954 133.76 97.2504 132.699 96.6735 131.55C96.5213 131.436 96.3755 131.322 96.2234 131.201C98.4042 131.588 99.4755 129.88 100.731 128.655C102.601 126.82 103.723 124.389 105.511 122.484C105.561 122.395 105.625 122.306 105.676 122.217C108.034 121.754 108.782 119.475 109.879 117.608C109.663 117.246 109.511 117.024 109.34 116.91C109.473 116.878 109.606 116.878 109.758 116.91L109.999 116.719L110.132 116.497C110.392 116.554 110.76 116.484 111.197 116.275C114.215 113.589 116.611 110.345 119.128 107.215C119.052 106.967 118.963 106.802 118.874 106.637C118.938 106.669 118.995 106.681 119.058 106.732C120.269 105.208 122.241 104.485 123.223 102.732C123.35 102.224 123.077 101.939 122.684 101.71C122.672 101.697 122.659 101.704 122.646 101.691C122.697 101.621 122.741 101.545 122.792 101.469C123.039 101.412 123.28 101.355 123.534 101.31C124.859 100.929 125.582 100.142 125.423 98.7516C125.512 98.7897 125.575 98.8405 125.696 98.8659C126.868 98.8468 127.502 97.9961 128.124 97.1707C128.143 97.1516 128.162 97.1326 128.174 97.1072C128.491 96.9802 128.777 96.8215 129.049 96.6564C128.193 97.6659 127.357 98.6754 126.507 99.6912C126.266 99.9706 126.044 100.269 125.848 100.567C125.385 101.177 125.195 101.882 125.15 102.631C125.169 102.663 125.195 102.669 125.214 102.701C124.092 104.002 122.963 105.31 121.835 106.612C121.778 106.618 121.727 106.637 121.67 106.65C121.391 106.669 121.144 106.751 120.922 106.91C119.914 109.342 117.942 111.049 116.408 113.094C110.062 120.649 103.989 128.446 97.2757 135.658C93.1424 140.109 89.5225 144.966 85.2434 149.27C83.0563 150.21 81.7186 152.057 80.3747 153.892C79.4237 154.254 78.8215 154.902 78.7454 155.968C78.4792 156.279 78.2256 156.61 77.9657 156.921C77.6106 156.838 77.2747 156.737 77.0147 156.533C77.1162 156.413 77.2239 156.286 77.3254 156.171ZM171.181 134.471C170.814 134.947 170.497 135.474 169.977 135.81C170.484 135.449 170.776 134.928 170.928 134.331C170.928 134.318 170.928 134.312 170.922 134.293C170.985 134.363 171.074 134.42 171.181 134.471ZM163.441 124.116C163.39 123.925 163.403 123.735 163.397 123.551C163.403 123.557 163.403 123.557 163.416 123.557C163.733 124.135 164.024 124.7 164.335 125.271C164.208 125.29 164.113 125.347 164.043 125.462C162.617 125.785 162.097 126.852 161.875 128.147C161.622 128.446 161.368 128.731 161.108 129.03C160.759 128.433 160.24 127.976 159.802 127.442C159.91 127.43 160.018 127.411 160.132 127.347C161.786 126.839 162.763 125.633 163.441 124.116ZM129.861 87.9647C130.051 87.8949 130.254 87.8441 130.444 87.8504C131.141 87.4695 131.636 86.8981 131.858 86.1172C131.889 85.8759 131.87 85.6473 131.845 85.4315L131.864 85.4188L132.016 85.1521C132.314 84.8537 132.612 84.5553 132.916 84.2569C133.151 84.9934 133.385 85.7299 133.62 86.46C132.663 87.6536 131.705 88.8409 130.755 90.0408C129.569 91.1963 128.472 92.4788 126.837 92.974C127.052 90.8471 129.29 89.8885 129.861 87.9647ZM151.301 70.5432C151.352 70.5622 151.39 70.594 151.453 70.594C151.878 70.3972 152.315 70.2257 152.74 70.0353C152.651 70.1432 152.55 70.2257 152.461 70.34C152.182 70.5368 151.96 70.7718 151.745 71.0067C151.624 70.8225 151.478 70.6765 151.301 70.5432ZM150.787 61.3817C150.997 60.4547 150.939 59.2675 152.474 59.6928C152.024 59.7944 151.789 60.1182 151.707 60.5944C151.745 60.6642 151.795 60.7023 151.84 60.7531C151.542 61.0134 151.263 61.2801 150.971 61.5404C150.914 61.4832 150.844 61.4261 150.787 61.3817ZM159.504 63.7181C159.073 63.9085 158.877 63.8958 158.794 63.7689C158.978 63.7879 159.2 63.7816 159.504 63.7181ZM158.439 57.8643C158.857 57.7882 159.111 58.2453 159.422 58.5246C159.403 58.5437 159.39 58.5627 159.371 58.5754C158.934 58.6326 158.61 58.823 158.338 59.0706C158.477 58.6961 158.534 58.3024 158.439 57.8643ZM49.438 180.799C49.4316 180.799 49.4316 180.799 49.4253 180.799C49.419 180.799 49.4126 180.799 49.4063 180.799C48.5821 180.037 49.1147 179.44 49.5774 178.825C49.7423 178.99 49.9388 179.053 50.1417 179.079C49.7106 179.555 49.3936 180.101 49.438 180.799ZM34.4261 190.634C34.2866 190.849 34.1471 191.072 34.014 191.288C33.976 191.288 33.9506 191.288 33.9253 191.288C33.5386 191.338 33.1835 191.478 32.8095 191.586C33.1201 191.275 33.3737 190.907 33.5956 190.494C33.7351 190.126 33.7668 189.745 33.7858 189.357C33.8048 189.326 33.8492 189.313 33.8682 189.281C34.0711 189.415 34.2739 189.567 34.4705 189.7C34.4514 190.011 34.4451 190.329 34.4261 190.634ZM31.4212 187.992C31.2817 188.424 31.1929 188.9 31.1486 189.389C30.9394 189.18 30.5653 189.415 30.3561 189.218C30.7745 188.862 31.1232 188.443 31.4212 187.992ZM25.0183 211.966C24.9169 212.099 24.8218 212.22 24.7267 212.353C24.4731 212.087 24.2385 211.966 24.0166 211.928C24.3336 211.769 24.695 211.725 25.1007 211.89C25.069 211.915 25.0563 211.941 25.0183 211.966ZM15.3759 222.835C15.3696 222.683 15.4964 222.455 15.788 222.143C15.8197 222.143 15.8451 222.15 15.8767 222.15C15.75 222.372 15.5471 222.613 15.3759 222.835ZM58.5351 162.952C58.5922 162.965 58.6302 163.003 58.6936 163.003C59.3276 162.787 59.5114 162.108 59.9488 161.778C59.5178 162.444 59.0994 163.13 59.746 163.257C59.4544 163.352 59.2769 163.536 59.1818 163.784C59.055 163.46 58.8204 163.187 58.5351 162.952ZM69.4644 140.598C69.3693 140.782 69.2679 140.966 69.1855 141.182C69.1348 141.62 69.1855 141.867 69.2933 142.045C69.2869 142.058 69.2869 142.058 69.2806 142.058C68.7607 142.064 68.4755 142.312 68.3994 142.801C68.0634 142.712 67.7718 142.712 67.5309 142.769C68.2029 142.083 68.7988 141.302 69.4644 140.598ZM247.522 5.87913C247.794 5.70136 247.826 5.46645 247.775 5.20614C247.858 5.45375 247.921 5.70136 247.978 5.95532C247.762 5.96801 247.56 5.98706 247.357 6.01881C247.414 5.97436 247.477 5.92992 247.522 5.87913ZM256.086 16.812C256.207 16.6089 256.34 16.412 256.454 16.2025C256.574 15.8851 256.619 15.5422 256.587 15.2057C257.018 15.6057 257.462 15.6756 257.912 15.5803C257.208 16.0882 256.606 16.7295 256.042 17.4088C256.054 17.212 256.067 17.0088 256.086 16.812ZM297.54 28.5195C297.699 28.9068 297.851 29.3004 298.13 29.5925C297.838 29.8528 297.553 30.1258 297.306 30.4178C297.388 29.7956 297.458 29.1607 297.54 28.5195ZM307.753 29.256C307.544 26.7862 311.557 25.999 309.877 22.8435C308.685 26.8942 305.851 29.7512 303.189 32.7352C303.214 32.7923 303.233 32.8495 303.246 32.8939C303.239 32.8939 303.233 32.9003 303.227 32.9003L303.189 32.7352C302.124 32.7161 301.864 33.4526 301.642 34.3161C301.363 35.4462 300.621 35.7827 299.543 35.2684L299.537 35.2684C300.551 33.3828 301.547 31.4971 302.536 29.6052C302.815 28.9385 302.371 28.5766 301.946 28.202L301.832 28.202C301.179 28.3925 300.767 28.748 300.52 29.2306C300.272 29.1036 300.031 28.9512 299.759 28.8877C300.456 28.5004 300.463 27.8148 300.513 27.1481C300.856 26.6021 301.192 26.0497 301.54 25.4974C301.217 24.9196 300.887 24.3355 300.564 23.7451C299.429 22.7991 299.233 24.1514 298.643 24.5323C298.13 25.1926 297.54 25.7831 297.027 26.4307C296.97 26.5894 296.982 26.7354 296.982 26.8815C296.716 26.8942 296.45 26.9132 296.177 26.9322C295.518 27.11 295.29 27.4402 295.391 27.9227C294.992 28.1322 294.649 28.4116 294.503 28.8877C293.92 29.5925 293.331 30.2972 292.456 31.3448C292.57 30.3289 292.621 29.8274 292.671 29.3258C291.961 30.0496 291.245 30.7734 290.535 31.4971C290.497 31.2305 290.453 30.9638 290.421 30.7099C290.953 30.1575 291.435 29.5925 291.251 28.7544C290.434 29.0401 290.605 28.2655 290.364 27.9417L290.364 27.9354C290.281 27.3957 290.199 26.8561 290.117 26.3228C288.354 25.9037 287.638 27.4402 286.535 28.2401C286.319 28.3417 286.161 28.4433 286.034 28.5449C286.097 28.3417 286.135 28.1322 286.154 27.9036C286.389 26.8942 286.63 25.891 286.864 24.8942C286.681 24.7101 286.497 24.526 286.307 24.3482C285.52 24.5831 284.861 23.7197 284.069 23.9927C284.1 23.9228 284.138 23.853 284.17 23.7832C285.178 22.6848 286.357 21.7134 286.636 20.1452C286.75 20.1389 286.864 20.1262 286.991 20.0881C287.841 19.5802 288.519 18.9008 289.083 18.1072C289.388 18.4247 289.838 18.6215 289.901 19.1167C289.724 19.65 290.021 19.8976 290.446 20.0817C291.232 19.0532 292.43 18.1072 291.067 16.6787C290.598 16.5581 290.136 16.4247 289.666 16.2851C289.66 16.0311 289.559 15.8089 289.381 15.6311C289.242 15.5676 289.115 15.5422 288.982 15.5359C289.14 15.2375 289.299 14.9327 289.438 14.6216C289.616 14.2407 289.8 13.8725 289.945 13.4725C290.693 11.6821 290.681 9.75199 290.953 7.87905C290.985 7.8473 290.928 7.75842 290.808 7.61239C290.681 7.47272 290.503 7.41557 290.275 7.43462C289.825 7.64414 289.381 7.86 288.937 8.07587C287.372 8.4822 288.95 10.5964 287.359 10.9964C286.053 11.1234 285.337 11.9678 284.817 13.0661C284.443 13.9423 284.975 14.374 285.628 14.7359C286.123 15.2883 286.028 16.1835 286.7 16.6343C286.237 16.6977 285.894 16.9517 285.616 17.3326C285.21 18.0564 284.975 18.8183 285.229 19.6564C285.108 19.7643 284.994 19.8849 284.874 20.0119C284.544 19.7325 284.202 19.4595 283.866 19.1738C282.896 19.3516 282.623 20.323 281.958 20.8309C281.932 20.8119 281.888 20.8055 281.856 20.7738L281.837 20.7611C281.824 20.7484 281.805 20.7357 281.786 20.723C282.611 20.469 282.813 19.8532 282.503 18.9516C283.118 18.1009 283.733 17.2501 284.354 16.393C283.238 16.1708 283.023 17.758 281.939 17.5929L281.875 17.5104C280.924 17.7834 280.531 18.6215 280.062 19.377C280.075 19.504 280.113 19.6183 280.151 19.7325C279.187 20.5516 278.655 21.9229 277.152 22.0563C276.74 22.1388 276.442 22.3674 276.182 22.634C276.341 22.1959 276.455 21.7452 276.544 21.2944C276.632 21.2245 276.721 21.1674 276.797 21.0976C277.419 20.3738 277.9 19.5675 278.42 18.7802C278.553 17.904 278.674 17.0088 278.807 16.1263C278.858 16.1644 278.889 16.2025 278.927 16.2406C281.577 17.4977 282.065 17.1803 281.932 14.2724C280.962 14.0185 280.512 13.4725 280.956 12.4566C280.715 12.0376 280.772 11.2821 279.935 11.5741C279.099 12.5646 278.255 13.5423 277.412 14.5137C276.556 14.5391 276.201 15.2565 275.682 15.7454C275.536 16.2152 275.403 16.6914 275.269 17.1549C274.471 18.1643 273.672 19.1675 272.879 20.1706C272.765 21.2182 271.795 21.4214 271.13 21.9102C270.173 22.6213 269.38 23.4149 269.849 24.7165C269.355 25.1355 268.993 25.7894 268.182 25.6752C268.061 25.5863 267.935 25.4847 267.814 25.3895C266.8 24.9958 265.995 25.326 265.329 26.1069C265.266 26.2021 265.215 26.3101 265.164 26.4116C264.784 26.4434 264.397 26.4878 264.023 26.5196C263.713 25.4022 265.836 24.9577 264.797 23.6498C264.885 23.5165 264.949 23.3832 265.031 23.2499C265.114 23.2753 265.19 23.307 265.297 23.3133C266.451 22.9578 267.294 22.1197 268.277 21.4912C268.518 21.142 268.765 20.8055 269.025 20.45C268.226 19.9484 268.943 18.3802 267.529 18.304C267.675 16.3676 269.678 18.5326 270.077 17.1422C269.462 16.4565 268.695 15.7962 269.684 14.8375C270.166 14.1582 270.667 13.4725 271.161 12.7995C271.726 12.3487 272.1 11.5741 273.006 11.6694C273.152 11.5487 273.285 11.4027 273.399 11.2694C272.347 10.1456 271.149 12.2344 270.103 11.0853C269.976 10.9456 269.837 10.8377 269.665 10.7615C268.15 10.3742 267.307 11.2567 266.591 12.3741C266.413 11.9487 266.236 11.5297 266.039 11.098C265.621 11.6059 265.183 12.1074 264.765 12.6217C264.581 12.7169 264.41 12.8439 264.277 12.9963C263.973 13.009 263.681 13.0153 263.377 13.0153C263.364 12.9963 263.351 12.9836 263.332 12.9646C263.332 12.9646 263.339 12.9646 263.345 12.9582C264.302 12.2662 265.076 11.4726 264.892 10.152C264.752 9.9869 264.6 9.84087 264.442 9.70755C263.998 9.89801 263.548 10.1012 263.091 10.2916C262.939 10.4567 262.793 10.6091 262.641 10.7678C261.811 11.263 261.056 11.7837 261.728 12.882C261.38 13.3201 261.025 13.7518 260.682 14.1772C260.435 14.1074 260.194 14.1201 259.966 14.2216C260.181 13.4153 260.86 12.7169 260.581 11.7837C260.498 11.6694 260.41 11.5614 260.321 11.4408C260.188 11.3138 260.055 11.1805 259.915 11.0535C260.086 9.84087 259.04 10.1012 258.432 9.83453L258.438 9.84087C258.051 9.88532 257.671 9.92976 257.291 9.9742C256.543 10.3234 256.118 10.99 255.687 11.6376C255.68 11.7456 255.725 11.8281 255.744 11.917C255.623 11.9995 255.516 12.0948 255.446 12.2344C255.116 11.7138 255.528 11.3583 255.725 10.9646C255.167 10.8504 254.818 11.1805 254.47 11.5487C254.178 11.8789 253.88 12.2217 253.582 12.5646C252.999 13.3772 251.978 12.9201 251.255 13.3328C251.116 13.4661 251.008 13.6375 250.92 13.8153C250.393 14.2724 249.88 14.7423 249.366 15.2057C249.265 14.7296 249.138 14.2534 249.03 13.7772L248.986 13.8026C247.401 14.1645 246.051 14.9264 245.055 16.2597C244.846 16.4755 244.605 16.6343 244.383 16.812C244.498 16.139 244.498 15.4978 244.003 14.901C244.111 14.9137 244.225 14.92 244.339 14.8946C244.618 14.7867 244.872 14.647 245.113 14.4629C245.575 14.0566 245.968 13.6122 246.292 13.0915C246.539 12.6789 246.672 12.2535 246.647 11.7773L246.457 11.771C246.431 11.7519 246.406 11.7329 246.387 11.7138C246.596 11.771 246.812 11.7837 247.033 11.7329C248.891 10.8885 249.709 9.19328 250.514 7.49811C251.712 6.75528 251.604 5.44105 251.927 4.31729C252.137 3.41574 249.797 3.36494 251.173 2.06341C250.254 0.190469 249.62 1.60628 248.916 2.26658C248.853 2.34911 248.77 2.43165 248.701 2.50149C248.612 2.46339 248.536 2.43165 248.447 2.38721C246.539 2.59037 245.353 4.2411 243.635 4.8252C242.9 4.72997 242.247 4.95218 241.632 5.25058C241.765 4.93948 241.81 4.60934 241.664 4.2284C240.935 4.74902 240.206 5.26963 239.477 5.77755L239.451 6.0696C239.439 6.0696 239.413 6.0696 239.394 6.08229C239.426 5.98706 239.451 5.88548 239.477 5.77755C238.646 5.54898 238.779 4.67283 238.38 4.14586C238.107 4.42522 237.828 4.70457 237.569 4.98393C237.391 4.94583 237.214 4.88234 237.049 4.80616C236.161 4.70457 235.698 5.65057 234.925 5.81564C234.95 5.63787 234.988 5.46645 234.982 5.27598C235.147 5.21884 235.305 5.10456 235.407 4.94583C235.591 4.34903 236.015 4.03158 236.586 3.87286C236.865 3.78397 237.131 3.67604 237.397 3.54906C238.234 2.7237 239.223 2.01262 239.496 0.761874C236.643 -0.30475 235.299 2.43165 233.22 3.30145C232.427 3.25701 231.609 3.15543 231.343 4.19666C231.096 4.57124 230.842 4.93948 230.601 5.30137C229.644 5.39661 229.169 6.20292 228.528 6.76798C228.643 6.34895 228.941 6.02515 229.137 5.65692C229.245 5.422 229.289 5.16805 229.289 4.90774C229.714 4.2284 229.682 3.6316 228.991 3.16178C228.281 3.24431 227.73 3.62525 227.203 4.04428C227.406 3.67604 227.539 3.27606 227.546 2.75544C227.121 1.68882 228.75 1.11107 228.199 0C227.793 0.463473 227.394 0.939645 226.988 1.39677C226.411 1.98087 225.999 2.68561 225.099 2.99036C223.679 3.46653 223.07 4.41252 224.122 5.83469C223.983 6.01246 223.837 6.18388 223.698 6.3553C223.704 7.8473 222.018 8.57743 222.043 10.0631C221.733 10.0313 221.422 9.9996 221.111 9.9742C221.466 9.33931 221.675 8.67267 221.441 7.91714C221.289 6.79338 220.217 6.79338 219.507 6.3426C218.106 6.01246 217.586 6.6791 217.675 8.01238C217.701 8.06317 217.732 8.12666 217.751 8.17745C217.352 8.03777 216.667 8.26633 216.781 7.42192C216.16 7.30129 215.437 7.07908 215.146 7.84095C214.867 8.57743 215.647 8.90123 216.033 9.34566C215.913 9.51708 215.805 9.6885 215.723 9.87262C215.12 10.8504 214.525 11.8281 213.935 12.8122C213.219 12.9582 212.813 13.3899 212.68 14.1074C212.711 14.1645 212.743 14.1709 212.775 14.2216C212.762 14.2153 212.756 14.2216 212.749 14.2153C212.356 14.1772 211.951 14.1328 211.564 14.082C211.799 13.5804 211.906 13.0788 211.735 12.5328C211.336 11.1361 212.807 11.2567 213.333 10.6154C214.093 9.70755 213.732 9.4028 212.819 9.19328C211.583 10.4567 209.871 11.1805 208.927 12.7614L208.908 12.6662C208.122 13.7836 207.342 14.9137 205.903 15.2692C205.427 15.4914 204.958 15.72 204.483 15.9486C202.999 15.8216 202.105 16.7295 201.237 17.6374C201.193 17.3009 201.034 16.9898 200.508 16.793C200.178 16.4819 200.242 15.6311 199.418 15.9422C199.265 17.6374 196.793 18.6278 197.985 20.7293C197.56 20.9261 197.148 21.1166 196.736 21.3198C196.939 21.8848 196.641 22.3166 196.343 22.7483C196.102 22.9832 195.874 23.2308 195.627 23.4721C195.392 21.8277 193.636 21.8848 192.482 21.2817C192.355 21.396 192.216 21.4975 192.07 21.6055C191.246 21.7769 190.637 22.2213 190.32 23.0276C190.39 23.3768 190.339 23.6562 190.257 23.8975C189.915 24.1959 189.553 24.4371 189.033 24.3101C188.349 25.1482 187.664 25.9863 186.973 26.8243C187.195 26.8053 187.417 26.7926 187.639 26.7799C187.753 28.4433 188.888 28.2592 190.054 27.8909C190.156 27.8592 190.238 27.8084 190.339 27.764C189.864 28.1322 189.446 28.5766 189.186 29.1798C188.64 28.6401 188.076 28.1195 187.227 28.0624C186.193 28.5131 185.242 29.0401 184.951 30.2591C184.735 30.8051 184.52 31.3575 184.304 31.8908C184.26 31.859 184.234 31.8019 184.184 31.7765C182.967 31.1416 181.819 30.2401 180.291 30.7543C179.391 31.1416 178.497 31.5289 177.597 31.9225C176.995 31.9733 176.659 32.2971 176.57 32.8939C176.373 33.2177 176.158 33.5352 175.955 33.859C175.53 34.3161 175.106 34.7669 174.662 35.2113C173.407 36.0938 172.544 37.3318 171.701 38.5889C171.777 39.8143 173.166 39.1286 173.641 39.7698C173.375 40.0365 173.109 40.3222 172.855 40.5952C172.5 40.519 172.189 40.5698 171.904 40.8174C171.505 41.2999 171.099 41.7761 170.693 42.2523C169.66 43.0967 168.627 43.9474 167.6 44.8045C166.706 44.6839 166.319 45.3886 165.825 45.9029C165.229 46.5823 164.639 47.2679 164.056 47.96C162.706 48.8679 161.076 49.5726 161.311 51.6614C161.412 51.7503 161.526 51.782 161.634 51.8201C161.622 51.8265 161.609 51.8455 161.59 51.8519C161.152 52.0233 160.734 52.182 160.303 52.3471C160.201 52.2138 160.068 52.1312 159.916 52.0614C159.884 51.9979 159.827 51.9408 159.777 51.8773C160.645 50.7662 162.167 50.0361 161.881 48.2457C159.682 46.595 159.732 49.852 158.312 49.8837C157.83 50.0488 157.368 50.2266 156.892 50.398C155.276 50.7662 153.792 51.3503 153.184 53.1153C153.139 53.4201 153.07 53.7439 153.006 54.055C151.7 55.4327 150.851 57.3247 148.828 57.9278C148.163 58.4548 147.098 57.9151 146.546 58.7786C146.762 59.8897 145.836 60.4547 145.348 61.2229C145.488 61.3563 145.614 61.4959 145.76 61.6102C145.12 62.4356 144.48 63.2673 143.846 64.0927C143.624 64.08 143.402 64.1181 143.174 64.3403C142.337 65.1212 141.906 66.2957 140.771 66.7846C140.467 67.1021 140.162 67.4132 139.858 67.737C138.825 68.302 137.791 68.8734 136.752 69.4448C136.587 69.2924 136.422 69.1464 136.264 69.0067C134.964 70.2003 133.671 71.3876 132.39 72.5749L132.39 72.5812C132.061 72.3146 131.725 72.0542 131.395 71.7812C130.298 72.2511 129.886 73.0574 130.159 74.2192C130.032 74.3653 129.943 74.5303 129.886 74.7208C130.571 76.4541 131.072 75.0192 131.642 74.6192C131.801 74.7208 131.965 74.8351 132.111 74.9621C132.022 76.0033 131.503 76.6763 130.476 76.9556C130.476 76.9937 130.488 77.0318 130.495 77.0636C129.943 77.7175 129.392 78.3841 128.84 79.0381C127.984 79.965 127.135 80.8793 126.279 81.8126C126.273 81.8253 126.273 81.8443 126.266 81.857C126.26 81.8443 126.26 81.8253 126.26 81.8126C125.803 81.5713 125.334 81.3047 125.296 82.1808C123.99 83.0062 124.561 79.2095 122.754 81.165C121.638 82.3713 122.469 83.0189 123.299 83.7363C123.122 83.8696 122.951 84.022 122.773 84.149C122.532 85.5839 122.158 86.9235 120.681 87.5965C118.862 88.8028 117.822 90.6948 116.446 92.2884C116.459 92.428 116.478 92.536 116.516 92.6439C116.503 92.6375 116.491 92.6375 116.472 92.6312C115.762 93.4375 115.045 94.2438 114.335 95.0501C113.53 96.0533 112.725 97.0374 111.92 98.0405C111.375 98.1738 111.058 98.7262 110.525 98.8659C110.417 99.0373 110.284 99.1706 110.12 99.2849C109.847 99.9198 109.581 100.548 109.308 101.177C108.604 102.002 107.894 102.821 107.197 103.647C106.931 104.047 106.665 104.44 106.912 104.948C107.045 104.847 107.191 104.751 107.33 104.675C107.869 104.567 108.344 104.345 108.769 104.002C108.471 104.421 108.275 104.885 108.287 105.462L108.408 105.513C107.964 106.58 107.337 107.481 106.265 108.002C105.828 108.51 105.403 109.024 104.972 109.551C104.801 109.646 104.649 109.761 104.522 109.926C103.349 110.688 102.487 111.697 101.967 112.999L101.948 113.024C103.622 112.986 103.92 111.323 104.915 110.497C104.921 110.523 104.908 110.554 104.915 110.592C105.067 110.808 105.27 110.884 105.517 110.796C105.676 110.719 105.815 110.592 105.916 110.446C107.609 109.938 107.73 107.742 109.384 107.221C110.031 106.637 110.684 106.085 111.647 106.58C111.261 107.291 110.513 107.875 110.937 108.84C111.698 108.497 112.446 108.167 113.188 107.831C113.682 107.704 113.834 107.31 113.955 106.866C114.012 106.58 114.044 106.288 114.044 106.002C113.98 105.456 114.139 104.802 113.346 104.637L113.365 104.58C112.807 104.605 112.56 104.904 112.541 105.437C112.51 105.481 112.465 105.532 112.433 105.589C112.015 105.075 111.914 104.497 112.167 103.843C111.641 102.402 110.772 102.555 109.841 103.037C110.043 102.796 110.202 102.529 110.284 102.193C111.191 102.263 112.034 101.97 112.852 101.596C113.27 101.317 113.562 100.955 113.727 100.479C113.803 100.079 113.752 99.6849 113.619 99.3103C114.247 99.1198 114.754 98.6373 115.381 98.4278C115.578 98.2373 115.724 98.0278 115.819 97.7548C115.939 96.8088 116.402 95.9263 116.358 94.9359C116.782 94.3708 117.201 93.8121 117.625 93.2534C117.79 93.2407 117.968 93.2216 118.133 93.2153C120.256 92.136 121.429 89.9265 123.369 88.6504C123.933 88.0917 124.485 87.5393 125.005 86.9552C125.024 87.5584 126.082 87.1457 126.387 87.4758C126.444 87.6155 126.507 87.6917 126.558 87.7996C126.323 88.0853 126.082 88.3774 125.937 88.7012C125.125 89.6472 124.307 90.5932 123.483 91.5455C123.014 91.7741 122.545 92.009 122.076 92.2376C121.119 92.9486 120.687 94.739 118.912 93.7803C117.385 94.8978 116.009 96.066 117.904 98.0278L117.904 98.123C118.355 98.104 118.792 97.9897 119.172 97.7357C120.523 96.8215 121.816 95.8374 122.64 94.3645C122.925 94.8025 123.192 95.2787 123.775 95.4247C123.959 95.4247 124.123 95.3676 124.301 95.3295C123.369 96.2057 122.602 97.177 122.589 98.6056C122.304 98.942 122.019 99.2722 121.74 99.615C121.042 99.7611 120.751 100.339 120.409 100.853C120.396 100.98 120.434 101.101 120.466 101.202C118.665 101.945 118.247 104.155 116.535 104.986C116.465 105.126 116.358 105.208 116.218 105.24C115.705 105.71 115.844 106.269 115.92 106.815C115.895 106.815 115.876 106.834 115.85 106.834C115.064 107.253 114.215 107.577 114.151 108.656C113.511 110.211 112.193 112.046 110.956 111.957C108.541 111.786 109.492 113.018 109.536 114.027C108.769 114.002 107.989 113.976 107.222 113.945C106.335 115.113 107.381 116.611 106.55 117.792C106.677 117.887 106.779 117.989 106.893 118.097C106.69 118.44 106.468 118.776 106.265 119.119C105.733 119.741 105.194 120.344 104.668 120.96C102.759 121.925 101.713 123.735 100.42 125.297C98.9937 126.566 97.6181 127.919 96.1029 129.087C94.9808 129.969 95.1457 130.553 96.217 131.201L96.1473 131.201C96.1727 131.201 96.1853 131.201 96.2107 131.207C95.3612 132.198 94.5181 133.188 93.6686 134.179C91.6463 134.979 90.8792 137.029 89.4401 138.401L89.3324 138.274C88.6477 138.566 87.9694 138.883 87.7982 139.728C86.3972 142.47 84.0452 144.47 82.2195 146.87C80.8311 147.639 79.6837 148.673 78.8405 150.019C78.5299 150.337 78.2256 150.654 77.9213 150.972C77.6424 151.308 77.3698 151.645 77.0845 151.981C76.7295 152.388 76.3491 152.788 76.0004 153.2C75.3538 153.721 74.7072 154.241 74.2 154.889C73.9718 155.092 73.7626 155.308 73.5851 155.549C73.0209 156.533 72.501 157.537 71.4487 158.102C71.2078 158.241 70.9796 158.394 70.7577 158.59C70.0286 159.187 69.4327 159.917 68.7988 160.603C68.6086 160.673 68.393 160.705 68.1458 160.667C67.962 160.527 67.7781 160.406 67.6006 160.273C66.8145 160.87 66.5673 161.714 66.4532 162.628C64.6527 163.225 63.7589 164.736 62.7699 166.133C62.4339 166.457 62.117 166.838 61.7429 167.054C61.4767 167.193 61.3309 167.409 61.3055 167.714C61.3055 167.72 61.3055 167.72 61.2992 167.727C61.2738 167.6 61.2865 167.473 61.2231 167.365C62.3959 164.844 64.0885 162.584 65.0648 159.962C65.1853 159.263 65.4452 158.521 64.7922 157.975C64.9127 157.302 64.881 156.629 64.7035 155.962C64.6591 155.911 64.621 155.892 64.5703 155.854C65.3438 155.74 65.7241 155.2 66.0665 154.622C66.1299 154.972 66.3074 155.27 66.7701 155.454C67.962 155.594 68.9509 155.092 69.8828 154.419C70.4851 153.899 70.9796 153.308 71.1761 152.514C71.2078 152.28 71.1571 152.083 71.0873 151.924C71.3155 151.645 71.5628 151.365 71.7847 151.092C72.0953 150.991 72.3869 150.883 72.6659 150.711C73.173 150.229 73.4139 149.473 73.9021 149.213C73.509 149.74 72.8053 150.203 73.5407 151.149C73.547 151.156 73.5597 151.149 73.5661 151.156C73.3188 151.403 73.0779 151.657 72.8307 151.905C71.6896 152.362 71.6896 153.753 70.8084 154.426C70.5421 154.749 70.2759 155.067 69.9969 155.384C70.0667 155.981 70.3963 156.324 70.9732 156.47C72.2982 156.387 73.2301 155.683 73.9147 154.572C74.3014 153.702 74.853 152.876 74.7262 151.854C74.7325 151.854 74.7389 151.861 74.7452 151.867C75.3094 151.816 75.7405 151.556 76.0321 151.054C77.6614 150.083 77.5346 148.292 78.0227 146.769C77.2747 147.01 76.5393 147.258 75.7912 147.499C75.4552 147.219 75.1319 146.94 74.8023 146.661C74.2 146.959 73.5851 147.27 72.9828 147.556C72.3679 148.591 71.5628 149.397 70.39 149.778C69.775 149.892 69.382 150.191 69.2172 150.673C68.9256 150.47 68.6403 150.235 68.393 149.975C68.5389 149.886 68.691 149.81 68.8241 149.696C70.4977 148.381 70.8971 146.527 70.9732 144.553C71.2268 143.918 71.5755 143.309 71.5755 142.604C72.1777 142.934 72.8307 142.928 73.4837 142.813C74.3268 142.667 75.189 142.832 76.0321 142.724C76.4822 142.648 76.8753 142.477 77.2176 142.147C77.7691 141.48 78.6313 140.674 78.5299 140.013C78.1685 137.455 80.0704 135.817 80.7424 133.696C80.7233 133.595 80.6599 133.512 80.6156 133.423C81.3446 132.128 82.0737 130.833 82.809 129.525C82.6442 129.341 82.4921 129.163 82.3399 128.985C82.6315 128.693 82.8471 128.363 82.9231 127.95C82.9231 127.849 82.8724 127.773 82.8471 127.696C83.9882 127.36 84.6538 126.776 84.2227 125.614C84.3115 125.538 84.4066 125.462 84.4953 125.36C84.863 124.808 85.2054 124.236 84.4002 123.741C83.1894 123.722 82.8534 124.814 82.1624 125.462C82.0356 125.931 81.9088 126.408 81.7884 126.896L82.0737 126.871C82.0863 126.877 82.0863 126.884 82.0863 126.896C81.9912 126.896 81.8835 126.896 81.7884 126.903C79.037 130.236 76.6154 133.849 73.4646 136.858C71.6579 136.439 70.4787 137.423 69.4074 138.667C68.7354 139.613 67.9429 140.42 66.8082 140.794C65.4388 140.858 65.0902 142.159 64.2851 142.902C64.4182 143.048 64.564 143.175 64.7035 143.309C64.7605 143.62 64.8176 143.962 64.862 144.293C65.255 144.039 65.6417 143.785 66.0348 143.531C66.0157 143.455 66.0221 143.397 66.0157 143.328C66.1235 143.397 66.282 143.461 66.4341 143.524C66.0284 144.02 65.6734 144.61 65.1219 144.858C64.6654 145.366 64.3801 145.931 64.4309 146.623C63.6131 147.861 62.7953 149.086 61.0012 148.75C59.5495 151.543 58.1041 154.343 56.665 157.13C55.9423 157.905 55.2069 158.667 54.4906 159.441C53.8693 159.378 53.3875 160.184 52.7028 159.733C52.4112 158.724 51.7773 158.121 50.6995 158.083C50.0085 160.94 47.403 163.289 48.449 166.596C48.2652 166.952 48.0813 167.295 47.9038 167.638C47.6312 168.311 47.365 168.984 47.0987 169.657C46.8134 169.968 46.5408 170.273 46.2619 170.584C45.2095 171.485 44.6834 173.218 43.1302 173.244C41.3044 173.282 40.8226 174.488 40.1887 175.726C38.6165 176.215 38.7052 177.796 38.103 178.913C37.5578 179.332 37.0126 179.758 36.4801 180.177C36.442 180.145 36.423 180.12 36.3723 180.094C34.7938 179.79 34.4134 181.586 33.1899 181.916C30.4956 184.12 30.1216 187.764 27.9598 190.303C27.6745 191.872 25.6142 193.237 27.3702 195.008L27.3639 195.014C27.2688 195.148 27.2054 195.287 27.1547 195.427C26.2862 195.364 25.6586 193.027 24.5618 195.16C23.3764 197.11 21.6393 198.773 21.297 201.173C20.4095 202.398 19.9023 203.833 19.1289 205.128C15.5534 211.115 11.5596 216.899 9.34074 223.616C5.66384 229.464 2.62722 235.603 1.36567 242.479C-0.510821 244.181 -0.396711 245.901 1.35933 247.603C0.319651 249.946 -0.174829 252.282 1.4671 254.587C1.32763 258.878 5.03623 260.396 7.41987 262.878C8.1299 264.135 8.68143 265.418 9.55628 266.637C11.3884 269.208 14.3109 270.186 16.3269 272.351C17.1129 273.494 17.8737 274.662 18.7042 275.786C23.0023 281.665 28.2831 286.338 35.1995 288.941C38.5214 289.487 41.6341 290.566 44.4234 292.477C44.5376 292.636 44.677 292.68 44.8736 292.623C45.9196 293.848 47.2635 294.407 48.8484 294.401C48.7406 294.287 48.6455 294.141 48.5948 293.995C48.6202 293.988 48.6455 293.982 48.6772 293.982C48.747 294.121 48.7914 294.274 48.8484 294.401C49.5648 296.452 51.847 296.579 53.1085 297.969C53.1339 298.585 53.1719 299.188 53.21 299.804C53.5523 302.35 55.5302 302.166 57.3243 302.286C57.4828 302.439 57.6666 302.528 57.8758 302.534C58.1548 302.616 58.4274 302.705 58.7 302.788C59.8284 303.81 59.7967 305.391 60.5574 306.597C62.548 308.705 65.4262 309.67 67.3407 311.924C67.9112 312.61 68.7988 313.27 69.9145 312.883C71.3029 313.314 72.6912 313.352 74.0859 312.914C78.4348 313.372 82.4604 312.153 86.3972 310.514C94.5054 308.546 101.396 304.134 108.256 299.651C118.006 294.363 127.242 288.344 135.319 280.655C135.325 280.655 135.325 280.649 135.332 280.649C136.707 280.167 137.69 279.176 138.831 278.084C137.994 278.103 137.405 278.122 136.752 278.135C137.1 276.897 138.299 277.271 138.844 276.636C139.192 277.03 139.528 277.456 140.105 276.998C143.77 274.275 147.827 272.103 151.111 268.878C152.011 268.681 152.657 268.116 153.196 267.392C153.45 267.291 153.716 267.132 153.875 266.935C156.284 265.297 158.705 263.672 160.652 261.469C167.137 257.12 172.874 251.895 178.453 246.479C181.496 243.914 184.539 241.355 187.588 238.797C188.647 238.835 188.228 237.749 188.685 237.343C193.68 233.781 197.421 228.988 201.269 224.296L201.472 224.131L201.51 223.864C206.6 219.934 210.873 215.147 214.582 209.992C216.775 206.938 220.408 205.039 221.479 201.16C221.39 201.141 221.314 201.16 221.232 201.16C221.232 201.154 221.238 201.154 221.244 201.141L221.479 201.16C224.262 199.033 226.386 196.284 228.509 193.548C228.364 193.364 228.186 193.268 227.983 193.224C228.009 193.18 228.04 193.154 228.072 193.116C228.281 191.154 229.879 190.088 230.931 188.672C231.102 188.507 231.261 188.329 231.419 188.158C231.882 187.085 232.77 186.634 233.771 186.164C234.893 185.631 234.595 184.856 233.695 184.253C233.746 183.948 233.79 183.637 233.835 183.332C234.938 182.259 236.053 181.193 237.156 180.12C240.592 179.491 241.683 176.774 242.634 173.93C242.697 173.65 242.735 173.371 242.735 173.079C242.729 172.895 242.665 172.749 242.57 172.634C243.337 172.203 243.876 171.555 244.326 170.819L244.124 170.596C244.58 170.133 245.03 169.676 245.474 169.225C245.956 167.117 247.788 165.771 248.485 163.784C248.986 163.149 249.487 162.501 249.988 161.867C250.533 161.194 251.826 161.155 251.712 159.898C252.124 159.663 252.536 159.428 252.954 159.2C253.138 158.914 253.36 158.66 253.424 158.336C254.001 158.102 254.622 157.981 255.18 157.67C255.985 156.654 256.796 155.632 257.608 154.61C259.243 153.08 260.258 151.118 261.361 149.213C261.367 148.896 261.221 148.686 260.93 148.585C260.898 148.585 260.86 148.591 260.822 148.585C260.625 148.07 260.372 147.543 260.815 146.991C260.777 146.483 260.911 146.064 261.126 145.689C261.437 145.518 261.747 145.359 262.071 145.283C262.502 145.131 262.914 144.915 263.237 144.585C264.175 143.366 264.353 140.826 266.92 142.49C267.351 140.769 267.618 138.979 269.158 137.791C269.577 134.769 269.374 134.35 267.212 135.017C268.061 134.388 269.596 134.579 269.716 133.093C270.718 131.379 272.727 130.344 273.07 128.166C274.769 126.484 276.455 124.795 277.704 122.725C277.976 123.741 278.471 123.722 279.111 123.036C280.474 122.459 279.967 121.049 280.436 120.078C280.259 118.757 281.241 118.002 281.837 117.018C282.439 116.033 282.103 115.754 281.482 115.754C281.546 115.443 281.558 115.126 281.533 114.795C281.641 114.319 281.761 113.83 281.875 113.341C282.078 113.227 282.281 113.119 282.477 112.999C283.606 111.697 285.603 111.049 285.654 108.91C285.666 108.586 285.666 108.275 285.673 107.964C286.731 106.25 287.79 104.548 288.855 102.834C289.178 102.574 289.502 102.307 289.831 102.04C289.926 101.551 290.015 101.063 290.11 100.567C290.77 99.7611 291.416 98.9357 292.069 98.123C292.221 98.1484 292.38 98.1484 292.532 98.0913C292.963 97.6596 293.426 97.2469 293.578 96.631C293.819 95.9517 294.053 95.2787 294.301 94.6057C294.079 92.7391 296.082 92.1423 296.557 90.6694C297.16 89.9964 297.756 89.3297 298.352 88.6504C298.212 88.5679 298.085 88.479 297.952 88.3837C297.356 87.8377 296.64 87.9203 295.93 88.0028C295.885 88.0155 295.854 88.0219 295.816 88.0346C295.987 87.7044 296.139 87.3616 296.298 87.0187C296.424 86.8917 296.576 86.7648 296.703 86.6251C296.729 86.6632 296.729 86.7013 296.76 86.7457C297.515 87.0632 297.92 87.8187 298.605 88.2123C299.296 88.2123 299.651 87.8758 299.619 87.1647C299.905 85.8696 300.881 84.7585 300.697 83.2411C299.81 83.5649 299.163 84.3077 298.212 83.9903C298.643 82.9998 299.068 82.0157 299.505 81.019L299.613 81.2031C300.317 80.8729 299.962 79.7746 300.824 79.546C301.109 79.254 301.395 78.9429 301.673 78.6444C302.821 78.4476 303.391 77.5715 303.962 76.7144C304.311 76.0795 304.203 75.3747 304.222 74.7018C304.228 74.4986 304.304 74.3145 304.469 74.1875C304.564 73.6796 304.666 73.1717 304.78 72.6637C304.976 72.2765 305.293 71.9082 305.35 71.5146C305.521 70.3972 308.032 69.4893 306.244 68.4861C304.609 67.5719 304.773 70.0797 303.937 70.8987C303.746 71.0829 303.797 71.5082 303.74 71.8257C303.296 72.2828 302.846 72.7336 302.44 73.2098C299.867 76.2255 298.637 80.2126 295.505 82.8284C294.694 82.9681 294.263 83.476 294.155 84.2887C294.25 84.5617 294.446 84.714 294.681 84.8029C294.643 84.8283 294.618 84.8601 294.58 84.8728C292.145 85.7045 291.752 87.9901 290.953 89.9773C290.985 90.3138 291.15 90.5233 291.41 90.6694C291.391 90.6884 291.378 90.7075 291.359 90.7265C289.99 92.7836 287.638 94.047 286.712 96.4596C286.573 97.2215 286.351 97.958 285.99 98.5992C285.698 98.9103 285.419 99.2278 285.14 99.5516C285.14 99.5579 285.14 99.5579 285.146 99.5642C285.096 99.6023 285.064 99.6531 285.001 99.6849C284.715 99.996 284.474 100.345 284.322 100.745C284.303 100.898 284.246 101.018 284.214 101.164C283.295 101.266 282.649 101.932 281.97 102.51C281.076 103.805 280.132 105.062 279.13 106.256C279.067 106.332 279.01 106.427 278.953 106.51C278.959 106.377 278.902 106.275 278.737 106.199C278.927 106.142 279.092 106.027 279.175 105.805C279.143 105.659 279.13 105.513 279.13 105.393C279.701 104.777 280.246 104.155 280.487 103.342C280.506 103.316 280.525 103.291 280.544 103.266C280.557 103.139 280.569 103.018 280.588 102.897C280.595 102.859 280.614 102.834 280.614 102.809C280.607 102.815 280.601 102.815 280.601 102.821L280.595 102.815C280.595 102.758 280.588 102.701 280.582 102.637C280.664 102.694 280.728 102.745 280.823 102.777C281.514 102.561 281.894 102.097 281.945 101.374C282.649 100.548 283.352 99.7166 284.056 98.8913C284.785 97.4945 285.52 96.0914 286.256 94.6883L286.376 94.8851C286.858 94.2375 287.34 93.5962 287.815 92.955C288.101 92.1233 289.001 91.2725 287.739 90.5106C288.43 90.4916 289.273 90.9995 289.692 89.9456C290.028 89.4631 290.364 88.9869 290.712 88.498C290.884 87.5393 291.892 87.0505 292.082 86.1045C292.583 85.9013 292.9 85.5585 292.969 85.0061C293.242 84.6633 293.521 84.3141 293.8 83.9839C294.174 83.1586 294.554 82.3332 294.941 81.5142C295.283 81.019 295.632 80.5237 295.974 80.0349C296.082 80.0793 296.164 80.1174 296.266 80.1619C297.375 78.4095 298.529 76.6763 299.119 74.6573C299.493 73.0002 301.927 71.9654 300.608 69.7877C300.742 69.667 300.818 69.5274 300.837 69.3559C302.307 69.1337 303.512 68.5115 304.235 67.1465C304.184 65.3307 305.87 63.9085 305.35 61.9975C306.904 61.3817 308.33 60.6579 308.71 58.823C309.534 58.4357 309.471 57.6802 309.503 56.9628C309.034 56.8739 308.698 57.0199 308.431 57.2675C308.45 56.639 308.774 55.985 308.228 55.42C308.064 55.2867 307.886 55.2168 307.696 55.166C308.171 54.1883 307.303 53.3947 307.309 52.4931C307.449 52.3471 307.55 52.182 307.607 51.9916C309.148 49.9028 311.132 48.106 312.115 45.6109C310.263 46.5823 310.517 45.4521 310.802 44.2903C310.625 44.1062 310.454 43.9093 310.27 43.7125C309.712 43.4332 309.192 43.103 309.471 42.3348L309.68 42.538C310.371 42.2586 310.866 41.8332 310.916 41.0269C311.449 40.0619 311.157 39.3444 310.238 38.8238C310.099 38.9445 309.953 39.0397 309.788 39.0778C309.015 39.6619 307.829 39.9095 307.988 41.2682C307.347 42.0808 306.701 42.8935 306.054 43.6935C304.304 42.6015 306.834 41.6618 306.181 40.6142C306.016 40.4428 305.87 40.2777 305.718 40.1063C305.395 39.827 305.078 39.5286 304.767 39.2492C304.85 39.0524 304.951 38.8619 305.065 38.6778C305.927 37.7064 306.789 36.7223 307.664 35.7509C312.336 34.3796 314.257 32.0749 313.959 28.202C313.04 28.2274 312.495 28.7925 312.07 29.529C311.905 31.4273 310.454 32.1257 309.122 32.913C309.687 32.2019 310.238 31.4717 310.809 30.7543C310.707 30.6146 310.599 30.475 310.492 30.3289L310.485 30.3416C311.493 29.1734 312.508 28.0052 313.522 26.837C313.592 26.6529 313.661 26.4751 313.725 26.291C313.757 26.2466 313.75 26.1577 313.687 26.037C313.623 25.9037 313.497 25.8529 313.287 25.891C312.825 26.4434 312.463 27.1545 311.544 27.0211C311.271 27.3449 310.999 27.6751 310.733 28.0052C310.149 28.5068 309.756 29.1036 309.801 29.9036C309.782 29.9226 309.813 29.9734 309.864 30.0369C309.458 30.475 309.059 30.913 308.66 31.3638C308.089 31.4019 307.518 31.4273 307.119 31.6178C307.449 31.1543 307.664 30.6337 307.854 30.094C307.911 29.8147 307.88 29.5226 307.753 29.256L307.753 29.256Z" id="Fill-578" fill="#F7D1C9" fill-rule="evenodd" stroke="none" />
  </g>
</svg>