<?xml version="1.0" encoding="utf-8"?>
<svg width="26px" height="17px" viewbox="0 0 26 17" version="1.1" xmlns:xlink="http://www.w3.org/1999/xlink" xmlns="http://www.w3.org/2000/svg">
  <g id="view">
    <path d="M25.8348 7.84708C25.6025 7.5266 20.0682 0 12.9999 0C5.93157 0 0.397009 7.5266 0.164989 7.84677C-0.0549963 8.15081 -0.0549963 8.56317 0.164989 8.86721C0.397009 9.18769 5.93157 16.7143 12.9999 16.7143C20.0682 16.7143 25.6025 9.18763 25.8348 8.86746C26.0551 8.56348 26.0551 8.15081 25.8348 7.84708ZM12.9999 14.9852C7.79332 14.9852 3.28388 9.98968 1.94899 8.35655C3.28215 6.722 7.78215 1.72906 12.9999 1.72906C18.2062 1.72906 22.7153 6.72374 24.0508 8.35773C22.7176 9.99224 18.2176 14.9852 12.9999 14.9852Z" id="Shape" fill="#000000" stroke="none" />
    <path d="M5.10714 0C2.29112 0 0 2.29112 0 5.10714C0 7.92317 2.29112 10.2143 5.10714 10.2143C7.92317 10.2143 10.2143 7.92317 10.2143 5.10714C10.2143 2.29112 7.92317 0 5.10714 0ZM5.10714 8.51187C3.22969 8.51187 1.70241 6.98454 1.70241 5.10714C1.70241 3.22974 3.22974 1.70241 5.10714 1.70241C6.98454 1.70241 8.51187 3.22974 8.51187 5.10714C8.51187 6.98454 6.98459 8.51187 5.10714 8.51187Z" transform="translate(7.428571 2.7857144)" id="Shape" fill="#000000" stroke="none" />
  </g>
</svg>