<?xml version="1.0" encoding="UTF-8" standalone="no"?><svg xmlns:svg="http://www.w3.org/2000/svg" xmlns="http://www.w3.org/2000/svg" xmlns:xlink="http://www.w3.org/1999/xlink" version="1.0" width="64px" height="64px" viewBox="0 0 128 128" xml:space="preserve"><rect x="0" y="0" width="100%" height="100%" fill="#FFFFFF00" /><g><path d="M64 0a8 8 0 0 1 8 8c0 4.42-8 48.92-8 48.92S56 12.42 56 8a8 8 0 0 1 8-8z" fill="#973c56"/><path d="M64 0a8 8 0 0 1 8 8c0 4.42-8 48.92-8 48.92S56 12.42 56 8a8 8 0 0 1 8-8z" fill="#fcfafa" transform="rotate(30 64 64)"/><path d="M64 0a8 8 0 0 1 8 8c0 4.42-8 48.92-8 48.92S56 12.42 56 8a8 8 0 0 1 8-8z" fill="#f6edf0" transform="rotate(60 64 64)"/><path d="M64 0a8 8 0 0 1 8 8c0 4.42-8 48.92-8 48.92S56 12.42 56 8a8 8 0 0 1 8-8z" fill="#eddee3" transform="rotate(90 64 64)"/><path d="M64 0a8 8 0 0 1 8 8c0 4.42-8 48.92-8 48.92S56 12.42 56 8a8 8 0 0 1 8-8z" fill="#e4cdd4" transform="rotate(120 64 64)"/><path d="M64 0a8 8 0 0 1 8 8c0 4.42-8 48.92-8 48.92S56 12.42 56 8a8 8 0 0 1 8-8z" fill="#dbbbc4" transform="rotate(150 64 64)"/><path d="M64 0a8 8 0 0 1 8 8c0 4.42-8 48.92-8 48.92S56 12.42 56 8a8 8 0 0 1 8-8z" fill="#d1a9b4" transform="rotate(180 64 64)"/><path d="M64 0a8 8 0 0 1 8 8c0 4.42-8 48.92-8 48.92S56 12.42 56 8a8 8 0 0 1 8-8z" fill="#c694a2" transform="rotate(210 64 64)"/><path d="M64 0a8 8 0 0 1 8 8c0 4.42-8 48.92-8 48.92S56 12.42 56 8a8 8 0 0 1 8-8z" fill="#bc8192" transform="rotate(240 64 64)"/><path d="M64 0a8 8 0 0 1 8 8c0 4.42-8 48.92-8 48.92S56 12.42 56 8a8 8 0 0 1 8-8z" fill="#b26e81" transform="rotate(270 64 64)"/><path d="M64 0a8 8 0 0 1 8 8c0 4.42-8 48.92-8 48.92S56 12.42 56 8a8 8 0 0 1 8-8z" fill="#a85c72" transform="rotate(300 64 64)"/><path d="M64 0a8 8 0 0 1 8 8c0 4.42-8 48.92-8 48.92S56 12.42 56 8a8 8 0 0 1 8-8z" fill="#a04c64" transform="rotate(330 64 64)"/><animateTransform attributeName="transform" type="rotate" values="0 64 64;30 64 64;60 64 64;90 64 64;120 64 64;150 64 64;180 64 64;210 64 64;240 64 64;270 64 64;300 64 64;330 64 64" calcMode="discrete" dur="840ms" repeatCount="indefinite"></animateTransform></g></svg>